<?xml version="1.0" encoding="UTF-8" standalone="no"?><!DOCTYPE svg PUBLIC "-//W3C//DTD SVG 1.1//EN" "http://www.w3.org/Graphics/SVG/1.1/DTD/svg11.dtd"><svg width="100%" height="100%" viewBox="0 0 992 966" version="1.1" xmlns="http://www.w3.org/2000/svg" xmlns:xlink="http://www.w3.org/1999/xlink" xml:space="preserve" xmlns:serif="http://www.serif.com/" style="fill-rule:evenodd;clip-rule:evenodd;stroke-linecap:round;stroke-linejoin:round;stroke-miterlimit:1;"><path d="M140.771,919.042c0,0 12.371,23.544 12.371,29.921c0,6.378 -5.543,11.556 -12.371,11.556c-6.827,0 -12.37,-5.178 -12.37,-11.556c0,-6.377 12.37,-29.921 12.37,-29.921Z" style="fill:#ffdf00;stroke:#0b1624;stroke-width:6.44px;"/><path d="M271.801,920.564c0,0 8.314,23.543 8.314,29.92c0,6.378 -1.486,11.556 -8.314,11.556c-6.827,0 -12.37,-5.178 -12.37,-11.556c0,-6.377 12.37,-29.92 12.37,-29.92Z" style="fill:#ffdf00;stroke:#0b1624;stroke-width:6.44px;"/><path d="M660.41,784.031c0,0 8.314,18.157 8.314,23.075c0,4.919 -1.487,8.912 -8.314,8.912c-6.827,0 -12.37,-3.993 -12.37,-8.912c0,-4.918 12.37,-23.075 12.37,-23.075Z" style="fill:#ffdf00;stroke:#0b1624;stroke-width:6.44px;"/><path d="M491.987,874.547c0,0 8.314,23.544 8.314,29.921c0,6.378 -1.487,18.12 -8.314,18.12c-6.828,0 -12.371,-11.742 -12.371,-18.12c0,-6.377 12.371,-29.921 12.371,-29.921Z" style="fill:#ffdf00;stroke:#0b1624;stroke-width:6.44px;"/><path d="M729.201,678.541c16.364,-4.442 12.429,-34.626 12.529,-35.132c1.586,-7.978 -1.305,-15.832 0,-23.554c2.366,-13.995 8.62,-27.557 10.161,-40.64c0.398,-3.382 -15.921,2.4 -24.607,0c-9.414,-2.6 -6.663,-11.781 -17.2,-26.152c-11.791,-16.081 9.27,-31.799 20.375,-33.925c7.371,-1.411 25.669,11.228 25.874,7.076c4.33,-87.66 -33.283,-140.365 -36.195,-145.191c-5.701,-9.451 -19.078,-19.449 -37.413,-29.042c-9.845,-5.151 -18.792,-12.184 -31.075,-16.953c-26.227,-10.185 -61.393,-11.132 -92.722,-17.472c-15.521,-3.14 -29.152,-11.666 -44.422,-13.336c-18.615,-2.036 -35.225,-6.807 -51.824,-6.082c-20.433,0.893 -40.104,8.074 -54.433,14.219c-12.135,5.204 -19.497,44.011 -72.254,68.666c-9.721,4.543 9.833,6.601 16.197,13.73c4.986,5.584 8.991,25.566 0,36.384c-10.039,12.08 -32.998,12.295 -40.556,10.847c-11.79,-2.259 -24.949,-18.361 -20.255,-10.847c13.377,21.415 -146.62,187.712 -178.208,212.272c1.017,15.924 1.829,31.498 2.378,46.623c0.242,6.663 14.587,-27.156 35.832,2.854c5.29,7.471 11.345,21.596 7.958,26.432c-8.657,12.359 -42.973,9.411 -42.991,15.225c-0.058,18.444 4.108,29.435 2.82,45.778c-0.159,2.017 0,27.285 0,27.285c0,0 9.716,19.313 8.656,41.273c-0.13,2.693 -3.105,15.58 6.688,15.597c11.293,0.02 6.46,-10.122 6.287,-13.68c-0.514,-10.581 -3.937,-34.949 3.868,-43.19c4.327,-4.568 24.987,-4.26 31.144,-7.668c6.429,-3.559 10.151,-9.591 11.85,-13.104c5.845,0.421 12.348,0.444 20.165,-0.762c3.217,-0.496 6.82,3.634 10.032,4.508c5.103,1.388 9.216,0 9.216,0c0,0 9.302,-0.456 15.061,0c7.088,0.562 14.27,-9.335 17.668,-10.259c1.252,-0.341 7.445,-4.944 8.588,2.893c2.058,14.106 -4.172,32.478 -3.556,48.232c0.672,17.192 21.331,23.374 22.946,4.325c1.526,-18.004 -1.928,-46.327 0,-62.629c0.746,-6.31 9.662,-5.047 12.219,-5.647c4.301,-1.01 21.815,1.588 26.022,0c7.84,-2.959 9.686,1.166 15.351,0c2.417,-0.497 7.5,-4.273 10.817,-6.186c6.588,-3.8 15.85,-4.953 24.902,-11.186c4.814,-3.315 9.834,-13.295 13.776,-14.328c3.555,-0.932 6.279,12.673 3.529,22.357c-3.557,12.524 13.845,15.372 19.89,4.784c5.235,-9.169 -3.66,-28.658 0,-30.775c4.183,-2.42 16.683,-8.782 16.683,-8.782c0,0 12.34,-12.875 16.986,-14.084c11.776,-3.063 19.474,7.488 31.526,5.227c4.688,-0.88 -0.243,23.415 1.652,37.388c2.407,17.754 19.096,22.672 18.895,6.242c-0.038,-3.142 -0.687,-28.257 3.184,-38.834c3.347,-9.143 11.046,-4.078 13.73,-4.796c12.566,-3.366 10.807,-10.173 22.917,-15.46c3.823,-1.67 -17.523,-11.49 -17.206,-25.539c0.288,-12.778 6.372,-27.847 17.206,-30.114c6.519,-1.364 20.975,-3.571 29.374,0c6.532,2.777 7.543,10.484 10.278,15.553c7.429,13.767 -0.008,31.193 4.518,33.924c4.294,2.59 14.72,0.5 23.788,-5.122c2.476,-1.535 6.343,4.513 9.251,5.122c7.996,1.674 14.998,0.363 18.984,-1.197c6.721,-2.63 8.135,45.192 7.23,51.158c-1.6,10.54 7.904,15.962 13.444,0c5.466,-15.749 2.371,-54.589 5.929,-55.517c5.241,-1.366 7.874,-3.63 15.056,-3.147c2.743,0.184 5.86,2.936 9.308,3.581c5.201,0.973 10.706,-0.128 13.24,-0.434c2.37,-0.441 2.883,0.992 4.721,4.359c0.687,1.26 11.268,15.107 7.227,37.718c-2.241,12.535 18.364,9.656 15.074,0c-5.309,-15.578 3.703,-31.333 3.175,-37.718c0,0 -4.957,-12.144 -1.258,-13.148Z" style="fill:#ffdf00;stroke:#0b1624;stroke-width:6.44px;stroke-miterlimit:1.5;"/><g><path d="M658.136,613.787c15.524,0 28.127,12.603 28.127,28.126c0,15.523 -22.423,21.876 -37.946,21.876c-15.523,0 -28.126,-12.603 -28.126,-28.127c0,-15.523 22.422,-21.875 37.945,-21.875Z" style="fill:#cfc368;stroke:#0b1624;stroke-width:6.44px;stroke-linejoin:miter;"/><path d="M599.093,339.331c15.523,0 28.126,12.603 28.126,28.127c0,15.523 -22.423,21.875 -37.946,21.875c-15.523,0 -28.126,-12.603 -28.126,-28.126c0,-15.523 22.422,-21.876 37.946,-21.876Z" style="fill:#cfc368;stroke:#0b1624;stroke-width:6.44px;stroke-linejoin:miter;"/><path d="M381.78,483.248c6.326,5.713 -1.644,13.45 -17.786,17.267c-16.143,3.817 -31.886,-2.872 -38.212,-8.585c-6.326,-5.712 1.644,-13.449 17.786,-17.266c16.143,-3.818 31.886,2.872 38.212,8.584Z" style="fill:#cfc368;stroke:#0b1624;stroke-width:6.44px;stroke-linejoin:miter;"/><path d="M429.387,628.464c1.405,5.687 0.277,9.929 0,14.127c-0.591,8.948 -3.399,15.885 -12.343,23.46c-15.348,13 -28.335,-3.035 -38.841,-23.46c-4.392,-8.539 -13.431,-16.343 -15.006,-24.297c-2.191,-11.072 5.117,-21.553 15.46,-26.873c8.957,-4.607 18.809,3.399 28.639,11.159c9.677,7.641 19.38,14.915 22.091,25.884Z" style="fill:#cfc368;stroke:#0b1624;stroke-width:6.44px;stroke-linejoin:miter;"/><path d="M507.271,511.345c15.524,0 24.028,12.603 18.98,28.126c-5.048,15.523 -29.537,21.875 -45.06,21.875c-15.523,0 -31.105,-21.732 -26.056,-37.255c5.048,-15.524 36.613,-12.746 52.136,-12.746Z" style="fill:#cfc368;stroke:#0b1624;stroke-width:6.44px;stroke-linejoin:miter;"/><path d="M477.185,599.592c1.649,-7.876 14.652,-10.853 21.992,-6.643c7.341,4.21 7.963,17.31 6.315,25.187c-1.649,7.876 -14.331,13.475 -21.671,9.265c-7.341,-4.211 -8.284,-19.932 -6.636,-27.809Z" style="fill:#cfc368;stroke:#0b1624;stroke-width:6.44px;stroke-linejoin:miter;"/><path d="M152.993,748.101c1.649,-7.877 26.829,-13.546 34.169,-9.336c7.341,4.21 -4.213,20.002 -5.862,27.879c-1.648,7.877 -14.33,13.475 -21.671,9.265c-7.34,-4.21 -8.284,-19.932 -6.636,-27.808Z" style="fill:#cfc368;stroke:#0b1624;stroke-width:6.44px;stroke-linejoin:miter;"/><path d="M630.95,513.598c18.339,13.438 42.194,19.698 27.797,41.194c-6.858,10.24 -32.155,2.922 -40.995,16.549c-7.273,11.213 -16.807,15.007 -25,15.49c-23.139,1.366 -28.405,-43.598 -21.011,-66.334c3.754,-11.545 9.548,-13.622 21.011,-14.304c11.11,-0.661 27.787,-0.224 38.198,7.405Z" style="fill:#cfc368;stroke:#0b1624;stroke-width:6.44px;stroke-linejoin:miter;"/><path d="M403.783,382.602c3.827,-21.12 39.416,-47.912 72.16,-47.424c35.224,0.525 47.08,11.402 41.169,21.929c-5.216,9.289 -11.172,15.574 -27.114,25.495c-6.663,4.146 -15.71,9.872 -23.56,14.806c-10.979,6.9 -26.898,8.072 -30.482,10.188c-16.707,9.861 -36,-3.875 -32.173,-24.994Z" style="fill:#cfc368;stroke:#0b1624;stroke-width:6.44px;stroke-linejoin:miter;"/><path d="M284.608,669.36c15.27,2.797 23.764,26.559 20.967,41.828c-2.797,15.269 -15.975,17.084 -31.244,14.287c-15.269,-2.797 -35.418,-17.069 -32.621,-32.339c2.797,-15.269 27.629,-26.572 42.898,-23.776Z" style="fill:#cfc368;stroke:#0b1624;stroke-width:6.44px;stroke-linejoin:miter;"/><path d="M703.029,436.88c10.24,11.667 19.823,23.6 13.058,37.572c-6.765,13.972 -25.653,-0.907 -39.625,-7.672c-13.971,-6.765 -29.676,-21.301 -22.238,-34.926c8.507,-15.583 39.267,-5.841 48.805,5.026Z" style="fill:#cfc368;stroke:#0b1624;stroke-width:6.44px;stroke-linejoin:miter;"/><path d="M564.229,422.575c9.725,0 24.261,6.944 24.261,6.944c0,0 8.183,21.152 4.854,38.185c-2.521,12.901 -23.997,19.083 -40.484,19.359c-31.116,0.519 -33.657,-27.952 -33.657,-27.952c0,0 5.926,-12.121 11.166,-20.708c7.414,-12.152 17.372,-15.828 33.86,-15.828Z" style="fill:#cfc368;stroke:#0b1624;stroke-width:6.44px;stroke-linejoin:miter;"/><path d="M253.036,579.061c0,0 9.13,-28.926 22.059,-34.164c15.838,-6.416 46.388,2.867 46.388,2.867c0,0 3.163,57.56 -13.338,67.872c-10.953,6.845 -16.115,5.203 -25.891,0c-4.951,-2.636 -16.064,-7.137 -19.559,-9.971c-10.826,-8.779 -9.659,-26.604 -9.659,-26.604Z" style="fill:#cfc368;stroke:#0b1624;stroke-width:6.44px;"/></g><g><path d="M113.173,643.409c27.424,-12.648 51.089,-16.182 77.71,-28.427c19.859,-9.134 42.885,-27.087 62.153,-35.921" style="fill:none;stroke:#0b1624;stroke-width:6.44px;stroke-linecap:butt;stroke-linejoin:miter;"/><path d="M319.652,548.599c16.366,-5.813 30.008,-17.799 51.851,-27.387c17.844,-7.832 45.504,-15.743 66.331,-24.125c30.012,-12.077 53.871,-24.906 81.369,-37.976" style="fill:none;stroke:#0b1624;stroke-width:6.44px;stroke-linecap:butt;stroke-linejoin:miter;"/><path d="M588.49,429.519c25.398,-10.589 35.89,-18.262 52.563,-25.35c23.916,-10.167 39.137,-10.053 54.113,-13.564c8.383,-1.966 20.159,-10.006 24.931,-9.65" style="fill:none;stroke:#0b1624;stroke-width:6.44px;stroke-linecap:butt;stroke-linejoin:miter;"/></g><g><path d="M893.064,123.159c-58.404,20.886 -69.901,159.326 7.533,156.44c102.174,-3.808 79.639,-156.44 79.639,-156.44" style="fill:none;stroke:#000;stroke-width:18.03px;"/><path d="M975.192,215.198c-40.155,213.418 -202.018,299.186 -221.99,184.36c-5.285,-30.386 15.535,-59.861 60.723,-67.983" style="fill:none;stroke:#000;stroke-width:18.03px;"/><path d="M361.619,214.375c62.847,12.383 155.453,-31.631 146.705,-62.554c-15.216,-53.786 -124.898,2.943 -146.705,62.554c-30.673,83.85 54.813,50.461 101.092,31.975c41.904,-16.737 99.593,-19.889 139.096,-38.503c35.498,-16.727 56.903,-41.852 52.763,-56.488c-15.216,-53.785 -124.898,2.158 -146.705,61.769c-31.534,86.201 70.798,72.221 105.579,37.039l144.328,-130.195l-41.479,37.381c0,0 13.595,6.01 20.346,4.407c17.323,-4.112 59.514,-44.006 83.593,-29.083c34.407,21.324 -52.682,128.862 -89.139,144.515c-54.22,23.279 -41.487,-41.699 -5.099,-65.251" style="fill:none;stroke:#000;stroke-width:18.03px;"/><path d="M591.482,12.782c-1.033,15.073 -31.456,56.179 -87.201,64.897c-68.314,10.684 -169.51,-12.235 -237.82,-6.029c-111.336,10.115 -177.863,53.509 -217.215,113.817c-144.189,220.974 130.325,346.435 332.2,124.551" style="fill:none;stroke:#000;stroke-width:18.03px;"/><path d="M311.917,9.015c0,0 -11.975,2.922 -23.539,28.305c-8.813,19.343 -53.806,127.231 -53.806,127.231l-50.442,110.717l48.548,-106.559c0,0 24.848,-19.61 46.488,-34.13c24.544,-16.467 54.326,-4.321 60.831,16.344c7.821,24.845 -13.772,71.909 -36.04,124.345" style="fill:none;stroke:#000;stroke-width:18.03px;"/></g></svg>