<?xml version="1.0" encoding="UTF-8" standalone="no"?><!DOCTYPE svg PUBLIC "-//W3C//DTD SVG 1.1//EN" "http://www.w3.org/Graphics/SVG/1.1/DTD/svg11.dtd"><svg width="100%" height="100%" viewBox="0 0 200 216" version="1.1" xmlns="http://www.w3.org/2000/svg" xmlns:xlink="http://www.w3.org/1999/xlink" xml:space="preserve" xmlns:serif="http://www.serif.com/" style="fill-rule:evenodd;clip-rule:evenodd;"><path d="M199.274,5.532c0,-3.053 -2.479,-5.532 -5.532,-5.532l-188.21,0c-3.053,0 -5.532,2.479 -5.532,5.532l0,204.264c0,3.053 2.479,5.532 5.532,5.532l188.21,0c3.053,0 5.532,-2.479 5.532,-5.532l0,-204.264Z" style="fill:#ebebeb;"/><path d="M199.274,5.422c0,-2.993 -2.429,-5.422 -5.422,-5.422l-188.43,0c-2.993,0 -5.422,2.429 -5.422,5.422l0,16.265l199.274,0l0,-16.265Z" style="fill:url(#_Linear1);"/><g id="controlls"><circle id="Zoom" cx="51.865" cy="10.844" r="5.75" style="fill:#2acb42;stroke:#1bac2c;stroke-width:0.5px;"/><circle id="Minimise" cx="31.865" cy="10.844" r="5.75" style="fill:#ffc12f;stroke:#dfa023;stroke-width:0.5px;"/><circle id="Close" cx="11.865" cy="10.844" r="5.75" style="fill:#ff6157;stroke:#e24640;stroke-width:0.5px;"/></g><clipPath id="_clip2"><path d="M80.209,5.094l6.798,0l0,1.142l-5.566,0l0,2.831l5.148,0l0,1.079l-5.148,0l0,3.162l5.662,0l0,1.11l-6.894,0l0,-9.324Zm8.388,2.526l1.085,0l0,0.965c0.322,-0.398 0.662,-0.683 1.022,-0.857c0.36,-0.173 0.76,-0.26 1.2,-0.26c0.965,0 1.616,0.336 1.955,1.009c0.186,0.368 0.279,0.895 0.279,1.581l0,4.36l-1.161,0l0,-4.284c0,-0.415 -0.062,-0.749 -0.185,-1.003c-0.203,-0.423 -0.571,-0.635 -1.104,-0.635c-0.271,0 -0.493,0.028 -0.667,0.083c-0.313,0.093 -0.588,0.279 -0.825,0.558c-0.19,0.224 -0.314,0.456 -0.371,0.695c-0.057,0.239 -0.086,0.581 -0.086,1.025l0,3.561l-1.142,0l0,-6.798Zm9.841,-0.197c0.766,0 1.389,0.187 1.869,0.559c0.481,0.372 0.769,1.013 0.867,1.923l-1.111,0c-0.068,-0.419 -0.222,-0.767 -0.464,-1.044c-0.241,-0.277 -0.628,-0.416 -1.161,-0.416c-0.728,0 -1.249,0.356 -1.562,1.067c-0.203,0.461 -0.304,1.03 -0.304,1.707c0,0.682 0.144,1.255 0.431,1.72c0.288,0.466 0.741,0.699 1.359,0.699c0.474,0 0.849,-0.145 1.126,-0.435c0.278,-0.29 0.469,-0.687 0.575,-1.19l1.111,0c-0.127,0.901 -0.445,1.56 -0.952,1.977c-0.508,0.417 -1.158,0.625 -1.949,0.625c-0.889,0 -1.598,-0.325 -2.127,-0.974c-0.529,-0.65 -0.793,-1.461 -0.793,-2.434c0,-1.194 0.29,-2.123 0.87,-2.787c0.579,-0.664 1.318,-0.997 2.215,-0.997Zm3.9,0.197l1.085,0l0,1.174c0.089,-0.228 0.307,-0.506 0.654,-0.834c0.347,-0.328 0.747,-0.492 1.2,-0.492c0.021,0 0.057,0.002 0.107,0.006c0.051,0.004 0.138,0.013 0.261,0.026l0,1.206c-0.068,-0.013 -0.13,-0.022 -0.188,-0.026c-0.057,-0.004 -0.119,-0.006 -0.187,-0.006c-0.575,0 -1.018,0.185 -1.326,0.555c-0.309,0.371 -0.464,0.797 -0.464,1.279l0,3.91l-1.142,0l0,-6.798Zm8.533,0l1.263,0c-0.16,0.436 -0.518,1.43 -1.072,2.984c-0.415,1.167 -0.762,2.12 -1.041,2.856c-0.661,1.735 -1.126,2.793 -1.397,3.174c-0.271,0.381 -0.736,0.571 -1.396,0.571c-0.161,0 -0.285,-0.006 -0.372,-0.019c-0.087,-0.013 -0.193,-0.036 -0.32,-0.07l0,-1.041c0.199,0.055 0.342,0.089 0.431,0.102c0.089,0.012 0.167,0.019 0.235,0.019c0.212,0 0.367,-0.035 0.467,-0.105c0.099,-0.07 0.183,-0.155 0.25,-0.257c0.022,-0.034 0.098,-0.207 0.229,-0.521c0.131,-0.313 0.226,-0.545 0.286,-0.698l-2.514,-6.995l1.295,0l1.822,5.535l1.834,-5.535Zm5.112,6.03c0.534,0 0.977,-0.223 1.33,-0.669c0.353,-0.447 0.53,-1.114 0.53,-2.003c0,-0.542 -0.078,-1.007 -0.235,-1.396c-0.296,-0.749 -0.838,-1.124 -1.625,-1.124c-0.791,0 -1.333,0.396 -1.625,1.187c-0.156,0.423 -0.235,0.961 -0.235,1.612c0,0.525 0.079,0.972 0.235,1.34c0.297,0.702 0.838,1.053 1.625,1.053Zm-2.958,-5.998l1.111,0l0,0.901c0.229,-0.309 0.478,-0.548 0.749,-0.717c0.385,-0.254 0.838,-0.381 1.359,-0.381c0.77,0 1.424,0.295 1.961,0.886c0.537,0.59 0.806,1.433 0.806,2.529c0,1.481 -0.387,2.539 -1.161,3.174c-0.491,0.402 -1.063,0.603 -1.714,0.603c-0.512,0 -0.942,-0.112 -1.289,-0.336c-0.203,-0.127 -0.429,-0.345 -0.679,-0.654l0,3.472l-1.143,0l0,-9.477Zm7.537,-1.93l1.156,0l0,1.898l1.085,0l0,0.933l-1.085,0l0,4.437c0,0.237 0.08,0.396 0.241,0.476c0.089,0.047 0.237,0.07 0.444,0.07c0.055,0 0.114,-0.001 0.178,-0.003c0.063,-0.002 0.137,-0.007 0.222,-0.016l0,0.901c-0.131,0.039 -0.268,0.066 -0.409,0.083c-0.142,0.017 -0.296,0.025 -0.461,0.025c-0.533,0 -0.895,-0.136 -1.085,-0.409c-0.191,-0.273 -0.286,-0.627 -0.286,-1.063l0,-4.501l-0.92,0l0,-0.933l0.92,0l0,-1.898Zm6.071,7.96c0.757,0 1.277,-0.287 1.558,-0.86c0.282,-0.573 0.422,-1.211 0.422,-1.914c0,-0.635 -0.101,-1.151 -0.304,-1.549c-0.322,-0.626 -0.876,-0.939 -1.663,-0.939c-0.699,0 -1.206,0.267 -1.524,0.8c-0.317,0.533 -0.476,1.176 -0.476,1.929c0,0.724 0.159,1.327 0.476,1.809c0.318,0.483 0.821,0.724 1.511,0.724Zm0.044,-6.259c0.876,0 1.617,0.292 2.222,0.876c0.605,0.584 0.908,1.443 0.908,2.577c0,1.096 -0.267,2.002 -0.8,2.717c-0.533,0.715 -1.361,1.073 -2.482,1.073c-0.935,0 -1.678,-0.316 -2.228,-0.949c-0.55,-0.633 -0.825,-1.482 -0.825,-2.549c0,-1.142 0.29,-2.052 0.869,-2.729c0.58,-0.677 1.359,-1.016 2.336,-1.016Zm4.509,0.197l1.086,0l0,1.174c0.089,-0.228 0.307,-0.506 0.654,-0.834c0.347,-0.328 0.747,-0.492 1.199,-0.492c0.022,0 0.058,0.002 0.108,0.006c0.051,0.004 0.138,0.013 0.261,0.026l0,1.206c-0.068,-0.013 -0.131,-0.022 -0.188,-0.026c-0.057,-0.004 -0.119,-0.006 -0.187,-0.006c-0.575,0 -1.018,0.185 -1.327,0.555c-0.308,0.371 -0.463,0.797 -0.463,1.279l0,3.91l-1.143,0l0,-6.798Z" clip-rule="nonzero"/></clipPath><g clip-path="url(#_clip2)"><text x="79.098px" y="14.418px" style="font-family:'Helvetica';font-size:13px;fill-opacity:0.729412;">Encryptor</text></g><g><rect x="9.15" y="29.793" width="69.266" height="69.266" style="fill:none;stroke:#000;stroke-width:4px;stroke-linecap:round;stroke-linejoin:round;stroke-miterlimit:1.5;"/><rect x="120.857" y="29.793" width="69.266" height="69.266" style="fill:none;"/></g><g><rect x="9.15" y="110.54" width="69.266" height="69.266" style="fill:none;"/><rect x="120.857" y="110.54" width="69.266" height="69.266" style="fill:none;stroke:#000;stroke-width:4px;stroke-linecap:round;stroke-linejoin:round;stroke-miterlimit:1.5;"/></g><path id="Back" d="M91.137,43.426l21,20.8l-21,21.2l-4,-4l17,-17.2l-17,-16.8l4,-4Z" style="fill-rule:nonzero;"/><path id="Back1" serif:id="Back" d="M108.137,124.173l-21,20.8l21,21.2l4,-4l-17,-17.2l17,-16.8l-4,-4Z" style="fill-rule:nonzero;"/><g><path d="M143.188,58.532c0,-6.396 -0.363,-20.209 12.302,-20.209c12.666,0 12.303,13.813 12.303,20.209" style="fill:none;stroke:#999;stroke-width:5.59px;stroke-linecap:round;stroke-linejoin:round;stroke-miterlimit:1.5;"/><rect x="138.012" y="58.532" width="34.958" height="26.894" style="fill:#b49300;"/></g><g><path d="M17.728,141.768c0,-6.396 -0.363,-20.209 12.303,-20.209c12.666,0 12.302,13.813 12.302,20.209" style="fill:none;stroke:#999;stroke-width:5.59px;stroke-linecap:round;stroke-linejoin:round;stroke-miterlimit:1.5;"/><rect x="34.882" y="141.768" width="34.958" height="26.894" style="fill:#b49300;"/></g><g id="Fields-and-Labels---Text-Field---Normal---Aqua" serif:id="Fields-and-Labels-/-Text-Field-/-Normal-/-Aqua"><g id="Text-Field"><rect id="path-66" x="30.637" y="187.776" width="138" height="20" style="fill:#fff;"/><rect x="30.887" y="188.026" width="137.5" height="19.5" style="fill:none;stroke:#acacac;stroke-width:0.5px;"/></g><g id="Value"><text x="34.637px" y="203.776px" style="font-family:'Helvetica';font-size:13px;fill:#252525;">••••••••••<tspan x="80.046px " y="203.776px ">•</tspan>•</text></g></g><defs><linearGradient id="_Linear1" x1="0" y1="0" x2="1" y2="0" gradientUnits="userSpaceOnUse" gradientTransform="matrix(2.79002e-15,44.708,-45.5645,2.73757e-15,88.8046,0)"><stop offset="0" style="stop-color:#ebebeb;stop-opacity:1"/><stop offset="1" style="stop-color:#a3a3a3;stop-opacity:1"/></linearGradient></defs></svg>