<?xml version="1.0" encoding="UTF-8" standalone="no"?><!DOCTYPE svg PUBLIC "-//W3C//DTD SVG 1.1//EN" "http://www.w3.org/Graphics/SVG/1.1/DTD/svg11.dtd"><svg width="100%" height="100%" viewBox="0 0 569 569" version="1.1" xmlns="http://www.w3.org/2000/svg" xmlns:xlink="http://www.w3.org/1999/xlink" xml:space="preserve" xmlns:serif="http://www.serif.com/" style="fill-rule:evenodd;clip-rule:evenodd;stroke-linecap:round;stroke-linejoin:round;stroke-miterlimit:1.5;"><circle cx="284.306" cy="284.306" r="284.306" style="fill:#d7be82;"/><path d="M285.225,0.001l0.918,0.005l0.918,0.007l0.917,0.01l0.916,0.013l0.916,0.016l0.915,0.019l0.914,0.022l0.914,0.025l0.913,0.027l0.912,0.03l0.911,0.034l0.911,0.036l0.909,0.039l0.91,0.042l0.908,0.044l0.908,0.048l0.907,0.05l0.906,0.053l0.905,0.056l0.905,0.059l0.904,0.062l0.903,0.064l0.902,0.068l0.902,0.07l0.9,0.073l0.9,0.075l0.9,0.079l0.898,0.081l0.898,0.084l0.896,0.087l0.896,0.09l0.895,0.092l0.895,0.096l0.893,0.098l0.893,0.1l0.892,0.104l0.891,0.106l0.89,0.109l0.889,0.112l0.889,0.114l0.887,0.118l0.887,0.12l0.886,0.122l0.885,0.126l0.884,0.128l0.883,0.131l0.883,0.133l0.881,0.137l0.881,0.139l0.879,0.141l0.879,0.145l0.878,0.147l0.877,0.149l0.876,0.153l0.875,0.155l0.875,0.158l0.873,0.16l0.872,0.163l0.872,0.166l0.87,0.168l0.87,0.171l0.869,0.174l0.867,0.176l0.867,0.179l0.866,0.182l0.865,0.184l0.863,0.187l0.863,0.19l0.862,0.192l0.861,0.194l0.86,0.198l0.859,0.199l0.858,0.203l0.857,0.205l0.856,0.208l0.855,0.21l0.854,0.213l0.852,0.215l0.852,0.218l0.851,0.221l0.85,0.223l0.849,0.226l0.848,0.228l0.846,0.23l0.846,0.234l0.844,0.236l0.844,0.238l0.843,0.241l0.841,0.243l0.84,0.246l0.84,0.249l0.838,0.251l0.837,0.253l0.836,0.256l0.835,0.259l0.834,0.261l0.832,0.263l0.832,0.266l0.831,0.269l0.829,0.271l0.828,0.273l0.827,0.276l0.826,0.278l0.825,0.281l0.824,0.283l0.823,0.286l0.821,0.288l0.821,0.291l0.819,0.293l0.818,0.295l0.817,0.298l0.815,0.301l0.815,0.302l0.813,0.306l0.813,0.307l0.811,0.31l0.809,0.313l0.809,0.314l0.807,0.318l0.807,0.319l0.805,0.322l0.804,0.325l0.802,0.326l0.802,0.329l0.8,0.332l0.799,0.334l0.797,0.336l0.797,0.339l0.795,0.34l0.794,0.344l0.793,0.345l0.791,0.348l0.79,0.35l0.789,0.353l0.788,0.355l0.786,0.357l0.786,0.36l0.784,0.362l0.782,0.364l0.781,0.366l0.78,0.369l0.779,0.371l0.778,0.374l0.776,0.375l0.774,0.378l0.774,0.38l0.772,0.383l0.771,0.385l0.769,0.387l0.769,0.389l0.766,0.391l0.766,0.394l0.764,0.396l0.763,0.399l0.761,0.4l0.76,0.403l0.759,0.405l0.757,0.407l0.756,0.409l0.755,0.412l0.753,0.414l0.752,0.416l0.751,0.418l0.749,0.421l0.747,0.422l0.747,0.425l0.744,0.427l0.744,0.429l0.742,0.432l0.741,0.433l0.739,0.436l0.738,0.438l0.736,0.44l0.735,0.442l0.733,0.444l0.732,0.447l0.731,0.448l0.729,0.451l0.728,0.453l0.726,0.455l0.724,0.457l0.724,0.46l0.721,0.461l0.721,0.463l0.719,0.466l0.717,0.468l0.716,0.47l0.714,0.472l0.713,0.473l0.711,0.477l0.71,0.478l0.708,0.48l0.707,0.482l0.705,0.485l0.704,0.486l0.702,0.489l0.701,0.49l0.699,0.493l0.697,0.494l0.696,0.497l0.695,0.499l0.693,0.5l0.691,0.503l0.69,0.505l0.688,0.507l0.687,0.509l0.685,0.51l0.683,0.513l0.682,0.515l0.68,0.517l0.679,0.519l0.677,0.521l0.675,0.522l0.674,0.525l0.672,0.527l0.671,0.529l0.669,0.53l0.667,0.533l0.666,0.535l0.664,0.536l0.662,0.539l0.661,0.54l0.659,0.543l0.658,0.544l0.656,0.546l0.654,0.548l0.652,0.551l0.651,0.552l0.649,0.554l0.648,0.555l0.645,0.558l0.644,0.56l0.643,0.561l0.64,0.564l0.639,0.565l0.638,0.567l0.635,0.57l0.634,0.57l0.632,0.573l0.631,0.575l0.628,0.577l0.627,0.578l0.625,0.58l0.624,0.582l0.621,0.584l0.62,0.586l0.619,0.588l0.616,0.589l0.615,0.592l0.612,0.593l0.612,0.595l0.609,0.597l0.607,0.598l0.606,0.601l0.604,0.602l0.602,0.604l0.601,0.605l0.598,0.608l0.597,0.609l0.595,0.611l0.593,0.613l0.591,0.615l0.59,0.616l0.588,0.619l0.585,0.62l0.584,0.621l0.583,0.624l0.58,0.625l0.578,0.627l0.577,0.628l0.575,0.631l0.572,0.632l0.571,0.634l0.569,0.635l0.568,0.638l0.565,0.638l0.564,0.641l0.561,0.643l0.56,0.644l0.558,0.645l0.555,0.648l0.554,0.649l0.552,0.651l0.55,0.652l0.549,0.654l0.546,0.656l0.544,0.658l0.543,0.659l0.54,0.661l0.539,0.662l0.536,0.664l0.535,0.666l0.533,0.667l0.53,0.669l0.529,0.671l0.527,0.672l0.524,0.674l0.523,0.675l0.521,0.677l0.519,0.679l0.517,0.68l0.515,0.682l0.512,0.683l0.511,0.685l0.509,0.687l0.507,0.688l0.505,0.69l0.503,0.691l0.5,0.693l0.499,0.695l0.497,0.696l0.494,0.697l0.493,0.699l0.49,0.701l0.489,0.702l0.486,0.704l0.485,0.705l0.482,0.707l0.48,0.708l0.478,0.71l0.476,0.711l0.474,0.713l0.472,0.714l0.47,0.716l0.468,0.717l0.465,0.719l0.464,0.72l0.461,0.722l0.46,0.723l0.457,0.725l0.455,0.726l0.453,0.728l0.45,0.729l0.449,0.731l0.447,0.732l0.444,0.733l0.442,0.735l0.44,0.736l0.438,0.738l0.436,0.739l0.433,0.741l0.432,0.742l0.429,0.743l0.427,0.745l0.425,0.747l0.422,0.747l0.421,0.749l0.418,0.751l0.416,0.752l0.414,0.753l0.412,0.754l0.409,0.756l0.407,0.758l0.405,0.759l0.403,0.76l0.4,0.761l0.399,0.763l0.396,0.764l0.393,0.766l0.392,0.766l0.389,0.769l0.387,0.769l0.385,0.771l0.383,0.772l0.38,0.773l0.378,0.775l0.375,0.776l0.374,0.778l0.371,0.778l0.369,0.78l0.366,0.782l0.364,0.782l0.362,0.784l0.36,0.785l0.357,0.787l0.355,0.788l0.352,0.788l0.351,0.791l0.348,0.791l0.345,0.793l0.343,0.794l0.341,0.795l0.339,0.797l0.336,0.797l0.334,0.799l0.331,0.8l0.33,0.802l0.326,0.802l0.325,0.804l0.322,0.805l0.319,0.806l0.317,0.808l0.315,0.808l0.313,0.81l0.31,0.811l0.307,0.813l0.305,0.813l0.303,0.814l0.3,0.816l0.298,0.817l0.296,0.818l0.293,0.819l0.291,0.821l0.288,0.821l0.285,0.823l0.284,0.824l0.281,0.824l0.278,0.826l0.276,0.828l0.273,0.828l0.271,0.829l0.269,0.831l0.266,0.832l0.263,0.832l0.261,0.834l0.259,0.835l0.256,0.836l0.253,0.837l0.251,0.838l0.249,0.84l0.246,0.84l0.243,0.841l0.241,0.843l0.238,0.843l0.236,0.845l0.233,0.846l0.231,0.846l0.228,0.848l0.226,0.849l0.223,0.85l0.221,0.851l0.218,0.851l0.215,0.853l0.213,0.854l0.21,0.855l0.208,0.856l0.205,0.857l0.202,0.858l0.2,0.859l0.198,0.86l0.194,0.861l0.192,0.862l0.19,0.862l0.187,0.864l0.184,0.865l0.182,0.866l0.178,0.867l0.177,0.867l0.174,0.869l0.171,0.869l0.168,0.871l0.166,0.871l0.163,0.873l0.16,0.873l0.158,0.874l0.155,0.876l0.152,0.876l0.15,0.877l0.147,0.878l0.145,0.878l0.141,0.88l0.139,0.881l0.137,0.881l0.133,0.883l0.131,0.883l0.128,0.884l0.126,0.885l0.122,0.886l0.12,0.887l0.117,0.887l0.115,0.889l0.112,0.889l0.109,0.89l0.106,0.891l0.103,0.892l0.101,0.893l0.098,0.893l0.095,0.894l0.093,0.896l0.09,0.896l0.086,0.896l0.085,0.898l0.081,0.898l0.078,0.899l0.076,0.9l0.073,0.901l0.07,0.902l0.068,0.902l0.064,0.903l0.062,0.904l0.059,0.905l0.056,0.905l0.053,0.906l0.05,0.907l0.048,0.908l0.044,0.908l0.042,0.909l0.039,0.91l0.036,0.911l0.033,0.911l0.031,0.912l0.027,0.913l0.025,0.914l0.022,0.914l0.019,0.915l0.016,0.915l0.013,0.917l0.01,0.917l0.007,0.917l0.004,0.919l0.002,0.919l-0.002,0.919l-0.004,0.918l-0.007,0.918l-0.01,0.917l-0.013,0.916l-0.016,0.916l-0.019,0.915l-0.022,0.914l-0.025,0.914l-0.027,0.913l-0.031,0.912l-0.033,0.911l-0.036,0.911l-0.039,0.909l-0.042,0.91l-0.044,0.908l-0.048,0.908l-0.05,0.907l-0.053,0.906l-0.056,0.905l-0.059,0.905l-0.062,0.904l-0.064,0.903l-0.068,0.902l-0.07,0.902l-0.073,0.9l-0.076,0.9l-0.078,0.9l-0.081,0.898l-0.085,0.898l-0.086,0.896l-0.09,0.896l-0.093,0.895l-0.095,0.895l-0.098,0.893l-0.101,0.893l-0.103,0.892l-0.106,0.891l-0.109,0.89l-0.112,0.889l-0.115,0.889l-0.117,0.887l-0.12,0.887l-0.122,0.886l-0.126,0.885l-0.128,0.884l-0.131,0.883l-0.133,0.883l-0.137,0.881l-0.139,0.881l-0.141,0.879l-0.145,0.879l-0.147,0.878l-0.15,0.877l-0.152,0.876l-0.155,0.875l-0.158,0.875l-0.16,0.873l-0.163,0.872l-0.166,0.872l-0.168,0.87l-0.171,0.87l-0.174,0.869l-0.177,0.867l-0.178,0.867l-0.182,0.866l-0.184,0.865l-0.187,0.863l-0.19,0.863l-0.192,0.862l-0.194,0.861l-0.198,0.86l-0.2,0.859l-0.202,0.858l-0.205,0.857l-0.208,0.856l-0.21,0.855l-0.213,0.854l-0.215,0.852l-0.218,0.852l-0.221,0.851l-0.223,0.85l-0.226,0.849l-0.228,0.848l-0.231,0.846l-0.233,0.846l-0.236,0.844l-0.238,0.844l-0.241,0.843l-0.243,0.841l-0.246,0.84l-0.249,0.84l-0.251,0.838l-0.253,0.837l-0.256,0.836l-0.259,0.835l-0.261,0.834l-0.263,0.832l-0.266,0.832l-0.269,0.831l-0.271,0.829l-0.273,0.828l-0.276,0.827l-0.278,0.826l-0.281,0.825l-0.284,0.824l-0.285,0.823l-0.288,0.821l-0.291,0.821l-0.293,0.819l-0.296,0.818l-0.298,0.817l-0.3,0.815l-0.303,0.815l-0.305,0.813l-0.307,0.813l-0.31,0.811l-0.313,0.809l-0.315,0.809l-0.317,0.807l-0.319,0.807l-0.322,0.805l-0.325,0.804l-0.326,0.802l-0.33,0.802l-0.331,0.8l-0.334,0.799l-0.336,0.797l-0.339,0.797l-0.341,0.795l-0.343,0.794l-0.345,0.793l-0.348,0.791l-0.351,0.79l-0.352,0.789l-0.355,0.788l-0.357,0.786l-0.36,0.786l-0.362,0.784l-0.364,0.782l-0.366,0.781l-0.369,0.78l-0.371,0.779l-0.374,0.778l-0.375,0.776l-0.378,0.774l-0.38,0.774l-0.383,0.772l-0.385,0.771l-0.387,0.769l-0.389,0.769l-0.392,0.766l-0.393,0.766l-0.396,0.764l-0.399,0.763l-0.4,0.761l-0.403,0.76l-0.405,0.759l-0.407,0.757l-0.409,0.756l-0.412,0.755l-0.414,0.753l-0.416,0.752l-0.418,0.751l-0.421,0.749l-0.422,0.747l-0.425,0.747l-0.427,0.744l-0.429,0.744l-0.432,0.742l-0.433,0.741l-0.436,0.739l-0.438,0.738l-0.44,0.736l-0.442,0.735l-0.444,0.733l-0.447,0.732l-0.449,0.731l-0.45,0.729l-0.453,0.728l-0.455,0.726l-0.457,0.724l-0.46,0.724l-0.461,0.721l-0.464,0.721l-0.465,0.719l-0.468,0.717l-0.47,0.716l-0.472,0.714l-0.474,0.713l-0.476,0.711l-0.478,0.71l-0.48,0.708l-0.482,0.707l-0.485,0.705l-0.486,0.704l-0.489,0.702l-0.49,0.701l-0.493,0.699l-0.494,0.697l-0.497,0.696l-0.499,0.695l-0.5,0.693l-0.503,0.691l-0.505,0.69l-0.507,0.688l-0.509,0.687l-0.511,0.685l-0.512,0.683l-0.515,0.682l-0.517,0.68l-0.519,0.679l-0.521,0.677l-0.523,0.675l-0.524,0.674l-0.527,0.672l-0.529,0.671l-0.53,0.669l-0.533,0.667l-0.535,0.666l-0.536,0.664l-0.539,0.662l-0.54,0.661l-0.543,0.659l-0.544,0.658l-0.546,0.656l-0.549,0.654l-0.55,0.652l-0.552,0.651l-0.554,0.649l-0.555,0.648l-0.558,0.645l-0.56,0.644l-0.561,0.643l-0.564,0.64l-0.565,0.639l-0.568,0.638l-0.569,0.635l-0.571,0.634l-0.572,0.632l-0.575,0.631l-0.577,0.628l-0.578,0.627l-0.58,0.625l-0.583,0.624l-0.584,0.621l-0.585,0.62l-0.588,0.619l-0.59,0.616l-0.591,0.615l-0.593,0.612l-0.595,0.612l-0.597,0.609l-0.598,0.607l-0.601,0.606l-0.602,0.604l-0.604,0.602l-0.606,0.601l-0.607,0.598l-0.609,0.597l-0.612,0.595l-0.612,0.593l-0.615,0.591l-0.616,0.59l-0.619,0.588l-0.62,0.585l-0.621,0.584l-0.624,0.583l-0.625,0.58l-0.627,0.578l-0.628,0.577l-0.631,0.575l-0.632,0.572l-0.634,0.571l-0.635,0.569l-0.638,0.568l-0.639,0.565l-0.64,0.564l-0.643,0.561l-0.644,0.56l-0.645,0.558l-0.648,0.555l-0.649,0.554l-0.651,0.552l-0.652,0.55l-0.654,0.549l-0.656,0.546l-0.658,0.544l-0.659,0.543l-0.661,0.54l-0.662,0.539l-0.664,0.536l-0.666,0.535l-0.667,0.533l-0.669,0.53l-0.671,0.529l-0.672,0.527l-0.674,0.524l-0.675,0.523l-0.677,0.521l-0.679,0.519l-0.68,0.517l-0.682,0.515l-0.683,0.512l-0.685,0.511l-0.687,0.509l-0.688,0.507l-0.69,0.505l-0.691,0.503l-0.693,0.5l-0.695,0.499l-0.696,0.497l-0.697,0.494l-0.699,0.493l-0.701,0.49l-0.702,0.489l-0.704,0.486l-0.705,0.485l-0.707,0.482l-0.708,0.48l-0.71,0.478l-0.711,0.476l-0.713,0.474l-0.714,0.472l-0.716,0.47l-0.717,0.468l-0.719,0.465l-0.721,0.464l-0.721,0.461l-0.724,0.46l-0.724,0.457l-0.726,0.455l-0.728,0.453l-0.729,0.45l-0.731,0.449l-0.732,0.447l-0.733,0.444l-0.735,0.442l-0.736,0.44l-0.738,0.438l-0.739,0.436l-0.741,0.433l-0.742,0.432l-0.744,0.429l-0.744,0.427l-0.747,0.425l-0.747,0.422l-0.749,0.421l-0.751,0.418l-0.752,0.416l-0.753,0.414l-0.755,0.412l-0.756,0.409l-0.757,0.407l-0.759,0.405l-0.76,0.403l-0.761,0.4l-0.763,0.399l-0.764,0.396l-0.766,0.393l-0.766,0.392l-0.769,0.389l-0.769,0.387l-0.771,0.385l-0.772,0.383l-0.774,0.38l-0.774,0.378l-0.776,0.375l-0.778,0.374l-0.779,0.371l-0.78,0.369l-0.781,0.366l-0.782,0.364l-0.784,0.362l-0.786,0.36l-0.786,0.357l-0.788,0.355l-0.789,0.352l-0.79,0.351l-0.791,0.348l-0.793,0.345l-0.794,0.343l-0.795,0.341l-0.797,0.339l-0.797,0.336l-0.799,0.334l-0.8,0.331l-0.802,0.33l-0.802,0.326l-0.804,0.325l-0.805,0.322l-0.807,0.319l-0.807,0.317l-0.809,0.315l-0.809,0.313l-0.811,0.31l-0.813,0.307l-0.813,0.305l-0.815,0.303l-0.815,0.3l-0.817,0.298l-0.818,0.296l-0.819,0.293l-0.821,0.291l-0.821,0.288l-0.823,0.285l-0.824,0.284l-0.825,0.281l-0.826,0.278l-0.827,0.276l-0.828,0.273l-0.829,0.271l-0.831,0.269l-0.832,0.266l-0.832,0.263l-0.834,0.261l-0.835,0.259l-0.836,0.256l-0.837,0.253l-0.838,0.251l-0.84,0.249l-0.84,0.246l-0.841,0.243l-0.843,0.241l-0.844,0.238l-0.844,0.236l-0.846,0.233l-0.846,0.231l-0.848,0.228l-0.849,0.226l-0.85,0.223l-0.851,0.221l-0.852,0.218l-0.852,0.215l-0.854,0.213l-0.855,0.21l-0.856,0.208l-0.857,0.205l-0.858,0.202l-0.859,0.2l-0.86,0.198l-0.861,0.194l-0.862,0.192l-0.863,0.19l-0.863,0.187l-0.865,0.184l-0.866,0.182l-0.867,0.178l-0.867,0.177l-0.869,0.174l-0.87,0.171l-0.87,0.168l-0.872,0.166l-0.872,0.163l-0.873,0.16l-0.875,0.158l-0.875,0.155l-0.876,0.152l-0.877,0.15l-0.878,0.147l-0.879,0.145l-0.879,0.141l-0.881,0.139l-0.881,0.137l-0.883,0.133l-0.883,0.131l-0.884,0.128l-0.885,0.126l-0.886,0.122l-0.887,0.12l-0.887,0.117l-0.889,0.115l-0.889,0.112l-0.89,0.109l-0.891,0.106l-0.892,0.103l-0.893,0.101l-0.893,0.098l-0.895,0.095l-0.895,0.093l-0.896,0.09l-0.896,0.086l-0.898,0.085l-0.898,0.081l-0.9,0.078l-0.9,0.076l-0.9,0.073l-0.902,0.07l-0.902,0.068l-0.903,0.064l-0.904,0.062l-0.905,0.059l-0.905,0.056l-0.906,0.053l-0.907,0.05l-0.908,0.048l-0.908,0.044l-0.91,0.042l-0.909,0.039l-0.911,0.036l-0.911,0.033l-0.912,0.031l-0.913,0.027l-0.914,0.025l-0.914,0.022l-0.915,0.019l-0.916,0.016l-0.916,0.013l-0.917,0.01l-0.918,0.007l-0.918,0.004l-0.919,0.002l-0.919,-0.002l-0.919,-0.004l-0.917,-0.007l-0.917,-0.01l-0.917,-0.013l-0.915,-0.016l-0.915,-0.019l-0.914,-0.022l-0.914,-0.025l-0.913,-0.027l-0.912,-0.031l-0.911,-0.033l-0.911,-0.036l-0.91,-0.039l-0.909,-0.042l-0.908,-0.044l-0.908,-0.048l-0.907,-0.05l-0.906,-0.053l-0.905,-0.056l-0.905,-0.059l-0.904,-0.062l-0.903,-0.064l-0.902,-0.068l-0.902,-0.07l-0.901,-0.073l-0.9,-0.076l-0.899,-0.078l-0.898,-0.081l-0.898,-0.085l-0.896,-0.086l-0.896,-0.09l-0.896,-0.093l-0.894,-0.095l-0.893,-0.098l-0.893,-0.101l-0.892,-0.103l-0.891,-0.106l-0.89,-0.109l-0.889,-0.112l-0.889,-0.115l-0.887,-0.117l-0.887,-0.12l-0.886,-0.122l-0.885,-0.126l-0.884,-0.128l-0.883,-0.131l-0.883,-0.133l-0.881,-0.137l-0.881,-0.139l-0.88,-0.141l-0.878,-0.145l-0.878,-0.147l-0.877,-0.15l-0.876,-0.152l-0.876,-0.155l-0.874,-0.158l-0.873,-0.16l-0.873,-0.163l-0.871,-0.166l-0.871,-0.168l-0.869,-0.171l-0.869,-0.174l-0.867,-0.177l-0.867,-0.178l-0.866,-0.182l-0.865,-0.184l-0.864,-0.187l-0.862,-0.19l-0.862,-0.192l-0.861,-0.194l-0.86,-0.198l-0.859,-0.2l-0.858,-0.202l-0.857,-0.205l-0.856,-0.208l-0.855,-0.21l-0.854,-0.213l-0.853,-0.215l-0.851,-0.218l-0.851,-0.221l-0.85,-0.223l-0.849,-0.226l-0.848,-0.228l-0.846,-0.231l-0.846,-0.233l-0.845,-0.236l-0.843,-0.238l-0.843,-0.241l-0.841,-0.243l-0.84,-0.246l-0.84,-0.249l-0.838,-0.251l-0.837,-0.253l-0.836,-0.256l-0.835,-0.259l-0.834,-0.261l-0.832,-0.263l-0.832,-0.266l-0.831,-0.269l-0.829,-0.271l-0.828,-0.273l-0.828,-0.276l-0.826,-0.278l-0.824,-0.281l-0.824,-0.284l-0.823,-0.285l-0.821,-0.288l-0.821,-0.291l-0.819,-0.293l-0.818,-0.296l-0.817,-0.298l-0.816,-0.3l-0.814,-0.303l-0.813,-0.305l-0.813,-0.307l-0.811,-0.31l-0.81,-0.313l-0.808,-0.315l-0.808,-0.317l-0.806,-0.319l-0.805,-0.322l-0.804,-0.325l-0.802,-0.326l-0.802,-0.33l-0.8,-0.331l-0.799,-0.334l-0.797,-0.336l-0.797,-0.339l-0.795,-0.341l-0.794,-0.343l-0.793,-0.345l-0.791,-0.348l-0.791,-0.351l-0.788,-0.352l-0.788,-0.355l-0.787,-0.357l-0.785,-0.36l-0.784,-0.362l-0.782,-0.364l-0.782,-0.366l-0.78,-0.369l-0.778,-0.371l-0.778,-0.374l-0.776,-0.375l-0.775,-0.378l-0.773,-0.38l-0.772,-0.383l-0.771,-0.385l-0.769,-0.387l-0.769,-0.389l-0.766,-0.392l-0.766,-0.393l-0.764,-0.396l-0.763,-0.399l-0.761,-0.4l-0.76,-0.403l-0.759,-0.405l-0.758,-0.407l-0.756,-0.409l-0.754,-0.412l-0.753,-0.414l-0.752,-0.416l-0.751,-0.418l-0.749,-0.421l-0.747,-0.422l-0.747,-0.425l-0.745,-0.427l-0.743,-0.429l-0.742,-0.432l-0.741,-0.433l-0.739,-0.436l-0.738,-0.438l-0.736,-0.44l-0.735,-0.442l-0.733,-0.444l-0.732,-0.447l-0.731,-0.449l-0.729,-0.45l-0.728,-0.453l-0.726,-0.455l-0.725,-0.457l-0.723,-0.46l-0.722,-0.461l-0.72,-0.464l-0.719,-0.465l-0.717,-0.468l-0.716,-0.47l-0.714,-0.472l-0.713,-0.474l-0.711,-0.476l-0.71,-0.478l-0.708,-0.48l-0.707,-0.482l-0.705,-0.485l-0.704,-0.486l-0.702,-0.489l-0.701,-0.49l-0.699,-0.493l-0.697,-0.494l-0.696,-0.497l-0.695,-0.499l-0.693,-0.5l-0.691,-0.503l-0.69,-0.505l-0.688,-0.507l-0.687,-0.509l-0.685,-0.511l-0.683,-0.512l-0.682,-0.515l-0.68,-0.517l-0.679,-0.519l-0.677,-0.521l-0.675,-0.523l-0.674,-0.524l-0.672,-0.527l-0.671,-0.529l-0.669,-0.53l-0.667,-0.533l-0.666,-0.535l-0.664,-0.536l-0.662,-0.539l-0.661,-0.54l-0.659,-0.543l-0.658,-0.544l-0.656,-0.546l-0.654,-0.549l-0.652,-0.55l-0.651,-0.552l-0.649,-0.554l-0.648,-0.555l-0.645,-0.558l-0.644,-0.56l-0.643,-0.561l-0.641,-0.564l-0.638,-0.565l-0.638,-0.568l-0.635,-0.569l-0.634,-0.571l-0.632,-0.572l-0.631,-0.575l-0.628,-0.577l-0.627,-0.578l-0.625,-0.58l-0.624,-0.583l-0.621,-0.584l-0.62,-0.585l-0.619,-0.588l-0.616,-0.59l-0.615,-0.591l-0.613,-0.593l-0.611,-0.595l-0.609,-0.597l-0.608,-0.598l-0.605,-0.601l-0.604,-0.602l-0.602,-0.604l-0.601,-0.606l-0.598,-0.607l-0.597,-0.609l-0.595,-0.612l-0.593,-0.612l-0.592,-0.615l-0.589,-0.616l-0.588,-0.619l-0.586,-0.62l-0.584,-0.621l-0.582,-0.624l-0.58,-0.625l-0.578,-0.627l-0.577,-0.628l-0.575,-0.631l-0.573,-0.632l-0.57,-0.634l-0.57,-0.635l-0.567,-0.638l-0.565,-0.639l-0.564,-0.64l-0.561,-0.643l-0.56,-0.644l-0.558,-0.645l-0.555,-0.648l-0.554,-0.649l-0.552,-0.651l-0.551,-0.652l-0.548,-0.654l-0.546,-0.656l-0.544,-0.658l-0.543,-0.659l-0.54,-0.661l-0.539,-0.662l-0.536,-0.664l-0.535,-0.666l-0.533,-0.667l-0.53,-0.669l-0.529,-0.671l-0.527,-0.672l-0.525,-0.674l-0.522,-0.675l-0.521,-0.677l-0.519,-0.679l-0.517,-0.68l-0.515,-0.682l-0.513,-0.683l-0.51,-0.685l-0.509,-0.687l-0.507,-0.688l-0.505,-0.69l-0.503,-0.691l-0.5,-0.693l-0.499,-0.695l-0.497,-0.696l-0.494,-0.697l-0.493,-0.699l-0.49,-0.701l-0.489,-0.702l-0.486,-0.704l-0.485,-0.705l-0.482,-0.707l-0.48,-0.708l-0.478,-0.71l-0.477,-0.711l-0.473,-0.713l-0.472,-0.714l-0.47,-0.716l-0.468,-0.717l-0.466,-0.719l-0.463,-0.721l-0.461,-0.721l-0.46,-0.724l-0.457,-0.724l-0.455,-0.726l-0.453,-0.728l-0.451,-0.729l-0.448,-0.731l-0.447,-0.732l-0.444,-0.733l-0.442,-0.735l-0.44,-0.736l-0.438,-0.738l-0.436,-0.739l-0.433,-0.741l-0.432,-0.742l-0.429,-0.744l-0.427,-0.744l-0.425,-0.747l-0.422,-0.747l-0.421,-0.749l-0.418,-0.751l-0.416,-0.752l-0.414,-0.753l-0.412,-0.755l-0.409,-0.756l-0.407,-0.757l-0.405,-0.759l-0.403,-0.76l-0.4,-0.761l-0.399,-0.763l-0.396,-0.764l-0.394,-0.766l-0.391,-0.766l-0.389,-0.769l-0.387,-0.769l-0.385,-0.771l-0.383,-0.772l-0.38,-0.774l-0.378,-0.774l-0.375,-0.776l-0.374,-0.778l-0.371,-0.779l-0.369,-0.78l-0.366,-0.781l-0.364,-0.782l-0.362,-0.784l-0.36,-0.786l-0.357,-0.786l-0.355,-0.788l-0.353,-0.789l-0.35,-0.79l-0.348,-0.791l-0.345,-0.793l-0.344,-0.794l-0.34,-0.795l-0.339,-0.797l-0.336,-0.797l-0.334,-0.799l-0.332,-0.8l-0.329,-0.802l-0.326,-0.802l-0.325,-0.804l-0.322,-0.805l-0.319,-0.807l-0.318,-0.807l-0.314,-0.809l-0.313,-0.809l-0.31,-0.811l-0.307,-0.813l-0.306,-0.813l-0.302,-0.815l-0.301,-0.815l-0.298,-0.817l-0.295,-0.818l-0.293,-0.819l-0.291,-0.821l-0.288,-0.821l-0.286,-0.823l-0.283,-0.824l-0.281,-0.825l-0.278,-0.826l-0.276,-0.827l-0.273,-0.828l-0.271,-0.829l-0.269,-0.831l-0.266,-0.832l-0.263,-0.832l-0.261,-0.834l-0.259,-0.835l-0.256,-0.836l-0.253,-0.837l-0.251,-0.838l-0.249,-0.84l-0.246,-0.84l-0.243,-0.841l-0.241,-0.843l-0.238,-0.844l-0.236,-0.844l-0.234,-0.846l-0.23,-0.846l-0.228,-0.848l-0.226,-0.849l-0.223,-0.85l-0.221,-0.851l-0.218,-0.852l-0.215,-0.852l-0.213,-0.854l-0.21,-0.855l-0.208,-0.856l-0.205,-0.857l-0.203,-0.858l-0.199,-0.859l-0.198,-0.86l-0.194,-0.861l-0.192,-0.862l-0.19,-0.863l-0.187,-0.863l-0.184,-0.865l-0.182,-0.866l-0.179,-0.867l-0.176,-0.867l-0.174,-0.869l-0.171,-0.87l-0.168,-0.87l-0.166,-0.872l-0.163,-0.872l-0.16,-0.873l-0.158,-0.875l-0.155,-0.875l-0.153,-0.876l-0.149,-0.877l-0.147,-0.878l-0.145,-0.879l-0.141,-0.879l-0.139,-0.881l-0.137,-0.881l-0.133,-0.883l-0.131,-0.883l-0.128,-0.884l-0.126,-0.885l-0.122,-0.886l-0.12,-0.887l-0.118,-0.887l-0.114,-0.889l-0.112,-0.889l-0.109,-0.89l-0.106,-0.891l-0.104,-0.892l-0.1,-0.893l-0.098,-0.893l-0.096,-0.895l-0.092,-0.895l-0.09,-0.896l-0.087,-0.896l-0.084,-0.898l-0.081,-0.898l-0.079,-0.9l-0.075,-0.9l-0.073,-0.9l-0.07,-0.902l-0.068,-0.902l-0.064,-0.903l-0.062,-0.904l-0.059,-0.905l-0.056,-0.905l-0.053,-0.906l-0.05,-0.907l-0.048,-0.908l-0.044,-0.908l-0.042,-0.91l-0.039,-0.909l-0.036,-0.911l-0.034,-0.911l-0.03,-0.912l-0.027,-0.913l-0.025,-0.914l-0.022,-0.914l-0.019,-0.915l-0.016,-0.916l-0.013,-0.916l-0.01,-0.917l-0.007,-0.918l-0.005,-0.918l-0.001,-0.919l0.001,-0.919l0.005,-0.919l0.007,-0.917l0.01,-0.917l0.013,-0.917l0.016,-0.915l0.019,-0.915l0.022,-0.914l0.025,-0.914l0.027,-0.913l0.03,-0.912l0.034,-0.911l0.036,-0.911l0.039,-0.91l0.042,-0.909l0.044,-0.908l0.048,-0.908l0.05,-0.907l0.053,-0.906l0.056,-0.905l0.059,-0.905l0.062,-0.904l0.064,-0.903l0.068,-0.902l0.07,-0.902l0.073,-0.901l0.075,-0.9l0.079,-0.899l0.081,-0.898l0.084,-0.898l0.087,-0.896l0.09,-0.896l0.092,-0.896l0.096,-0.894l0.098,-0.893l0.1,-0.893l0.104,-0.892l0.106,-0.891l0.109,-0.89l0.112,-0.889l0.114,-0.889l0.118,-0.887l0.12,-0.887l0.122,-0.886l0.126,-0.885l0.128,-0.884l0.131,-0.883l0.133,-0.883l0.137,-0.881l0.139,-0.881l0.141,-0.88l0.145,-0.878l0.147,-0.878l0.149,-0.877l0.153,-0.876l0.155,-0.876l0.158,-0.874l0.16,-0.873l0.163,-0.873l0.166,-0.871l0.168,-0.871l0.171,-0.869l0.174,-0.869l0.176,-0.867l0.179,-0.867l0.182,-0.866l0.184,-0.865l0.187,-0.864l0.19,-0.862l0.192,-0.862l0.194,-0.861l0.198,-0.86l0.199,-0.859l0.203,-0.858l0.205,-0.857l0.208,-0.856l0.21,-0.855l0.213,-0.854l0.215,-0.853l0.218,-0.851l0.221,-0.851l0.223,-0.85l0.226,-0.849l0.228,-0.848l0.23,-0.846l0.234,-0.846l0.236,-0.845l0.238,-0.843l0.241,-0.843l0.243,-0.841l0.246,-0.84l0.249,-0.84l0.251,-0.838l0.253,-0.837l0.256,-0.836l0.259,-0.835l0.261,-0.834l0.263,-0.832l0.266,-0.832l0.269,-0.831l0.271,-0.829l0.273,-0.828l0.276,-0.828l0.278,-0.826l0.281,-0.824l0.283,-0.824l0.286,-0.823l0.288,-0.821l0.291,-0.821l0.293,-0.819l0.295,-0.818l0.298,-0.817l0.301,-0.816l0.302,-0.814l0.306,-0.813l0.307,-0.813l0.31,-0.811l0.313,-0.81l0.314,-0.808l0.318,-0.808l0.319,-0.806l0.322,-0.805l0.325,-0.804l0.326,-0.802l0.329,-0.802l0.332,-0.8l0.334,-0.799l0.336,-0.797l0.339,-0.797l0.34,-0.795l0.344,-0.794l0.345,-0.793l0.348,-0.791l0.35,-0.791l0.353,-0.788l0.355,-0.788l0.357,-0.787l0.36,-0.785l0.362,-0.784l0.364,-0.782l0.366,-0.782l0.369,-0.78l0.371,-0.778l0.374,-0.778l0.375,-0.776l0.378,-0.775l0.38,-0.773l0.383,-0.772l0.385,-0.771l0.387,-0.769l0.389,-0.769l0.391,-0.766l0.394,-0.766l0.396,-0.764l0.399,-0.763l0.4,-0.761l0.403,-0.76l0.405,-0.759l0.407,-0.758l0.409,-0.756l0.412,-0.754l0.414,-0.753l0.416,-0.752l0.418,-0.751l0.421,-0.749l0.422,-0.747l0.425,-0.747l0.427,-0.745l0.429,-0.743l0.432,-0.742l0.433,-0.741l0.436,-0.739l0.438,-0.738l0.44,-0.736l0.442,-0.735l0.444,-0.733l0.447,-0.732l0.448,-0.731l0.451,-0.729l0.453,-0.728l0.455,-0.726l0.457,-0.725l0.46,-0.723l0.461,-0.722l0.463,-0.72l0.466,-0.719l0.468,-0.717l0.47,-0.716l0.472,-0.714l0.473,-0.713l0.477,-0.711l0.478,-0.71l0.48,-0.708l0.482,-0.707l0.485,-0.705l0.486,-0.704l0.489,-0.702l0.49,-0.701l0.493,-0.699l0.494,-0.697l0.497,-0.696l0.499,-0.695l0.5,-0.693l0.503,-0.691l0.505,-0.69l0.507,-0.688l0.509,-0.687l0.51,-0.685l0.513,-0.683l0.515,-0.682l0.517,-0.68l0.519,-0.679l0.521,-0.677l0.522,-0.675l0.525,-0.674l0.527,-0.672l0.529,-0.671l0.53,-0.669l0.533,-0.667l0.535,-0.666l0.536,-0.664l0.539,-0.662l0.54,-0.661l0.543,-0.659l0.544,-0.658l0.546,-0.656l0.548,-0.654l0.551,-0.652l0.552,-0.651l0.554,-0.649l0.555,-0.648l0.558,-0.645l0.56,-0.644l0.561,-0.643l0.564,-0.641l0.565,-0.638l0.567,-0.638l0.57,-0.635l0.57,-0.634l0.573,-0.632l0.575,-0.631l0.577,-0.628l0.578,-0.627l0.58,-0.625l0.582,-0.624l0.584,-0.621l0.586,-0.62l0.588,-0.619l0.589,-0.616l0.592,-0.615l0.593,-0.613l0.595,-0.611l0.597,-0.609l0.598,-0.608l0.601,-0.605l0.602,-0.604l0.604,-0.602l0.605,-0.601l0.608,-0.598l0.609,-0.597l0.611,-0.595l0.613,-0.593l0.615,-0.592l0.616,-0.589l0.619,-0.588l0.62,-0.586l0.621,-0.584l0.624,-0.582l0.625,-0.58l0.627,-0.578l0.628,-0.577l0.631,-0.575l0.632,-0.573l0.634,-0.57l0.635,-0.57l0.638,-0.567l0.638,-0.565l0.641,-0.564l0.643,-0.561l0.644,-0.56l0.645,-0.558l0.648,-0.555l0.649,-0.554l0.651,-0.552l0.652,-0.551l0.654,-0.548l0.656,-0.546l0.658,-0.544l0.659,-0.543l0.661,-0.54l0.662,-0.539l0.664,-0.536l0.666,-0.535l0.667,-0.533l0.669,-0.53l0.671,-0.529l0.672,-0.527l0.674,-0.525l0.675,-0.522l0.677,-0.521l0.679,-0.519l0.68,-0.517l0.682,-0.515l0.683,-0.513l0.685,-0.51l0.687,-0.509l0.688,-0.507l0.69,-0.505l0.691,-0.503l0.693,-0.5l0.695,-0.499l0.696,-0.497l0.697,-0.494l0.699,-0.493l0.701,-0.49l0.702,-0.489l0.704,-0.486l0.705,-0.485l0.707,-0.482l0.708,-0.48l0.71,-0.478l0.711,-0.477l0.713,-0.473l0.714,-0.472l0.716,-0.47l0.717,-0.468l0.719,-0.466l0.72,-0.463l0.722,-0.461l0.723,-0.46l0.725,-0.457l0.726,-0.455l0.728,-0.453l0.729,-0.451l0.731,-0.448l0.732,-0.447l0.733,-0.444l0.735,-0.442l0.736,-0.44l0.738,-0.438l0.739,-0.436l0.741,-0.433l0.742,-0.432l0.743,-0.429l0.745,-0.427l0.747,-0.425l0.747,-0.422l0.749,-0.421l0.751,-0.418l0.752,-0.416l0.753,-0.414l0.754,-0.412l0.756,-0.409l0.758,-0.407l0.759,-0.405l0.76,-0.403l0.761,-0.4l0.763,-0.399l0.764,-0.396l0.766,-0.394l0.766,-0.391l0.769,-0.389l0.769,-0.387l0.771,-0.385l0.772,-0.383l0.773,-0.38l0.775,-0.378l0.776,-0.375l0.778,-0.374l0.778,-0.371l0.78,-0.369l0.782,-0.366l0.782,-0.364l0.784,-0.362l0.785,-0.36l0.787,-0.357l0.788,-0.355l0.788,-0.353l0.791,-0.35l0.791,-0.348l0.793,-0.345l0.794,-0.344l0.795,-0.34l0.797,-0.339l0.797,-0.336l0.799,-0.334l0.8,-0.332l0.802,-0.329l0.802,-0.326l0.804,-0.325l0.805,-0.322l0.806,-0.319l0.808,-0.318l0.808,-0.314l0.81,-0.313l0.811,-0.31l0.813,-0.307l0.813,-0.306l0.814,-0.302l0.816,-0.301l0.817,-0.298l0.818,-0.295l0.819,-0.293l0.821,-0.291l0.821,-0.288l0.823,-0.286l0.824,-0.283l0.824,-0.281l0.826,-0.278l0.828,-0.276l0.828,-0.273l0.829,-0.271l0.831,-0.269l0.832,-0.266l0.832,-0.263l0.834,-0.261l0.835,-0.259l0.836,-0.256l0.837,-0.253l0.838,-0.251l0.84,-0.249l0.84,-0.246l0.841,-0.243l0.843,-0.241l0.843,-0.238l0.845,-0.236l0.846,-0.234l0.846,-0.23l0.848,-0.228l0.849,-0.226l0.85,-0.223l0.851,-0.221l0.851,-0.218l0.853,-0.215l0.854,-0.213l0.855,-0.21l0.856,-0.208l0.857,-0.205l0.858,-0.203l0.859,-0.199l0.86,-0.198l0.861,-0.194l0.862,-0.192l0.862,-0.19l0.864,-0.187l0.865,-0.184l0.866,-0.182l0.867,-0.179l0.867,-0.176l0.869,-0.174l0.869,-0.171l0.871,-0.168l0.871,-0.166l0.873,-0.163l0.873,-0.16l0.874,-0.158l0.876,-0.155l0.876,-0.153l0.877,-0.149l0.878,-0.147l0.878,-0.145l0.88,-0.141l0.881,-0.139l0.881,-0.137l0.883,-0.133l0.883,-0.131l0.884,-0.128l0.885,-0.126l0.886,-0.122l0.887,-0.12l0.887,-0.118l0.889,-0.114l0.889,-0.112l0.89,-0.109l0.891,-0.106l0.892,-0.104l0.893,-0.1l0.893,-0.098l0.894,-0.096l0.896,-0.092l0.896,-0.09l0.896,-0.087l0.898,-0.084l0.898,-0.081l0.899,-0.079l0.9,-0.075l0.901,-0.073l0.902,-0.07l0.902,-0.068l0.903,-0.064l0.904,-0.062l0.905,-0.059l0.905,-0.056l0.906,-0.053l0.907,-0.05l0.908,-0.048l0.908,-0.044l0.909,-0.042l0.91,-0.039l0.911,-0.036l0.911,-0.034l0.912,-0.03l0.913,-0.027l0.914,-0.025l0.914,-0.022l0.915,-0.019l0.915,-0.016l0.917,-0.013l0.917,-0.01l0.917,-0.007l0.919,-0.005l0.919,-0.001l0.919,0.001Zm-1.801,11.733l-0.881,0.004l-0.881,0.007l-0.88,0.01l-0.879,0.013l-0.877,0.015l-0.878,0.018l-0.878,0.021l-0.876,0.023l-0.875,0.027l-0.876,0.029l-0.874,0.032l-0.873,0.035l-0.874,0.037l-0.871,0.04l-0.871,0.043l-0.871,0.045l-0.87,0.049l-0.869,0.051l-0.868,0.053l-0.868,0.057l-0.866,0.059l-0.866,0.062l-0.867,0.064l-0.863,0.068l-0.864,0.07l-0.863,0.072l-0.862,0.076l-0.862,0.078l-0.86,0.08l-0.861,0.084l-0.858,0.085l-0.858,0.089l-0.858,0.091l-0.857,0.094l-0.856,0.097l-0.855,0.099l-0.854,0.102l-0.853,0.105l-0.853,0.107l-0.852,0.11l-0.851,0.112l-0.85,0.115l-0.849,0.117l-0.848,0.121l-0.849,0.123l-0.846,0.125l-0.845,0.128l-0.846,0.131l-0.844,0.133l-0.842,0.136l-0.844,0.138l-0.841,0.141l-0.841,0.144l-0.839,0.146l-0.839,0.148l-0.839,0.152l-0.836,0.153l-0.836,0.157l-0.835,0.158l-0.835,0.162l-0.834,0.164l-0.832,0.166l-0.832,0.169l-0.83,0.172l-0.83,0.174l-0.829,0.176l-0.828,0.18l-0.827,0.181l-0.826,0.184l-0.825,0.187l-0.825,0.189l-0.823,0.192l-0.822,0.194l-0.822,0.196l-0.819,0.199l-0.82,0.202l-0.819,0.204l-0.816,0.206l-0.818,0.209l-0.815,0.212l-0.814,0.213l-0.814,0.217l-0.812,0.218l-0.811,0.221l-0.811,0.224l-0.809,0.226l-0.809,0.229l-0.807,0.23l-0.806,0.234l-0.807,0.236l-0.804,0.238l-0.803,0.24l-0.802,0.243l-0.801,0.245l-0.8,0.248l-0.799,0.25l-0.798,0.253l-0.798,0.255l-0.796,0.257l-0.795,0.26l-0.793,0.262l-0.793,0.264l-0.792,0.267l-0.79,0.269l-0.79,0.272l-0.788,0.273l-0.788,0.277l-0.786,0.278l-0.784,0.281l-0.785,0.283l-0.784,0.286l-0.78,0.287l-0.781,0.291l-0.78,0.292l-0.779,0.295l-0.777,0.297l-0.776,0.3l-0.774,0.301l-0.774,0.304l-0.774,0.307l-0.772,0.308l-0.769,0.311l-0.77,0.313l-0.767,0.316l-0.768,0.318l-0.766,0.319l-0.764,0.323l-0.764,0.324l-0.762,0.327l-0.761,0.329l-0.76,0.331l-0.759,0.334l-0.757,0.335l-0.755,0.338l-0.756,0.341l-0.754,0.342l-0.752,0.345l-0.752,0.347l-0.75,0.348l-0.748,0.352l-0.748,0.353l-0.747,0.356l-0.745,0.358l-0.743,0.36l-0.744,0.363l-0.741,0.364l-0.74,0.366l-0.739,0.369l-0.738,0.371l-0.737,0.374l-0.734,0.375l-0.733,0.377l-0.734,0.38l-0.731,0.382l-0.73,0.384l-0.728,0.386l-0.728,0.388l-0.726,0.39l-0.725,0.393l-0.723,0.394l-0.723,0.397l-0.72,0.399l-0.719,0.401l-0.719,0.403l-0.717,0.405l-0.714,0.407l-0.714,0.41l-0.714,0.412l-0.711,0.413l-0.71,0.416l-0.708,0.417l-0.708,0.42l-0.706,0.422l-0.704,0.424l-0.704,0.426l-0.702,0.428l-0.7,0.43l-0.7,0.433l-0.697,0.434l-0.696,0.436l-0.695,0.438l-0.693,0.441l-0.692,0.442l-0.691,0.444l-0.689,0.447l-0.688,0.448l-0.687,0.451l-0.684,0.452l-0.684,0.455l-0.682,0.456l-0.68,0.459l-0.68,0.46l-0.677,0.462l-0.676,0.465l-0.675,0.467l-0.673,0.468l-0.672,0.47l-0.671,0.473l-0.668,0.474l-0.668,0.476l-0.666,0.478l-0.664,0.48l-0.663,0.483l-0.662,0.484l-0.659,0.486l-0.659,0.488l-0.657,0.489l-0.655,0.492l-0.654,0.494l-0.653,0.496l-0.65,0.497l-0.649,0.499l-0.648,0.502l-0.646,0.503l-0.645,0.505l-0.643,0.507l-0.641,0.509l-0.64,0.511l-0.639,0.513l-0.637,0.514l-0.635,0.517l-0.633,0.518l-0.632,0.52l-0.631,0.522l-0.629,0.524l-0.627,0.526l-0.626,0.527l-0.624,0.529l-0.623,0.532l-0.621,0.533l-0.619,0.535l-0.617,0.536l-0.617,0.539l-0.614,0.541l-0.613,0.542l-0.611,0.543l-0.609,0.546l-0.608,0.548l-0.607,0.549l-0.604,0.552l-0.603,0.552l-0.601,0.555l-0.6,0.557l-0.598,0.558l-0.596,0.56l-0.594,0.562l-0.593,0.564l-0.592,0.565l-0.589,0.567l-0.588,0.569l-0.585,0.57l-0.585,0.573l-0.583,0.574l-0.58,0.575l-0.58,0.578l-0.578,0.579l-0.575,0.581l-0.575,0.583l-0.572,0.584l-0.57,0.586l-0.569,0.588l-0.567,0.59l-0.566,0.591l-0.563,0.592l-0.562,0.595l-0.56,0.596l-0.558,0.598l-0.557,0.6l-0.555,0.601l-0.553,0.603l-0.55,0.604l-0.55,0.606l-0.548,0.609l-0.545,0.609l-0.544,0.611l-0.542,0.613l-0.541,0.614l-0.539,0.617l-0.536,0.617l-0.535,0.619l-0.533,0.621l-0.531,0.623l-0.53,0.624l-0.527,0.626l-0.526,0.627l-0.524,0.629l-0.522,0.63l-0.52,0.632l-0.519,0.635l-0.516,0.635l-0.514,0.636l-0.513,0.638l-0.511,0.641l-0.509,0.641l-0.507,0.643l-0.505,0.645l-0.503,0.646l-0.502,0.647l-0.499,0.65l-0.497,0.651l-0.496,0.652l-0.494,0.654l-0.492,0.655l-0.489,0.657l-0.489,0.659l-0.485,0.659l-0.484,0.662l-0.483,0.663l-0.48,0.664l-0.478,0.666l-0.476,0.667l-0.475,0.67l-0.472,0.67l-0.47,0.671l-0.469,0.674l-0.466,0.675l-0.464,0.676l-0.463,0.678l-0.46,0.679l-0.459,0.68l-0.457,0.683l-0.454,0.683l-0.452,0.685l-0.451,0.686l-0.448,0.688l-0.447,0.689l-0.444,0.69l-0.442,0.693l-0.441,0.693l-0.438,0.695l-0.436,0.696l-0.435,0.698l-0.432,0.699l-0.43,0.7l-0.428,0.702l-0.426,0.703l-0.424,0.705l-0.422,0.706l-0.42,0.707l-0.417,0.709l-0.416,0.71l-0.414,0.711l-0.411,0.713l-0.409,0.714l-0.408,0.715l-0.405,0.717l-0.403,0.719l-0.401,0.719l-0.399,0.721l-0.397,0.722l-0.394,0.723l-0.393,0.725l-0.39,0.726l-0.388,0.728l-0.386,0.728l-0.384,0.73l-0.382,0.732l-0.38,0.732l-0.377,0.733l-0.376,0.736l-0.373,0.736l-0.371,0.738l-0.369,0.739l-0.366,0.74l-0.365,0.741l-0.362,0.743l-0.36,0.744l-0.358,0.745l-0.356,0.746l-0.353,0.748l-0.351,0.749l-0.349,0.75l-0.347,0.752l-0.345,0.752l-0.342,0.754l-0.341,0.755l-0.338,0.757l-0.335,0.757l-0.334,0.758l-0.331,0.76l-0.329,0.761l-0.327,0.762l-0.324,0.764l-0.323,0.765l-0.32,0.765l-0.317,0.767l-0.316,0.768l-0.313,0.769l-0.311,0.771l-0.308,0.772l-0.307,0.772l-0.304,0.774l-0.301,0.775l-0.3,0.776l-0.297,0.778l-0.295,0.778l-0.292,0.779l-0.29,0.781l-0.288,0.782l-0.286,0.783l-0.283,0.784l-0.281,0.785l-0.278,0.786l-0.277,0.788l-0.273,0.788l-0.272,0.79l-0.269,0.79l-0.267,0.792l-0.264,0.793l-0.262,0.793l-0.26,0.795l-0.257,0.796l-0.255,0.797l-0.253,0.798l-0.25,0.799l-0.248,0.801l-0.245,0.801l-0.243,0.802l-0.24,0.803l-0.238,0.805l-0.236,0.805l-0.234,0.807l-0.23,0.807l-0.229,0.808l-0.226,0.81l-0.224,0.811l-0.221,0.811l-0.218,0.812l-0.217,0.814l-0.213,0.814l-0.212,0.816l-0.209,0.816l-0.206,0.818l-0.204,0.818l-0.202,0.819l-0.199,0.821l-0.196,0.821l-0.194,0.822l-0.192,0.823l-0.189,0.825l-0.187,0.825l-0.184,0.826l-0.181,0.827l-0.179,0.828l-0.177,0.829l-0.174,0.83l-0.172,0.83l-0.169,0.832l-0.166,0.832l-0.164,0.834l-0.161,0.834l-0.159,0.836l-0.157,0.836l-0.153,0.837l-0.152,0.838l-0.148,0.839l-0.146,0.839l-0.144,0.841l-0.141,0.842l-0.138,0.842l-0.136,0.843l-0.133,0.844l-0.131,0.845l-0.128,0.846l-0.125,0.847l-0.123,0.848l-0.12,0.848l-0.118,0.849l-0.115,0.85l-0.112,0.851l-0.11,0.852l-0.107,0.853l-0.105,0.853l-0.102,0.854l-0.099,0.855l-0.097,0.856l-0.094,0.857l-0.091,0.857l-0.089,0.858l-0.085,0.86l-0.084,0.86l-0.08,0.86l-0.078,0.862l-0.076,0.862l-0.072,0.863l-0.07,0.863l-0.068,0.865l-0.064,0.865l-0.062,0.867l-0.059,0.866l-0.057,0.868l-0.053,0.868l-0.051,0.869l-0.049,0.87l-0.045,0.871l-0.043,0.871l-0.04,0.872l-0.038,0.873l-0.034,0.873l-0.032,0.875l-0.029,0.874l-0.027,0.876l-0.023,0.876l-0.021,0.877l-0.018,0.878l-0.015,0.879l-0.013,0.879l-0.01,0.879l-0.007,0.881l-0.004,0.881l-0.001,0.882l0.001,0.882l0.004,0.881l0.007,0.88l0.01,0.88l0.013,0.879l0.015,0.879l0.018,0.878l0.021,0.877l0.023,0.876l0.027,0.876l0.029,0.874l0.032,0.875l0.034,0.873l0.038,0.873l0.04,0.872l0.043,0.871l0.045,0.871l0.049,0.87l0.051,0.869l0.053,0.868l0.057,0.868l0.059,0.866l0.062,0.867l0.064,0.865l0.068,0.864l0.07,0.864l0.072,0.863l0.076,0.862l0.078,0.862l0.08,0.86l0.084,0.86l0.085,0.859l0.089,0.859l0.091,0.857l0.094,0.857l0.097,0.856l0.099,0.854l0.102,0.855l0.105,0.853l0.107,0.853l0.11,0.852l0.112,0.851l0.115,0.85l0.118,0.849l0.12,0.848l0.123,0.848l0.125,0.847l0.128,0.846l0.131,0.844l0.133,0.845l0.136,0.843l0.138,0.842l0.141,0.842l0.144,0.841l0.146,0.839l0.148,0.839l0.152,0.838l0.153,0.837l0.157,0.836l0.159,0.836l0.161,0.834l0.164,0.834l0.166,0.832l0.169,0.832l0.172,0.831l0.174,0.829l0.177,0.829l0.179,0.828l0.181,0.827l0.184,0.826l0.187,0.825l0.189,0.825l0.192,0.823l0.194,0.822l0.196,0.821l0.199,0.821l0.202,0.819l0.204,0.818l0.206,0.818l0.209,0.816l0.212,0.816l0.213,0.814l0.217,0.813l0.218,0.813l0.221,0.811l0.224,0.811l0.226,0.809l0.229,0.809l0.23,0.807l0.234,0.807l0.236,0.805l0.238,0.804l0.24,0.803l0.243,0.803l0.245,0.801l0.248,0.8l0.25,0.8l0.253,0.798l0.255,0.796l0.257,0.797l0.26,0.795l0.262,0.793l0.264,0.793l0.267,0.792l0.269,0.79l0.272,0.79l0.273,0.788l0.277,0.788l0.278,0.786l0.281,0.785l0.283,0.784l0.286,0.783l0.288,0.782l0.29,0.78l0.292,0.78l0.295,0.778l0.297,0.778l0.3,0.776l0.301,0.775l0.304,0.774l0.307,0.772l0.308,0.772l0.311,0.77l0.313,0.77l0.316,0.768l0.317,0.767l0.32,0.766l0.323,0.764l0.324,0.763l0.327,0.763l0.329,0.76l0.331,0.76l0.334,0.759l0.335,0.758l0.338,0.756l0.341,0.755l0.342,0.754l0.345,0.752l0.346,0.751l0.35,0.751l0.351,0.749l0.353,0.747l0.356,0.747l0.358,0.745l0.36,0.744l0.362,0.742l0.365,0.742l0.366,0.74l0.369,0.739l0.371,0.738l0.373,0.736l0.376,0.735l0.377,0.734l0.38,0.733l0.382,0.731l0.383,0.73l0.387,0.728l0.388,0.728l0.39,0.726l0.393,0.725l0.394,0.723l0.397,0.722l0.399,0.721l0.401,0.719l0.403,0.719l0.405,0.716l0.407,0.716l0.41,0.714l0.411,0.712l0.414,0.712l0.416,0.71l0.418,0.709l0.419,0.707l0.422,0.706l0.424,0.704l0.426,0.704l0.428,0.702l0.43,0.7l0.432,0.699l0.435,0.698l0.436,0.696l0.438,0.695l0.441,0.694l0.442,0.691l0.444,0.691l0.447,0.689l0.448,0.688l0.45,0.686l0.453,0.685l0.455,0.684l0.456,0.682l0.459,0.68l0.46,0.679l0.463,0.678l0.464,0.676l0.466,0.675l0.469,0.673l0.47,0.672l0.473,0.671l0.474,0.669l0.476,0.667l0.478,0.666l0.48,0.664l0.483,0.663l0.484,0.661l0.485,0.66l0.488,0.659l0.491,0.657l0.491,0.655l0.494,0.653l0.496,0.654l0.497,0.65l0.499,0.649l0.502,0.648l0.503,0.646l0.505,0.645l0.507,0.643l0.509,0.642l0.511,0.639l0.512,0.639l0.515,0.637l0.517,0.635l0.518,0.633l0.52,0.632l0.522,0.631l0.524,0.629l0.525,0.627l0.528,0.626l0.53,0.624l0.531,0.622l0.533,0.621l0.535,0.62l0.537,0.618l0.538,0.615l0.541,0.615l0.542,0.613l0.543,0.61l0.547,0.61l0.547,0.609l0.549,0.605l0.551,0.605l0.554,0.603l0.554,0.601l0.556,0.599l0.559,0.599l0.56,0.596l0.562,0.595l0.563,0.592l0.566,0.591l0.567,0.59l0.569,0.588l0.57,0.586l0.573,0.584l0.573,0.583l0.576,0.581l0.578,0.579l0.579,0.577l0.581,0.576l0.583,0.574l0.584,0.573l0.586,0.57l0.588,0.569l0.589,0.567l0.592,0.565l0.593,0.564l0.594,0.562l0.596,0.56l0.598,0.558l0.6,0.557l0.601,0.554l0.603,0.554l0.604,0.551l0.607,0.549l0.608,0.548l0.609,0.545l0.611,0.544l0.613,0.542l0.614,0.541l0.616,0.538l0.618,0.537l0.619,0.535l0.621,0.533l0.623,0.531l0.624,0.53l0.626,0.527l0.627,0.526l0.629,0.524l0.631,0.522l0.631,0.52l0.634,0.518l0.636,0.517l0.636,0.514l0.639,0.513l0.64,0.511l0.641,0.509l0.643,0.507l0.645,0.505l0.646,0.503l0.648,0.501l0.649,0.5l0.65,0.497l0.653,0.496l0.654,0.494l0.655,0.492l0.657,0.489l0.659,0.488l0.659,0.486l0.662,0.484l0.663,0.483l0.664,0.48l0.666,0.478l0.667,0.476l0.67,0.475l0.67,0.472l0.672,0.47l0.673,0.468l0.674,0.467l0.677,0.465l0.678,0.462l0.678,0.46l0.681,0.458l0.683,0.458l0.684,0.454l0.683,0.452l0.687,0.451l0.688,0.448l0.688,0.446l0.691,0.445l0.693,0.442l0.693,0.441l0.694,0.438l0.697,0.436l0.699,0.435l0.697,0.431l0.701,0.43l0.702,0.429l0.704,0.426l0.704,0.424l0.705,0.421l0.708,0.42l0.709,0.419l0.71,0.415l0.711,0.413l0.713,0.412l0.714,0.409l0.715,0.407l0.717,0.406l0.719,0.403l0.72,0.401l0.719,0.399l0.723,0.396l0.723,0.395l0.725,0.393l0.725,0.39l0.728,0.388l0.73,0.387l0.729,0.383l0.731,0.382l0.733,0.38l0.734,0.377l0.734,0.375l0.736,0.373l0.739,0.371l0.739,0.37l0.74,0.366l0.741,0.364l0.744,0.363l0.743,0.36l0.745,0.358l0.747,0.356l0.748,0.353l0.748,0.351l0.75,0.35l0.752,0.346l0.752,0.345l0.754,0.342l0.755,0.341l0.756,0.338l0.758,0.335l0.757,0.333l0.76,0.332l0.763,0.329l0.761,0.327l0.764,0.324l0.765,0.323l0.765,0.319l0.768,0.318l0.767,0.316l0.77,0.313l0.769,0.311l0.771,0.308l0.775,0.307l0.774,0.304l0.774,0.301l0.776,0.3l0.777,0.296l0.779,0.296l0.779,0.292l0.782,0.291l0.782,0.288l0.781,0.284l0.786,0.284l0.784,0.281l0.785,0.278l0.788,0.276l0.79,0.274l0.789,0.272l0.79,0.269l0.792,0.267l0.793,0.264l0.794,0.262l0.794,0.26l0.796,0.257l0.798,0.255l0.797,0.252l0.8,0.251l0.801,0.248l0.8,0.245l0.802,0.243l0.804,0.24l0.803,0.238l0.805,0.236l0.808,0.233l0.808,0.232l0.808,0.228l0.808,0.226l0.812,0.223l0.811,0.222l0.812,0.218l0.814,0.217l0.814,0.213l0.817,0.212l0.815,0.209l0.817,0.206l0.819,0.204l0.82,0.202l0.82,0.199l0.82,0.196l0.823,0.194l0.824,0.192l0.823,0.189l0.825,0.186l0.827,0.185l0.828,0.181l0.827,0.179l0.828,0.177l0.831,0.174l0.83,0.171l0.832,0.17l0.832,0.166l0.833,0.164l0.836,0.161l0.835,0.159l0.836,0.157l0.836,0.153l0.838,0.151l0.84,0.149l0.84,0.146l0.839,0.144l0.843,0.141l0.843,0.138l0.842,0.136l0.844,0.133l0.845,0.131l0.846,0.128l0.847,0.125l0.848,0.123l0.849,0.12l0.848,0.118l0.849,0.115l0.852,0.112l0.852,0.11l0.852,0.107l0.854,0.105l0.855,0.102l0.853,0.099l0.857,0.096l0.858,0.095l0.857,0.091l0.858,0.089l0.858,0.085l0.86,0.084l0.86,0.08l0.863,0.078l0.862,0.076l0.863,0.072l0.864,0.07l0.864,0.067l0.866,0.065l0.866,0.062l0.867,0.059l0.866,0.056l0.869,0.054l0.869,0.051l0.87,0.048l0.871,0.046l0.871,0.043l0.872,0.04l0.874,0.037l0.872,0.035l0.873,0.032l0.876,0.029l0.877,0.026l0.875,0.024l0.877,0.021l0.879,0.018l0.877,0.015l0.879,0.013l0.881,0.01l0.88,0.007l0.881,0.004l0.882,0.001l0.882,-0.001l0.881,-0.004l0.88,-0.007l0.881,-0.01l0.878,-0.013l0.878,-0.015l0.879,-0.018l0.877,-0.021l0.875,-0.024l0.877,-0.026l0.875,-0.029l0.874,-0.032l0.872,-0.035l0.874,-0.037l0.872,-0.04l0.871,-0.043l0.871,-0.046l0.87,-0.048l0.869,-0.051l0.869,-0.054l0.866,-0.056l0.867,-0.059l0.866,-0.062l0.866,-0.065l0.864,-0.067l0.864,-0.07l0.863,-0.072l0.862,-0.076l0.863,-0.078l0.86,-0.08l0.86,-0.084l0.858,-0.085l0.858,-0.089l0.857,-0.091l0.858,-0.095l0.857,-0.096l0.852,-0.099l0.856,-0.102l0.854,-0.105l0.852,-0.107l0.852,-0.11l0.852,-0.112l0.849,-0.115l0.848,-0.118l0.849,-0.12l0.848,-0.123l0.847,-0.125l0.846,-0.128l0.845,-0.131l0.844,-0.133l0.842,-0.136l0.843,-0.138l0.843,-0.141l0.839,-0.144l0.839,-0.146l0.841,-0.149l0.838,-0.151l0.836,-0.153l0.836,-0.157l0.835,-0.159l0.836,-0.161l0.833,-0.164l0.832,-0.166l0.832,-0.17l0.83,-0.171l0.831,-0.174l0.828,-0.177l0.827,-0.179l0.828,-0.181l0.827,-0.185l0.825,-0.186l0.823,-0.189l0.824,-0.192l0.823,-0.194l0.82,-0.196l0.82,-0.199l0.82,-0.202l0.818,-0.204l0.818,-0.206l0.815,-0.209l0.817,-0.212l0.814,-0.213l0.814,-0.217l0.812,-0.218l0.811,-0.222l0.812,-0.223l0.808,-0.226l0.808,-0.228l0.808,-0.232l0.808,-0.233l0.804,-0.236l0.804,-0.238l0.804,-0.24l0.802,-0.243l0.8,-0.245l0.801,-0.248l0.8,-0.251l0.797,-0.252l0.798,-0.255l0.796,-0.257l0.794,-0.26l0.794,-0.262l0.793,-0.264l0.792,-0.267l0.79,-0.269l0.789,-0.272l0.79,-0.274l0.788,-0.276l0.784,-0.278l0.785,-0.281l0.786,-0.284l0.781,-0.284l0.782,-0.288l0.782,-0.291l0.779,-0.292l0.779,-0.296l0.777,-0.296l0.776,-0.3l0.774,-0.301l0.774,-0.304l0.775,-0.307l0.771,-0.308l0.769,-0.311l0.77,-0.313l0.767,-0.316l0.768,-0.318l0.765,-0.319l0.765,-0.323l0.764,-0.324l0.761,-0.327l0.762,-0.329l0.761,-0.332l0.757,-0.333l0.757,-0.335l0.757,-0.338l0.755,-0.341l0.754,-0.342l0.752,-0.345l0.752,-0.346l0.75,-0.35l0.748,-0.351l0.748,-0.353l0.747,-0.356l0.745,-0.358l0.744,-0.36l0.743,-0.363l0.741,-0.364l0.74,-0.366l0.739,-0.37l0.739,-0.371l0.735,-0.373l0.735,-0.375l0.734,-0.377l0.733,-0.38l0.731,-0.382l0.729,-0.383l0.73,-0.387l0.728,-0.388l0.725,-0.39l0.725,-0.393l0.723,-0.395l0.722,-0.396l0.72,-0.399l0.719,-0.401l0.72,-0.403l0.717,-0.406l0.715,-0.407l0.714,-0.409l0.712,-0.411l0.712,-0.414l0.709,-0.415l0.71,-0.419l0.708,-0.42l0.704,-0.421l0.705,-0.424l0.704,-0.426l0.702,-0.429l0.701,-0.43l0.697,-0.431l0.698,-0.435l0.697,-0.436l0.695,-0.438l0.693,-0.441l0.693,-0.442l0.691,-0.445l0.688,-0.446l0.688,-0.448l0.687,-0.451l0.683,-0.452l0.684,-0.454l0.683,-0.458l0.681,-0.458l0.678,-0.46l0.678,-0.462l0.677,-0.465l0.674,-0.467l0.674,-0.468l0.671,-0.47l0.67,-0.472l0.67,-0.475l0.667,-0.476l0.665,-0.478l0.665,-0.48l0.663,-0.483l0.661,-0.484l0.661,-0.486l0.658,-0.488l0.656,-0.489l0.656,-0.492l0.654,-0.494l0.652,-0.496l0.651,-0.497l0.649,-0.5l0.648,-0.501l0.646,-0.503l0.645,-0.505l0.643,-0.507l0.641,-0.509l0.64,-0.511l0.639,-0.513l0.636,-0.514l0.636,-0.517l0.634,-0.518l0.631,-0.52l0.631,-0.522l0.629,-0.524l0.628,-0.526l0.625,-0.527l0.624,-0.53l0.622,-0.531l0.621,-0.533l0.62,-0.535l0.618,-0.537l0.616,-0.538l0.614,-0.541l0.613,-0.542l0.611,-0.544l0.609,-0.545l0.608,-0.548l0.606,-0.549l0.605,-0.551l0.603,-0.554l0.601,-0.554l0.6,-0.557l0.598,-0.558l0.596,-0.56l0.595,-0.562l0.592,-0.564l0.591,-0.565l0.59,-0.567l0.588,-0.569l0.586,-0.571l0.584,-0.572l0.583,-0.574l0.581,-0.576l0.579,-0.577l0.578,-0.579l0.576,-0.581l0.573,-0.583l0.573,-0.584l0.57,-0.586l0.569,-0.588l0.567,-0.59l0.565,-0.591l0.564,-0.592l0.562,-0.595l0.56,-0.597l0.558,-0.598l0.557,-0.599l0.554,-0.601l0.553,-0.603l0.552,-0.605l0.549,-0.605l0.547,-0.609l0.547,-0.61l0.543,-0.61l0.542,-0.613l0.541,-0.615l0.538,-0.615l0.537,-0.618l0.535,-0.619l0.533,-0.622l0.531,-0.622l0.53,-0.624l0.528,-0.626l0.525,-0.627l0.524,-0.629l0.522,-0.631l0.52,-0.632l0.518,-0.633l0.517,-0.635l0.514,-0.637l0.513,-0.639l0.51,-0.639l0.51,-0.642l0.507,-0.643l0.505,-0.645l0.503,-0.646l0.502,-0.648l0.499,-0.649l0.497,-0.651l0.496,-0.652l0.494,-0.654l0.491,-0.655l0.49,-0.657l0.488,-0.659l0.487,-0.66l0.483,-0.661l0.482,-0.663l0.481,-0.664l0.478,-0.666l0.476,-0.668l0.474,-0.668l0.473,-0.671l0.47,-0.672l0.469,-0.673l0.466,-0.675l0.464,-0.676l0.463,-0.678l0.46,-0.679l0.459,-0.68l0.456,-0.682l0.455,-0.684l0.452,-0.685l0.451,-0.686l0.448,-0.688l0.447,-0.689l0.444,-0.691l0.442,-0.691l0.441,-0.694l0.438,-0.695l0.436,-0.696l0.435,-0.698l0.432,-0.699l0.43,-0.7l0.428,-0.702l0.426,-0.704l0.424,-0.704l0.422,-0.706l0.419,-0.707l0.418,-0.709l0.416,-0.71l0.413,-0.711l0.412,-0.713l0.409,-0.714l0.408,-0.716l0.405,-0.716l0.403,-0.719l0.401,-0.719l0.399,-0.721l0.396,-0.722l0.395,-0.723l0.393,-0.725l0.39,-0.726l0.388,-0.727l0.386,-0.729l0.384,-0.73l0.382,-0.731l0.38,-0.733l0.377,-0.734l0.375,-0.735l0.373,-0.736l0.372,-0.738l0.369,-0.739l0.366,-0.74l0.365,-0.741l0.362,-0.743l0.36,-0.744l0.358,-0.745l0.356,-0.747l0.353,-0.747l0.351,-0.749l0.35,-0.751l0.346,-0.751l0.345,-0.752l0.342,-0.754l0.341,-0.755l0.337,-0.756l0.336,-0.758l0.334,-0.758l0.331,-0.76l0.329,-0.761l0.327,-0.763l0.324,-0.763l0.322,-0.764l0.321,-0.767l0.317,-0.767l0.315,-0.767l0.314,-0.77l0.311,-0.77l0.308,-0.771l0.307,-0.774l0.304,-0.774l0.301,-0.774l0.3,-0.776l0.297,-0.778l0.295,-0.778l0.292,-0.779l0.29,-0.782l0.288,-0.781l0.286,-0.783l0.283,-0.784l0.281,-0.785l0.278,-0.787l0.276,-0.787l0.274,-0.788l0.272,-0.79l0.269,-0.791l0.267,-0.791l0.264,-0.792l0.262,-0.794l0.26,-0.796l0.257,-0.795l0.255,-0.798l0.253,-0.798l0.25,-0.799l0.248,-0.8l0.245,-0.8l0.243,-0.804l0.24,-0.803l0.238,-0.803l0.236,-0.806l0.233,-0.807l0.231,-0.808l0.229,-0.808l0.226,-0.809l0.223,-0.81l0.222,-0.812l0.218,-0.813l0.217,-0.813l0.213,-0.814l0.212,-0.816l0.209,-0.816l0.206,-0.818l0.204,-0.818l0.202,-0.82l0.199,-0.82l0.196,-0.82l0.194,-0.823l0.192,-0.824l0.189,-0.824l0.187,-0.825l0.184,-0.826l0.181,-0.826l0.179,-0.829l0.177,-0.829l0.174,-0.829l0.172,-0.832l0.169,-0.831l0.166,-0.832l0.164,-0.834l0.161,-0.834l0.159,-0.835l0.157,-0.837l0.153,-0.837l0.151,-0.837l0.149,-0.84l0.146,-0.84l0.144,-0.84l0.141,-0.841l0.138,-0.843l0.136,-0.843l0.133,-0.845l0.131,-0.844l0.128,-0.846l0.125,-0.847l0.123,-0.848l0.12,-0.848l0.118,-0.849l0.115,-0.85l0.112,-0.852l0.11,-0.851l0.107,-0.852l0.105,-0.854l0.102,-0.855l0.099,-0.854l0.096,-0.856l0.094,-0.857l0.092,-0.857l0.088,-0.859l0.086,-0.859l0.084,-0.86l0.08,-0.86l0.078,-0.861l0.076,-0.863l0.072,-0.863l0.07,-0.864l0.067,-0.864l0.065,-0.866l0.062,-0.866l0.059,-0.866l0.056,-0.868l0.054,-0.869l0.051,-0.868l0.048,-0.87l0.046,-0.871l0.043,-0.871l0.04,-0.872l0.037,-0.873l0.035,-0.873l0.032,-0.874l0.029,-0.875l0.026,-0.876l0.024,-0.876l0.021,-0.878l0.018,-0.878l0.015,-0.878l0.013,-0.878l0.01,-0.881l0.007,-0.88l0.004,-0.881l0.001,-0.882l-0.001,-0.882l-0.004,-0.881l-0.007,-0.881l-0.01,-0.88l-0.013,-0.878l-0.015,-0.878l-0.018,-0.878l-0.021,-0.878l-0.024,-0.876l-0.026,-0.876l-0.029,-0.875l-0.032,-0.874l-0.035,-0.873l-0.037,-0.873l-0.04,-0.872l-0.043,-0.871l-0.046,-0.872l-0.048,-0.869l-0.051,-0.869l-0.054,-0.868l-0.056,-0.868l-0.059,-0.866l-0.062,-0.866l-0.065,-0.866l-0.067,-0.864l-0.07,-0.864l-0.072,-0.863l-0.076,-0.863l-0.078,-0.861l-0.08,-0.86l-0.084,-0.86l-0.086,-0.86l-0.088,-0.858l-0.092,-0.857l-0.094,-0.857l-0.096,-0.856l-0.099,-0.854l-0.102,-0.855l-0.105,-0.854l-0.107,-0.853l-0.11,-0.85l-0.112,-0.852l-0.115,-0.85l-0.118,-0.849l-0.12,-0.849l-0.123,-0.847l-0.125,-0.847l-0.128,-0.846l-0.131,-0.845l-0.133,-0.844l-0.136,-0.843l-0.138,-0.843l-0.141,-0.841l-0.144,-0.84l-0.146,-0.84l-0.149,-0.84l-0.151,-0.837l-0.153,-0.837l-0.157,-0.837l-0.159,-0.835l-0.161,-0.834l-0.164,-0.834l-0.166,-0.832l-0.169,-0.832l-0.172,-0.831l-0.174,-0.829l-0.177,-0.829l-0.179,-0.829l-0.181,-0.826l-0.184,-0.826l-0.187,-0.826l-0.189,-0.823l-0.192,-0.824l-0.194,-0.823l-0.196,-0.82l-0.199,-0.82l-0.202,-0.82l-0.204,-0.819l-0.206,-0.817l-0.209,-0.816l-0.212,-0.816l-0.213,-0.814l-0.217,-0.813l-0.218,-0.813l-0.222,-0.812l-0.223,-0.81l-0.226,-0.81l-0.229,-0.808l-0.231,-0.807l-0.233,-0.807l-0.236,-0.806l-0.238,-0.803l-0.24,-0.804l-0.243,-0.803l-0.245,-0.8l-0.248,-0.8l-0.25,-0.799l-0.253,-0.798l-0.255,-0.798l-0.257,-0.796l-0.26,-0.795l-0.262,-0.794l-0.264,-0.792l-0.267,-0.792l-0.269,-0.79l-0.272,-0.79l-0.274,-0.789l-0.276,-0.786l-0.278,-0.787l-0.281,-0.785l-0.283,-0.784l-0.286,-0.783l-0.288,-0.782l-0.29,-0.781l-0.292,-0.779l-0.295,-0.779l-0.297,-0.777l-0.3,-0.776l-0.301,-0.775l-0.304,-0.773l-0.307,-0.774l-0.308,-0.771l-0.311,-0.77l-0.314,-0.77l-0.315,-0.768l-0.317,-0.766l-0.32,-0.766l-0.323,-0.765l-0.324,-0.764l-0.327,-0.762l-0.329,-0.761l-0.331,-0.76l-0.334,-0.758l-0.335,-0.757l-0.338,-0.757l-0.341,-0.755l-0.342,-0.754l-0.345,-0.752l-0.347,-0.752l-0.349,-0.75l-0.351,-0.749l-0.353,-0.747l-0.356,-0.747l-0.358,-0.745l-0.36,-0.744l-0.363,-0.743l-0.364,-0.741l-0.366,-0.74l-0.369,-0.739l-0.372,-0.738l-0.373,-0.737l-0.375,-0.734l-0.377,-0.734l-0.38,-0.732l-0.382,-0.732l-0.384,-0.73l-0.386,-0.729l-0.388,-0.727l-0.39,-0.726l-0.393,-0.725l-0.395,-0.723l-0.396,-0.722l-0.399,-0.721l-0.401,-0.72l-0.403,-0.718l-0.406,-0.717l-0.407,-0.715l-0.409,-0.714l-0.412,-0.713l-0.413,-0.711l-0.416,-0.71l-0.417,-0.709l-0.42,-0.707l-0.422,-0.706l-0.424,-0.705l-0.426,-0.703l-0.428,-0.702l-0.43,-0.7l-0.433,-0.7l-0.434,-0.697l-0.436,-0.696l-0.438,-0.695l-0.441,-0.693l-0.442,-0.693l-0.444,-0.69l-0.447,-0.689l-0.448,-0.688l-0.451,-0.686l-0.452,-0.685l-0.455,-0.684l-0.456,-0.682l-0.459,-0.68l-0.46,-0.679l-0.463,-0.678l-0.464,-0.676l-0.466,-0.675l-0.469,-0.674l-0.47,-0.672l-0.472,-0.669l-0.475,-0.669l-0.476,-0.668l-0.478,-0.666l-0.48,-0.664l-0.483,-0.663l-0.483,-0.661l-0.487,-0.66l-0.488,-0.659l-0.489,-0.657l-0.492,-0.655l-0.494,-0.654l-0.495,-0.652l-0.498,-0.651l-0.5,-0.65l-0.501,-0.647l-0.503,-0.646l-0.505,-0.645l-0.507,-0.643l-0.509,-0.641l-0.511,-0.641l-0.513,-0.638l-0.514,-0.636l-0.516,-0.636l-0.519,-0.634l-0.52,-0.632l-0.522,-0.63l-0.524,-0.629l-0.526,-0.627l-0.527,-0.626l-0.53,-0.624l-0.531,-0.623l-0.533,-0.621l-0.535,-0.619l-0.536,-0.617l-0.539,-0.617l-0.541,-0.614l-0.542,-0.613l-0.544,-0.611l-0.545,-0.609l-0.548,-0.609l-0.55,-0.606l-0.551,-0.604l-0.552,-0.603l-0.555,-0.601l-0.557,-0.6l-0.558,-0.598l-0.56,-0.596l-0.562,-0.595l-0.564,-0.592l-0.565,-0.592l-0.567,-0.589l-0.569,-0.588l-0.57,-0.586l-0.572,-0.584l-0.575,-0.583l-0.575,-0.581l-0.578,-0.579l-0.58,-0.578l-0.58,-0.575l-0.583,-0.574l-0.584,-0.573l-0.586,-0.57l-0.588,-0.569l-0.59,-0.567l-0.591,-0.565l-0.592,-0.564l-0.595,-0.562l-0.596,-0.56l-0.598,-0.558l-0.6,-0.557l-0.601,-0.555l-0.603,-0.552l-0.605,-0.552l-0.606,-0.549l-0.608,-0.548l-0.609,-0.545l-0.611,-0.544l-0.613,-0.542l-0.614,-0.541l-0.617,-0.539l-0.617,-0.536l-0.619,-0.535l-0.621,-0.533l-0.623,-0.532l-0.624,-0.529l-0.625,-0.527l-0.628,-0.526l-0.629,-0.524l-0.631,-0.522l-0.632,-0.52l-0.633,-0.518l-0.635,-0.517l-0.637,-0.514l-0.639,-0.513l-0.64,-0.511l-0.641,-0.509l-0.643,-0.507l-0.645,-0.505l-0.646,-0.503l-0.648,-0.502l-0.649,-0.499l-0.651,-0.497l-0.652,-0.496l-0.654,-0.494l-0.656,-0.492l-0.656,-0.489l-0.658,-0.488l-0.661,-0.486l-0.661,-0.485l-0.663,-0.482l-0.664,-0.48l-0.666,-0.478l-0.668,-0.476l-0.668,-0.474l-0.671,-0.473l-0.671,-0.47l-0.674,-0.468l-0.675,-0.467l-0.676,-0.464l-0.678,-0.463l-0.679,-0.46l-0.68,-0.459l-0.682,-0.456l-0.684,-0.455l-0.684,-0.452l-0.687,-0.451l-0.688,-0.448l-0.689,-0.447l-0.691,-0.444l-0.692,-0.442l-0.693,-0.441l-0.695,-0.438l-0.697,-0.437l-0.696,-0.433l-0.7,-0.433l-0.7,-0.43l-0.702,-0.428l-0.704,-0.426l-0.704,-0.424l-0.706,-0.422l-0.707,-0.42l-0.709,-0.417l-0.71,-0.416l-0.711,-0.413l-0.714,-0.412l-0.714,-0.41l-0.714,-0.407l-0.717,-0.405l-0.719,-0.403l-0.719,-0.401l-0.721,-0.399l-0.722,-0.396l-0.723,-0.395l-0.725,-0.393l-0.727,-0.39l-0.727,-0.388l-0.728,-0.386l-0.73,-0.384l-0.731,-0.382l-0.733,-0.38l-0.733,-0.377l-0.736,-0.375l-0.736,-0.374l-0.738,-0.371l-0.739,-0.369l-0.74,-0.366l-0.741,-0.364l-0.743,-0.363l-0.744,-0.36l-0.745,-0.358l-0.747,-0.356l-0.748,-0.353l-0.748,-0.352l-0.75,-0.348l-0.752,-0.347l-0.752,-0.345l-0.754,-0.342l-0.756,-0.341l-0.756,-0.338l-0.756,-0.335l-0.759,-0.334l-0.76,-0.331l-0.762,-0.329l-0.761,-0.327l-0.764,-0.324l-0.765,-0.323l-0.765,-0.319l-0.768,-0.318l-0.768,-0.316l-0.769,-0.313l-0.769,-0.311l-0.772,-0.308l-0.774,-0.307l-0.774,-0.304l-0.774,-0.301l-0.776,-0.3l-0.777,-0.297l-0.779,-0.295l-0.78,-0.292l-0.781,-0.291l-0.78,-0.287l-0.784,-0.286l-0.785,-0.283l-0.784,-0.281l-0.786,-0.278l-0.788,-0.277l-0.788,-0.273l-0.79,-0.272l-0.791,-0.269l-0.791,-0.267l-0.793,-0.264l-0.793,-0.262l-0.795,-0.26l-0.796,-0.257l-0.798,-0.255l-0.798,-0.253l-0.799,-0.25l-0.8,-0.248l-0.801,-0.245l-0.802,-0.243l-0.803,-0.24l-0.805,-0.238l-0.806,-0.236l-0.806,-0.234l-0.807,-0.23l-0.809,-0.229l-0.809,-0.226l-0.811,-0.224l-0.811,-0.221l-0.812,-0.218l-0.815,-0.217l-0.813,-0.213l-0.815,-0.212l-0.818,-0.209l-0.817,-0.206l-0.818,-0.204l-0.82,-0.202l-0.82,-0.199l-0.821,-0.196l-0.822,-0.194l-0.823,-0.192l-0.825,-0.189l-0.825,-0.187l-0.826,-0.184l-0.827,-0.181l-0.828,-0.18l-0.829,-0.176l-0.83,-0.174l-0.83,-0.172l-0.832,-0.169l-0.832,-0.166l-0.834,-0.164l-0.835,-0.162l-0.835,-0.158l-0.836,-0.157l-0.836,-0.153l-0.839,-0.152l-0.839,-0.148l-0.839,-0.146l-0.841,-0.144l-0.842,-0.141l-0.843,-0.138l-0.842,-0.136l-0.844,-0.133l-0.846,-0.131l-0.845,-0.128l-0.847,-0.125l-0.848,-0.123l-0.848,-0.121l-0.849,-0.117l-0.85,-0.115l-0.851,-0.112l-0.852,-0.11l-0.853,-0.107l-0.853,-0.105l-0.854,-0.102l-0.855,-0.099l-0.856,-0.097l-0.857,-0.094l-0.858,-0.091l-0.858,-0.089l-0.858,-0.085l-0.861,-0.084l-0.86,-0.08l-0.862,-0.078l-0.862,-0.076l-0.863,-0.072l-0.864,-0.07l-0.863,-0.068l-0.867,-0.064l-0.866,-0.062l-0.866,-0.059l-0.868,-0.057l-0.869,-0.053l-0.868,-0.051l-0.87,-0.049l-0.871,-0.045l-0.871,-0.043l-0.871,-0.04l-0.874,-0.037l-0.873,-0.035l-0.874,-0.032l-0.876,-0.029l-0.875,-0.027l-0.876,-0.023l-0.878,-0.021l-0.878,-0.018l-0.878,-0.015l-0.878,-0.013l-0.881,-0.01l-0.88,-0.007l-0.881,-0.004l-0.882,-0.001l-0.882,0.001Z" style="fill:#07090f;"/><g><g><path d="M139.116,311.867l0,29.918" style="fill:none;stroke:#07090f;stroke-width:11.15px;"/><path d="M163.147,311.713l0,29.917" style="fill:none;stroke:#07090f;stroke-width:11.15px;"/></g><g><path d="M181.139,292.477l0,-67.027c0,-7.368 -5.982,-13.351 -13.351,-13.351l-33.313,0c-7.369,0 -13.351,5.983 -13.351,13.351l0,67.027" style="fill:none;stroke:#07090f;stroke-width:11.15px;"/><path d="M193.367,372.718l0,-67.027c0,-7.368 -5.982,-13.351 -13.351,-13.351l-57.769,0c-7.369,0 -13.351,5.983 -13.351,13.351l0,67.027" style="fill:none;stroke:#07090f;stroke-width:11.15px;"/><path d="M162.129,170.126l0,-27.925c0,-4.719 -2.464,-11.885 -5.499,-11.885l-10.997,0c-3.035,0 -5.499,7.166 -5.499,11.885l0,27.925" style="fill:none;stroke:#07090f;stroke-width:11.15px;"/><path d="M136.197,131.726l29.869,0" style="fill:none;stroke:#07090f;stroke-width:11.15px;"/><circle cx="151.131" cy="118.046" r="13.763" style="fill:none;stroke:#07090f;stroke-width:10.56px;"/><ellipse cx="151.131" cy="190.249" rx="25.489" ry="22.126" style="fill:none;stroke:#07090f;stroke-width:11.15px;"/><path d="M151.131,251.576l0,25.38" style="fill:none;stroke:#07090f;stroke-width:11.15px;"/><circle cx="151.131" cy="229.413" r="7.299"/><path d="M151.131,104.142l0,-39.99" style="fill:none;stroke:#07090f;stroke-width:11.15px;"/></g></g><g><path d="M411.555,423.605l0,29.918" style="fill:none;stroke:#07090f;stroke-width:11.15px;"/><ellipse cx="411.555" cy="403.612" rx="6.301" ry="6.585"/><path d="M447.086,382.287l0,-58.123c0,-9.118 -29.887,-23.687 -36.461,-23.687c-6.574,0 -34.602,14.569 -34.602,23.687l0,58.123" style="fill:none;stroke:#07090f;stroke-width:11.15px;"/><path d="M459.117,477.148l0,-73.544c0,-12.205 -9.482,-22.113 -21.161,-22.113l-52.803,0c-11.679,0 -21.161,9.908 -21.161,22.113l0,73.544" style="fill:none;stroke:#07090f;stroke-width:11.15px;"/><path d="M426.318,272.113l0,-25.191c0,-4.257 -3.308,-10.722 -7.382,-10.722l-14.763,0c-4.074,0 -7.382,6.465 -7.382,10.722l0,25.191" style="fill:none;stroke:#07090f;stroke-width:11.15px;"/><path d="M399.674,231.594c0,-11.215 5.323,-20.32 11.881,-20.32c6.557,0 11.88,9.105 11.88,20.32" style="fill:none;stroke:#07090f;stroke-width:11.15px;"/><path d="M384.83,307.866c0,-16.651 11.975,-34.404 26.725,-34.404c14.749,0 26.724,17.753 26.724,34.404" style="fill:none;stroke:#07090f;stroke-width:11.15px;"/><path d="M411.555,350.885l0,14.851" style="fill:none;stroke:#07090f;stroke-width:11.15px;"/><path d="M411.555,319.766l0,17.135" style="fill:none;stroke:#07090f;stroke-width:11.15px;"/><path d="M411.555,206.668l0,-36.075" style="fill:none;stroke:#07090f;stroke-width:11.15px;"/><path d="M411.555,259.736l0,-7.069" style="fill:none;stroke:#07090f;stroke-width:11.15px;"/></g><g><path d="M279.353,399.585l0,27.276" style="fill:none;stroke:#07090f;stroke-width:11.15px;"/><ellipse cx="279.353" cy="381.357" rx="5.415" ry="6.003"/><path d="M320.228,452.285l0,-70.935c0,-11.127 -8.149,-20.161 -18.186,-20.161l-45.378,0c-10.037,0 -18.187,9.034 -18.187,20.161l0,70.935" style="fill:none;stroke:#07090f;stroke-width:11.15px;"/><path d="M279.353,328.334l0,10.741" style="fill:none;stroke:#07090f;stroke-width:11.15px;"/><ellipse cx="279.353" cy="306.353" rx="5.93" ry="6.134"/><path d="M314.98,365.079l0,-61.826c0,-9.699 -7.103,-17.572 -15.851,-17.572l-39.552,0c-8.748,0 -15.851,7.873 -15.851,17.572l0,61.826" style="fill:none;stroke:#07090f;stroke-width:11.15px;"/><path d="M279.353,190.661l0,-31.03" style="fill:none;stroke:#07090f;stroke-width:11.15px;"/><g><path d="M257.728,233.055c7.112,-4.069 3.346,-28.429 6.191,-35.221c2.466,-5.887 10.36,-4.07 15.434,-6.064c5.074,1.994 12.968,0.177 15.434,6.064c2.844,6.792 -0.921,31.152 6.191,35.221" style="fill:none;stroke:#07090f;stroke-width:11.15px;"/><path d="M248.328,285.322c6.791,-6.386 12.26,-20.983 15.02,-52.391l32.01,0c2.76,31.408 8.229,46.005 15.02,52.391" style="fill:none;stroke:#07090f;stroke-width:11.15px;"/><path d="M257.932,232.931l42.842,0" style="fill:none;stroke:#07090f;stroke-width:11.15px;"/><path d="M248.328,285.322l62.05,0" style="fill:none;stroke:#07090f;stroke-width:11.15px;"/></g></g><g><path d="M219.009,69.558c0.794,-0.286 1.567,-0.254 2.318,0.099c0.751,0.353 1.27,0.926 1.557,1.721c0.286,0.795 0.249,1.556 -0.111,2.285c-0.361,0.729 -0.938,1.237 -1.733,1.524l-26.552,9.583c-0.839,0.302 -1.649,0.27 -2.43,-0.097c-0.781,-0.366 -1.323,-0.969 -1.626,-1.808l-14.505,-40.193c-0.303,-0.838 -0.275,-1.659 0.084,-2.462c0.359,-0.803 0.957,-1.356 1.796,-1.659l26.553,-9.583c0.794,-0.287 1.567,-0.254 2.318,0.099c0.751,0.353 1.27,0.926 1.556,1.721c0.287,0.794 0.25,1.556 -0.11,2.285c-0.361,0.729 -0.939,1.237 -1.733,1.523l-23.507,8.484l5.282,14.634l21.122,-7.624c0.795,-0.286 1.568,-0.253 2.319,0.099c0.751,0.353 1.27,0.927 1.556,1.721c0.287,0.795 0.25,1.556 -0.11,2.285c-0.361,0.729 -0.939,1.237 -1.733,1.524l-21.123,7.623l5.305,14.7l23.507,-8.484Z" style="fill:#515a47;fill-rule:nonzero;stroke:#515a47;stroke-width:3.23px;stroke-linecap:butt;stroke-miterlimit:1.41421;"/><path d="M266.746,63.952c0.137,0.882 -0.05,1.67 -0.56,2.366c-0.51,0.696 -1.229,1.116 -2.156,1.259c-0.928,0.144 -1.726,-0.03 -2.396,-0.52c-0.669,-0.49 -1.075,-1.199 -1.219,-2.127l-0.322,-2.087c-0.58,-3.757 -1.424,-6.452 -2.531,-8.086c-1.107,-1.633 -2.46,-2.861 -4.059,-3.682c-1.599,-0.822 -3.72,-1.028 -6.364,-0.62l-14.401,2.224l2.493,16.141c0.136,0.881 -0.063,1.672 -0.596,2.371c-0.533,0.7 -1.24,1.118 -2.121,1.254c-0.881,0.136 -1.67,-0.051 -2.366,-0.561c-0.696,-0.51 -1.112,-1.205 -1.248,-2.086l-6.576,-42.578c-0.136,-0.881 0.049,-1.681 0.555,-2.401c0.506,-0.719 1.2,-1.147 2.081,-1.283l16.21,-2.503c6.354,-0.982 11.362,-0.378 15.025,1.811c3.408,2.085 5.435,5.215 6.08,9.389c0.415,2.69 0.048,5.311 -1.101,7.863c-1.149,2.552 -3.172,4.597 -6.068,6.137c3.475,0.365 6.26,2.405 8.353,6.118c1.382,2.493 2.313,5.294 2.793,8.401l0.494,3.2Zm-22.34,-19.201c3.896,-0.601 6.92,-1.852 9.072,-3.751c2.153,-1.9 3,-4.334 2.541,-7.302c-0.43,-2.783 -1.68,-4.727 -3.75,-5.832c-2.47,-1.233 -6.116,-1.477 -10.94,-0.732l-12.245,1.891l2.73,17.671l12.592,-1.945Z" style="fill:#515a47;fill-rule:nonzero;stroke:#515a47;stroke-width:3.23px;stroke-linecap:butt;stroke-miterlimit:1.41421;"/><path d="M297.378,61.164c0.891,0.03 1.642,0.373 2.254,1.027c0.612,0.654 0.903,1.427 0.873,2.318c-0.03,0.892 -0.371,1.631 -1.025,2.22c-0.654,0.588 -1.426,0.868 -2.317,0.838l-18.548,-0.838c-1.219,-0.041 -2.248,-0.51 -3.087,-1.407c-0.838,-0.897 -1.237,-1.955 -1.196,-3.174l1.402,-41.792c0.03,-0.891 0.36,-1.643 0.991,-2.256c0.631,-0.613 1.393,-0.904 2.284,-0.874c0.891,0.03 1.642,0.372 2.254,1.026c0.612,0.655 0.903,1.428 0.873,2.319l-1.336,39.821l16.578,0.772Z" style="fill:#515a47;fill-rule:nonzero;stroke:#515a47;stroke-width:3.23px;stroke-linecap:butt;stroke-miterlimit:1.41421;"/><path d="M349.92,71.664c0.118,0.599 0.115,1.208 -0.01,1.83c-0.125,0.621 -0.524,1.175 -1.196,1.662c-0.673,0.486 -1.607,0.609 -2.803,0.369c-1.196,-0.241 -1.941,-1.061 -2.234,-2.461l-2.317,-11.669l-23.464,-4.725l-6.653,9.862c-0.812,1.177 -1.816,1.645 -3.012,1.404c-1.196,-0.241 -2.01,-0.716 -2.442,-1.425c-0.431,-0.709 -0.585,-1.375 -0.459,-1.996c0.125,-0.621 0.358,-1.184 0.699,-1.69l25.964,-38c1.208,-1.72 2.733,-2.394 4.573,-2.024l0.69,0.139c1.84,0.371 2.984,1.583 3.433,3.636l9.231,45.088Zm-9.822,-16.483l-4.799,-24.305l-13.834,20.552l18.633,3.753Z" style="fill:#515a47;fill-rule:nonzero;stroke:#515a47;stroke-width:3.23px;stroke-linecap:butt;stroke-miterlimit:1.41421;"/><path d="M409.564,48.212c0.813,0.364 1.38,0.965 1.699,1.802c0.32,0.837 0.297,1.663 -0.067,2.477l-17.173,38.357c-0.517,1.157 -1.376,1.955 -2.576,2.395c-1.199,0.44 -2.377,0.401 -3.534,-0.117l-0.771,-0.345c-1.413,-0.633 -2.29,-1.719 -2.629,-3.259l-8.785,-47.048l-15.562,34.759c-0.364,0.814 -0.96,1.37 -1.788,1.668c-0.827,0.298 -1.648,0.265 -2.462,-0.1c-0.814,-0.364 -1.374,-0.949 -1.682,-1.755c-0.308,-0.806 -0.279,-1.616 0.085,-2.43l17.173,-38.358c0.518,-1.157 1.37,-1.97 2.558,-2.441c1.188,-0.471 2.36,-0.448 3.517,0.07l0.835,0.374c1.328,0.594 2.218,1.764 2.671,3.51l8.743,46.797l15.533,-34.695c0.364,-0.814 0.954,-1.385 1.77,-1.714c0.816,-0.329 1.631,-0.312 2.445,0.053Z" style="fill:#515a47;fill-rule:nonzero;stroke:#515a47;stroke-width:3.23px;stroke-linecap:butt;stroke-miterlimit:1.41421;"/><path d="M420.925,109.09c3.489,2.701 7.368,4.398 11.638,5.092l7.8,-10.075l-9.185,-7.11c-0.631,-0.489 -0.997,-1.128 -1.097,-1.918c-0.101,-0.79 0.093,-1.501 0.582,-2.131c0.488,-0.631 1.127,-0.997 1.917,-1.098c0.79,-0.1 1.501,0.094 2.132,0.582l10.966,8.49c0.742,0.574 1.172,1.322 1.289,2.244c0.117,0.922 -0.111,1.754 -0.686,2.496l-9.782,12.636c-0.603,0.779 -1.337,1.324 -2.201,1.635c-0.863,0.31 -1.726,0.37 -2.586,0.178c-5.765,-1.139 -10.819,-3.389 -15.161,-6.751c-5.826,-4.51 -9.102,-10.014 -9.829,-16.512c-0.698,-6.535 1.208,-12.715 5.719,-18.541c4.567,-5.901 10.205,-9.311 16.912,-10.232c6.415,-0.85 12.406,0.879 17.972,5.189c3.155,2.442 5.516,4.893 7.083,7.353c1.568,2.46 2.793,4.921 3.675,7.385c0.426,0.983 0.345,1.854 -0.244,2.615c-0.589,0.761 -1.267,1.215 -2.034,1.363c-0.768,0.148 -1.439,-0.001 -2.014,-0.446c-0.575,-0.445 -0.977,-0.904 -1.204,-1.377c-1.991,-4.865 -4.823,-8.72 -8.497,-11.564c-4.305,-3.332 -8.836,-4.763 -13.593,-4.291c-4.983,0.534 -9.314,3.176 -12.991,7.926c-3.39,4.379 -4.841,9.013 -4.352,13.902c0.505,5.02 3.096,9.34 7.771,12.96Z" style="fill:#515a47;fill-rule:nonzero;stroke:#515a47;stroke-width:3.23px;stroke-linecap:butt;stroke-miterlimit:1.41421;"/><path d="M460.809,150.424c0.527,0.661 0.744,1.403 0.651,2.228c-0.093,0.824 -0.47,1.5 -1.13,2.026c-0.66,0.527 -1.394,0.737 -2.2,0.629c-0.806,-0.107 -1.472,-0.491 -1.999,-1.151l-17.602,-22.069c-0.556,-0.697 -0.786,-1.474 -0.69,-2.332c0.097,-0.857 0.494,-1.564 1.191,-2.12l33.405,-26.645c0.697,-0.556 1.484,-0.793 2.36,-0.711c0.875,0.082 1.591,0.471 2.147,1.169l17.603,22.068c0.526,0.66 0.743,1.403 0.65,2.227c-0.092,0.825 -0.469,1.5 -1.129,2.027c-0.661,0.527 -1.394,0.736 -2.2,0.629c-0.806,-0.107 -1.473,-0.491 -1.999,-1.152l-15.583,-19.537l-12.163,9.701l14.003,17.556c0.527,0.66 0.744,1.403 0.651,2.227c-0.093,0.825 -0.47,1.5 -1.13,2.027c-0.66,0.527 -1.394,0.736 -2.2,0.629c-0.806,-0.107 -1.472,-0.491 -1.999,-1.152l-14.003,-17.555l-12.217,9.744l15.583,19.537Z" style="fill:#515a47;fill-rule:nonzero;stroke:#515a47;stroke-width:3.23px;stroke-linecap:butt;stroke-miterlimit:1.41421;"/><path d="M522.907,176.776c0.368,0.812 0.393,1.638 0.077,2.476c-0.316,0.838 -0.881,1.441 -1.693,1.809l-38.294,17.314c-1.155,0.522 -2.327,0.55 -3.516,0.083c-1.19,-0.466 -2.046,-1.277 -2.568,-2.431l-0.348,-0.77c-0.638,-1.411 -0.573,-2.805 0.195,-4.183l24.632,-41.036l-34.701,15.691c-0.813,0.367 -1.628,0.388 -2.445,0.062c-0.816,-0.326 -1.409,-0.895 -1.776,-1.708c-0.367,-0.812 -0.399,-1.622 -0.094,-2.429c0.304,-0.808 0.863,-1.395 1.675,-1.762l38.294,-17.315c1.155,-0.522 2.333,-0.565 3.534,-0.13c1.201,0.436 2.063,1.231 2.585,2.385l0.377,0.834c0.599,1.326 0.49,2.792 -0.329,4.398l-24.498,40.821l34.638,-15.662c0.812,-0.367 1.633,-0.403 2.461,-0.108c0.829,0.295 1.427,0.848 1.794,1.661Z" style="fill:#515a47;fill-rule:nonzero;stroke:#515a47;stroke-width:3.23px;stroke-linecap:butt;stroke-miterlimit:1.41421;"/></g><g><path d="M24.116,305.77l66.958,0" style="fill:none;stroke:#98473e;stroke-width:11.73px;"/><path d="M209.869,305.77l17.122,0" style="fill:none;stroke:#98473e;stroke-width:11.73px;"/><path d="M333.88,305.77l30.761,0" style="fill:none;stroke:#98473e;stroke-width:11.73px;"/><path d="M459.028,305.77l86.339,0" style="fill:none;stroke:#98473e;stroke-width:11.73px;"/><path d="M27.307,330.389l63.59,0" style="fill:none;stroke:#98473e;stroke-width:11.73px;"/><path d="M210.015,330.389l16.83,0" style="fill:none;stroke:#98473e;stroke-width:11.73px;"/><path d="M333.88,330.389l22.994,0" style="fill:none;stroke:#98473e;stroke-width:11.73px;"/><path d="M464.968,330.389l76.337,0" style="fill:none;stroke:#98473e;stroke-width:11.73px;"/><path d="M32.948,355.007l58.292,0" style="fill:none;stroke:#98473e;stroke-width:11.73px;"/><path d="M209.91,355.007l17.04,0" style="fill:none;stroke:#98473e;stroke-width:11.73px;"/><path d="M334.431,355.007l22.994,0" style="fill:none;stroke:#98473e;stroke-width:11.73px;"/><path d="M465.768,355.007l69.896,0" style="fill:none;stroke:#98473e;stroke-width:11.73px;"/><path d="M41.222,379.626l166.871,0" style="fill:none;stroke:#98473e;stroke-width:11.73px;"/><path d="M208.093,379.626l11.334,0" style="fill:none;stroke:#98473e;stroke-width:11.73px;"/><path d="M336.742,379.626l17.568,0" style="fill:none;stroke:#98473e;stroke-width:11.73px;"/><path d="M470.609,379.626l56.781,0" style="fill:none;stroke:#98473e;stroke-width:11.73px;"/><path d="M52.407,404.245l166.618,0" style="fill:none;stroke:#98473e;stroke-width:11.73px;"/><path d="M337.269,404.245l9.549,0" style="fill:none;stroke:#98473e;stroke-width:11.73px;"/><path d="M476.922,404.245l39.283,0" style="fill:none;stroke:#98473e;stroke-width:11.73px;"/><path d="M66.942,428.864l46.087,0" style="fill:none;stroke:#98473e;stroke-width:11.73px;"/><path d="M130.028,428.864l3.32,0" style="fill:none;stroke:#98473e;stroke-width:11.73px;"/><path d="M150.739,428.864l68.119,0" style="fill:none;stroke:#98473e;stroke-width:11.73px;"/><path d="M337.269,428.864l8.918,0" style="fill:none;stroke:#98473e;stroke-width:11.73px;"/><path d="M476.922,428.864l24.748,0" style="fill:none;stroke:#98473e;stroke-width:11.73px;"/><path d="M85.538,453.483l261.383,0" style="fill:none;stroke:#98473e;stroke-width:11.73px;"/><path d="M475.889,453.483l7.184,0" style="fill:none;stroke:#98473e;stroke-width:11.73px;"/><path d="M109.462,478.102l46.998,0" style="fill:none;stroke:#98473e;stroke-width:11.73px;"/><path d="M177.157,478.102l28.433,0" style="fill:none;stroke:#98473e;stroke-width:11.73px;"/><path d="M226.287,478.102l232.863,0" style="fill:none;stroke:#98473e;stroke-width:11.73px;"/><path d="M141.337,502.721l285.938,0" style="fill:none;stroke:#98473e;stroke-width:11.73px;"/><path d="M188.858,527.34l190.896,0" style="fill:none;stroke:#98473e;stroke-width:11.73px;"/></g><g><path d="M220.477,104.156c0.587,0 1.089,0.207 1.503,0.622c0.415,0.415 0.623,0.916 0.623,1.504c0,0.587 -0.208,1.08 -0.623,1.477c-0.414,0.398 -0.916,0.597 -1.503,0.597l-9.8,0c-0.588,0 -1.081,-0.199 -1.478,-0.597c-0.398,-0.397 -0.596,-0.89 -0.596,-1.477c0,-0.588 0.198,-1.089 0.596,-1.504c0.397,-0.415 0.89,-0.622 1.478,-0.622l9.8,0Z" style="fill:#515a47;fill-rule:nonzero;stroke:#515a47;stroke-width:1.47px;stroke-linecap:butt;stroke-miterlimit:1.41421;"/><path d="M249.825,116.393c0.622,0 1.15,0.216 1.582,0.648c0.432,0.432 0.648,0.959 0.648,1.581c0,0.623 -0.216,1.141 -0.648,1.556c-0.432,0.415 -0.96,0.622 -1.582,0.622l-16.022,0c-0.622,0 -1.141,-0.207 -1.556,-0.622c-0.415,-0.415 -0.622,-0.933 -0.622,-1.556c0,-0.622 0.207,-1.149 0.622,-1.581c0.415,-0.432 0.934,-0.648 1.556,-0.648l6.17,0l0,-26.289l-5.289,2.592c-0.173,0.069 -0.345,0.138 -0.518,0.208c-0.173,0.069 -0.493,0.103 -0.96,0.103c-0.466,0 -0.907,-0.207 -1.322,-0.622c-0.415,-0.415 -0.622,-1.028 -0.622,-1.841c0,-0.812 0.449,-1.443 1.348,-1.892l7.052,-3.682c0.484,-0.242 0.968,-0.363 1.452,-0.363l1.089,0c0.691,0 1.279,0.242 1.763,0.726c0.484,0.484 0.726,1.072 0.726,1.763l0,29.297l5.133,0Z" style="fill:#515a47;fill-rule:nonzero;stroke:#515a47;stroke-width:1.47px;stroke-linecap:butt;stroke-miterlimit:1.41421;"/><path d="M271.914,84.089c2.316,0 4.356,0.449 6.119,1.348c1.763,0.899 3.232,2.178 4.407,3.837c2.351,3.249 3.526,7.726 3.526,13.43c0,5.738 -1.175,10.232 -3.526,13.481c-2.489,3.423 -5.997,5.134 -10.526,5.134c-4.528,0 -8.037,-1.711 -10.526,-5.134c-2.35,-3.249 -3.526,-7.743 -3.526,-13.481c0,-5.704 1.176,-10.181 3.526,-13.43c2.455,-3.457 5.963,-5.185 10.526,-5.185Zm0,32.874c3.042,0 5.358,-1.279 6.949,-3.837c1.59,-2.523 2.385,-5.998 2.385,-10.422c0,-4.39 -0.795,-7.847 -2.385,-10.371c-1.591,-2.558 -3.915,-3.837 -6.975,-3.837c-3.059,0 -5.375,1.279 -6.948,3.837c-1.573,2.558 -2.359,6.015 -2.359,10.371c0,4.424 0.795,7.899 2.385,10.422c1.59,2.558 3.906,3.837 6.948,3.837Z" style="fill:#515a47;fill-rule:nonzero;stroke:#515a47;stroke-width:1.47px;stroke-linecap:butt;stroke-miterlimit:1.41421;"/><path d="M302.922,84.089c2.316,0 4.356,0.449 6.119,1.348c1.763,0.899 3.232,2.178 4.407,3.837c2.351,3.249 3.526,7.726 3.526,13.43c0,5.738 -1.175,10.232 -3.526,13.481c-2.489,3.423 -5.998,5.134 -10.526,5.134c-4.528,0 -8.037,-1.711 -10.526,-5.134c-2.351,-3.249 -3.526,-7.743 -3.526,-13.481c0,-5.704 1.175,-10.181 3.526,-13.43c2.454,-3.457 5.963,-5.185 10.526,-5.185Zm0,32.874c3.042,0 5.358,-1.279 6.948,-3.837c1.59,-2.523 2.385,-5.998 2.385,-10.422c0,-4.39 -0.795,-7.847 -2.385,-10.371c-1.59,-2.558 -3.915,-3.837 -6.974,-3.837c-3.059,0 -5.375,1.279 -6.948,3.837c-1.573,2.558 -2.359,6.015 -2.359,10.371c0,4.424 0.795,7.899 2.385,10.422c1.59,2.558 3.906,3.837 6.948,3.837Z" style="fill:#515a47;fill-rule:nonzero;stroke:#515a47;stroke-width:1.47px;stroke-linecap:butt;stroke-miterlimit:1.41421;"/><path d="M343.782,116.393c0.622,0 1.149,0.216 1.581,0.648c0.432,0.432 0.648,0.959 0.648,1.581c0,0.623 -0.216,1.141 -0.648,1.556c-0.432,0.415 -0.959,0.622 -1.581,0.622l-20.015,0c-0.795,0 -1.452,-0.25 -1.971,-0.752c-0.518,-0.501 -0.777,-1.149 -0.777,-1.944c0,-1.832 0.509,-3.474 1.529,-4.926c1.02,-1.452 2.299,-2.8 3.837,-4.045c1.539,-1.244 3.206,-2.419 5.004,-3.526c1.798,-1.106 3.465,-2.212 5.004,-3.318c1.538,-1.106 2.817,-2.247 3.837,-3.422c1.02,-1.176 1.529,-2.351 1.529,-3.526c0,-1.176 -0.146,-2.152 -0.44,-2.93c-0.294,-0.778 -0.752,-1.443 -1.374,-1.996c-1.383,-1.245 -3.509,-1.867 -6.378,-1.867c-3.077,0 -6.032,0.622 -8.867,1.867c-0.346,0.173 -0.743,0.259 -1.193,0.259c-0.449,0 -0.855,-0.19 -1.218,-0.57c-0.363,-0.381 -0.545,-0.934 -0.545,-1.66c0,-0.726 0.381,-1.296 1.141,-1.711c3.526,-1.763 7.363,-2.644 11.511,-2.644c3.388,0 6.205,0.968 8.452,2.903c2.316,1.971 3.474,4.512 3.474,7.623c0,3.145 -1.572,6.17 -4.718,9.074c-1.383,1.244 -2.895,2.42 -4.537,3.526c-1.642,1.106 -3.224,2.169 -4.745,3.189c-1.521,1.02 -2.886,2.022 -4.096,3.007c-1.21,0.985 -2.04,1.979 -2.489,2.982l18.045,0Z" style="fill:#515a47;fill-rule:nonzero;stroke:#515a47;stroke-width:1.47px;stroke-linecap:butt;stroke-miterlimit:1.41421;"/><path d="M364.108,104.156c0.588,0 1.089,0.207 1.504,0.622c0.414,0.415 0.622,0.916 0.622,1.504c0,0.587 -0.208,1.08 -0.622,1.477c-0.415,0.398 -0.916,0.597 -1.504,0.597l-9.8,0c-0.588,0 -1.08,-0.199 -1.478,-0.597c-0.398,-0.397 -0.596,-0.89 -0.596,-1.477c0,-0.588 0.198,-1.089 0.596,-1.504c0.398,-0.415 0.89,-0.622 1.478,-0.622l9.8,0Z" style="fill:#515a47;fill-rule:nonzero;stroke:#515a47;stroke-width:1.47px;stroke-linecap:butt;stroke-miterlimit:1.41421;"/></g></svg>