<?xml version="1.0" encoding="UTF-8" standalone="no"?><!DOCTYPE svg PUBLIC "-//W3C//DTD SVG 1.1//EN" "http://www.w3.org/Graphics/SVG/1.1/DTD/svg11.dtd"><svg width="100%" height="100%" viewBox="0 0 197 94" version="1.1" xmlns="http://www.w3.org/2000/svg" xmlns:xlink="http://www.w3.org/1999/xlink" xml:space="preserve" xmlns:serif="http://www.serif.com/" style="fill-rule:evenodd;clip-rule:evenodd;stroke-miterlimit:1.5;"><g><g><path d="M166.32,82.073l0,-6.281l-0.456,-9.065l-0.693,-8.552l-1.05,-4.029l0,-5.143l0.248,-2.824l1.246,-1.869l1.99,-1.941l1.288,-2.708l0.238,-3.484l0,-7.193l0.211,-2.935l1.158,-2.636l0.389,-2.978" style="fill:none;stroke:#f02;stroke-width:0.68px;"/><path d="M185.502,83.755l-4.268,-2.436l-2.324,-2.296l-1.925,-2.978l-1.818,-3.272l-2.323,-2.644l-2.768,-1.729l-3.198,-1.256l-2.323,-0.384l-5.078,-0.219l-7.079,-0.303l-4.767,-0.99l-2.976,-1.236l-2.508,-1.478l-1.798,-1.516l-2.423,-2.358l-1.921,-2.257l-2.143,-3.967l-1.441,-3.951l-0.717,-4.41l0,-3.328l0.255,-2.448l0.211,-3.492l0.251,-3.014l-0.251,-3.599l-0.466,-2.72l-1.013,-2.709l-1.113,-2.688" style="fill:none;stroke:#f02;stroke-width:0.68px;"/></g><g><path d="M185.502,83.755l1.034,0.238l-0.248,-2.522l0.57,-1.978l0.731,-1.507l0.235,-1.599l0,-1.664l-0.4,-1.611l0.165,-1.97l0,-2.23l0,-1.139l-1.57,-3.414l-0.69,-3.142l-1.429,-1.888l-4.178,-5.067l-1.229,-0.547l-3.591,-0.33l-2.459,-0.941l-3.603,-1.765l-2.357,-0.847l-2.795,-0.967l-0.518,-0.181" style="fill:none;stroke:#f02;stroke-width:0.68px;"/></g><g><path d="M161.577,83.977l0.509,-3.179l0.583,-3.86l1.057,-2.921l0.274,-0.442l0.327,-1.276l-0.937,-5.662l-1.421,-7.485l0.241,-1.212l0.321,-1.627l-0.135,-1.267l0.135,-0.603l0.304,-0.802l0.676,-1.148l1.413,-1.239l1.138,-1.322l0.791,-2.22l1.235,-4.332l0.504,-1.141l2.04,-2.842l0.257,-0.658l-0.257,-0.262l-0.474,-2.396l-0.726,-0.112" style="fill:none;stroke:#f02;stroke-width:0.68px;"/><path d="M168.992,38.854l1.581,-0.445" style="fill:none;stroke:#f02;stroke-width:0.68px;"/><path d="M167.932,41.787l1.282,0.873l1.675,1.022l1.832,0l3.036,-0.369l0.779,-0.653l0.608,-2.138l0.545,-1.316l3.823,0.343l0.361,-2.23l-2.286,-0.354l-0.391,3.221l-0.183,1.302l0.061,3.226l0.163,2.641l-0.114,1.942l-0.365,2.71l-0.435,1.686" style="fill:none;stroke:#f02;stroke-width:0.68px;"/><path d="M178.493,53.01l-1.416,-1.404l-2.747,-4.893l-0.629,-3.141" style="fill:none;stroke:#f02;stroke-width:0.68px;"/><path d="M163.17,48.684l-2.585,-0.899l-2.128,-1.811l-1.537,-0.645l-1.418,0l-1.355,0.177l-1.327,0.638l-3.091,1.067l-1.018,0.11l-3.109,-0.447l-2.041,-0.562l-3.597,-0.607l-0.67,-0.501l-0.487,-1.154l0,-3.597l1.538,-0.928l2.012,0l1.124,-1.232l2.928,0.131l0.288,-2.117l1.642,-1.38l1.927,-0.523l4.133,-0.868l2.341,-0.338l2.779,1.934l0.245,0.57" style="fill:none;stroke:#f02;stroke-width:0.68px;"/><path d="M161.445,29.016l-0.721,2.771l-0.851,3.954l-2.12,2.224l-0.512,4.31l-0.335,2.649l-0.435,3.215l0,2.757l-0.314,1.773l0.314,0.896l-0.938,0.63l-0.307,0.854l0,5.302l0.626,0.984l-0.864,0.846l-4,1.898l-0.494,0.485l-0.274,2.485l-0.416,2.26l-1.142,2.824l0.704,3.382l0.854,6.844l-1.272,0l0,5.784" style="fill:none;stroke:#f02;stroke-width:0.68px;"/><path d="M127.961,64.855l6.932,-1.621l4.489,-0.628l2.594,-2.559l3.89,-2.746l5.122,-1.602l3.615,-0.667l4.327,-1.087l3.708,-0.659l1.092,-0.983" style="fill:none;stroke:#f02;stroke-width:0.68px;"/><path d="M149.271,70.247l-4.039,0.621l-0.505,-4.011l0,-0.753l5.355,1.299" style="fill:none;stroke:#f02;stroke-width:0.68px;"/><path d="M127.961,57.807l3.394,2.814l3.439,2.514l4.013,-0.139l3.422,0.79l2.498,2.318" style="fill:none;stroke:#f02;stroke-width:0.68px;"/><path d="M132.488,63.489l0.964,-2.642l2.387,-4.099l1.533,-2.023l0,-2.422l0.346,-0.658l2.346,0.251l1.898,-0.795l1.056,0l1.709,-2.417l3.122,-1.474" style="fill:none;stroke:#f02;stroke-width:0.68px;"/><path d="M131.709,43.199l7.098,-1.048l0,-0.442l2.413,0.442l2.724,-0.442l2.439,0.947l1.021,0l1.923,0.543l1.381,-1.048l3.354,0.505l0,-2.413l0.702,-2.762l0.433,-3.33l0.402,-6.738l0.29,-4.198l0.246,-0.481l-2.305,-1.164l-5.189,-0.235l-3.431,-2.151l-1.742,-2.155l-1.791,-1.867l-3.166,-1.438l-1.777,-1.238l-1.44,-0.733" style="fill:none;stroke:#f02;stroke-width:0.68px;"/><path d="M131.29,1.203l3.976,7.523l1.81,2.414l1.298,0l0,0.613l2.963,0.543l4.508,0l1.414,-0.543" style="fill:none;stroke:#f02;stroke-width:0.68px;"/><path d="M136.638,12.296l0.438,-1.139" style="fill:none;stroke:#f02;stroke-width:0.68px;"/><path d="M138.388,11.753l-0.326,1.125l0.326,0.674l-0.846,15.411l-0.685,2.826l-0.078,1.432l2.496,1.074l1.759,1.056l2.341,2.983" style="fill:none;stroke:#f02;stroke-width:0.68px;"/><path d="M144.706,38.334l0,0.92l2.698,3.402" style="fill:none;stroke:#f02;stroke-width:0.68px;"/><path d="M136.779,33.202l-0.722,0.067l-0.514,2.902l0.348,3.979l1.606,3.149l0.538,5.023l0.881,0.852l1.161,2.366l1.005,1.926l0.492,1.787l2.881,3.025l3.002,1.175l0.221,0.335l-2.083,0.608l-1.52,1.291l-0.7,1.172l-1.052,0.876" style="fill:none;stroke:#f02;stroke-width:0.68px;"/><path d="M150.586,64.358l0,-2.75l-0.571,-1.894l-0.996,-0.388l-1.341,0.388" style="fill:none;stroke:#f02;stroke-width:0.68px;"/><path d="M150.093,59.714l2.619,-2.588l0.302,-3.464l-0.302,-4.028l0.302,-2.816l1.137,-1.933l0,-2.343" style="fill:none;stroke:#f02;stroke-width:0.68px;"/><path d="M156.136,22.736l2.086,2.308l3.241,3.951l3.628,0.953l2.875,0.413l1.166,1.068" style="fill:none;stroke:#f02;stroke-width:0.68px;"/><path d="M169.639,27.082l0,4.347l4.454,2.175l2.418,0.515l1.442,0l-0.395,-3.264l-2.067,-1.552l-2.839,0.695l-3.013,-2.916Z" style="fill:none;stroke:#f02;stroke-width:0.68px;"/><path d="M172.055,32.61l0.616,-2.654" style="fill:none;stroke:#f02;stroke-width:0.68px;"/><path d="M169.132,31.429l0.507,0" style="fill:none;stroke:#f02;stroke-width:0.68px;"/><path d="M175.545,29.294l3.759,-0.607l1.018,-1.16l0.475,-1.814l1.407,-0.638l0,-2.656l-0.914,-0.75" style="fill:none;stroke:#f02;stroke-width:0.68px;"/><path d="M195.767,29.294l-1.728,1.759l-2.653,2.482l-1.457,1.114l-1.099,3.636l-0.529,4.729l-1.024,8.427l-0.763,5.312l0.191,5.002l1.381,5.873l-1.004,0.293" style="fill:none;stroke:#f02;stroke-width:0.68px;"/><path d="M180.351,27.535l2.36,1.636l-1.064,1.882l-2.784,-0.452l-1.277,0.296" style="fill:none;stroke:#f02;stroke-width:0.68px;"/><path d="M187.142,67.921l-4.431,0.592l-3.102,1.381l-2.984,2.338l-4.716,0l-3.499,0.316l-4.059,-0.316" style="fill:none;stroke:#f02;stroke-width:0.68px;"/><path d="M178.432,70.79l-0.846,-3.352l-2.59,-2.597l-4.397,-3.021l-1.821,-0.459l-2.89,-1.217l-3.671,-2.258" style="fill:none;stroke:#f02;stroke-width:0.68px;"/><path d="M162.217,56.248l2.134,-0.845l1.828,0l2.647,0.845l1.498,0.607l-0.255,1.604l0.439,3.306" style="fill:none;stroke:#f02;stroke-width:0.68px;"/><path d="M170.324,56.807l1.223,-2.229l0.928,-2.502l0.635,-3.06l-0.635,-3.257l0.402,-1.452l-0.402,-3.136l-0.749,-0.529l-0.244,-1.329l-0.974,0.219" style="fill:none;stroke:#f02;stroke-width:0.68px;"/><path d="M171.198,43.663l0.528,-3.021" style="fill:none;stroke:#f02;stroke-width:0.68px;"/><path d="M177.688,39.191l-4.186,0.341l-2.02,-0.219" style="fill:none;stroke:#f02;stroke-width:0.68px;"/><path d="M177.861,34.129l0.47,0.866l1.462,0.453l-0.231,1.544" style="fill:none;stroke:#f02;stroke-width:0.68px;"/><path d="M181.851,37.321l6.97,0.721l2.283,0.327l2.149,1.235" style="fill:none;stroke:#f02;stroke-width:0.68px;"/><path d="M194.124,30.811l-2.268,0.548l-2.87,-0.548l-3.522,-0.2l-2.639,0.748l-1.171,-0.346" style="fill:none;stroke:#f02;stroke-width:0.68px;"/><path d="M188.986,30.811l0,1.586l0.755,0.954l0.968,0.652" style="fill:none;stroke:#f02;stroke-width:0.68px;"/><path d="M150.426,46.784l-0.541,-1.823l-0.708,-0.729l0,-1.048" style="fill:none;stroke:#f02;stroke-width:0.68px;"/><path d="M161.948,81.838l4.288,0.234" style="fill:none;stroke:#f02;stroke-width:0.68px;"/><path d="M176.933,84.557l0.521,-3.376l0.944,-1.568l2.593,-0.609l4.855,0.434l0.327,-1.564l-0.327,-3.503l0.858,-3.8l-0.531,-2.51" style="fill:none;stroke:#f02;stroke-width:0.68px;"/><path d="M174.121,45.459l-1.646,0.3" style="fill:none;stroke:#f02;stroke-width:0.68px;"/></g></g><g><g><path d="M165.732,81.485l0,-6.281l-0.456,-9.065l-0.693,-8.552l-1.05,-4.029l0,-5.143l0.249,-2.824l1.245,-1.868l1.99,-1.942l1.288,-2.708l0.238,-3.483l0,-7.193l0.211,-2.936l1.159,-2.635l0.388,-2.979" style="fill:none;stroke:#9dfff8;stroke-width:0.68px;"/><path d="M184.915,83.167l-4.268,-2.436l-2.325,-2.295l-1.925,-2.979l-1.818,-3.271l-2.323,-2.645l-2.768,-1.729l-3.198,-1.255l-2.323,-0.384l-5.078,-0.22l-7.079,-0.303l-4.766,-0.99l-2.977,-1.236l-2.508,-1.477l-1.798,-1.517l-2.422,-2.358l-1.922,-2.257l-2.143,-3.967l-1.441,-3.951l-0.717,-4.41l0,-3.328l0.255,-2.448l0.211,-3.492l0.251,-3.013l-0.251,-3.6l-0.466,-2.72l-1.013,-2.709l-1.113,-2.687" style="fill:none;stroke:#9dfff8;stroke-width:0.68px;"/></g><g><path d="M184.915,83.167l1.034,0.238l-0.249,-2.522l0.571,-1.978l0.731,-1.507l0.234,-1.599l0,-1.664l-0.4,-1.61l0.166,-1.971l0,-2.23l0,-1.139l-1.57,-3.413l-0.691,-3.143l-1.428,-1.888l-4.178,-5.066l-1.23,-0.548l-3.59,-0.33l-2.46,-0.941l-3.603,-1.765l-2.357,-0.847l-2.794,-0.967l-0.519,-0.18" style="fill:none;stroke:#9dfff8;stroke-width:0.68px;"/></g><g><path d="M160.989,83.389l0.509,-3.178l0.584,-3.861l1.056,-2.921l0.274,-0.442l0.328,-1.275l-0.938,-5.663l-1.42,-7.485l0.24,-1.211l0.321,-1.628l-0.135,-1.267l0.135,-0.603l0.304,-0.802l0.677,-1.148l1.412,-1.239l1.138,-1.322l0.791,-2.22l1.236,-4.332l0.503,-1.141l2.041,-2.842l0.256,-0.658l-0.256,-0.262l-0.474,-2.395l-0.726,-0.113" style="fill:none;stroke:#9dfff8;stroke-width:0.68px;"/><path d="M168.404,38.266l1.581,-0.444" style="fill:none;stroke:#9dfff8;stroke-width:0.68px;"/><path d="M167.344,41.199l1.282,0.874l1.675,1.022l1.833,0l3.036,-0.37l0.778,-0.652l0.608,-2.139l0.545,-1.315l3.823,0.342l0.361,-2.23l-2.286,-0.353l-0.391,3.22l-0.183,1.302l0.061,3.227l0.163,2.64l-0.113,1.943l-0.366,2.709l-0.434,1.686" style="fill:none;stroke:#9dfff8;stroke-width:0.68px;"/><path d="M177.905,52.423l-1.415,-1.405l-2.748,-4.892l-0.629,-3.142" style="fill:none;stroke:#9dfff8;stroke-width:0.68px;"/><path d="M162.582,48.097l-2.584,-0.9l-2.128,-1.81l-1.538,-0.646l-1.418,0l-1.354,0.177l-1.328,0.639l-3.091,1.066l-1.017,0.111l-3.11,-0.448l-2.041,-0.562l-3.597,-0.607l-0.669,-0.501l-0.488,-1.154l0,-3.597l1.538,-0.928l2.012,0l1.125,-1.232l2.927,0.131l0.289,-2.117l1.641,-1.38l1.928,-0.523l4.132,-0.868l2.342,-0.338l2.778,1.935l0.245,0.569" style="fill:none;stroke:#9dfff8;stroke-width:0.68px;"/><path d="M160.858,28.428l-0.721,2.772l-0.852,3.953l-2.119,2.224l-0.512,4.311l-0.335,2.648l-0.435,3.215l0,2.758l-0.315,1.773l0.315,0.895l-0.938,0.63l-0.308,0.854l0,5.303l0.627,0.984l-0.864,0.845l-4,1.899l-0.495,0.484l-0.274,2.485l-0.416,2.261l-1.142,2.823l0.704,3.382l0.854,6.844l-1.272,0l0,5.784" style="fill:none;stroke:#9dfff8;stroke-width:0.68px;"/><path d="M127.373,64.267l6.932,-1.621l4.49,-0.627l2.593,-2.56l3.891,-2.746l5.122,-1.602l3.614,-0.667l4.327,-1.087l3.709,-0.659l1.092,-0.983" style="fill:none;stroke:#9dfff8;stroke-width:0.68px;"/><path d="M148.683,69.659l-4.039,0.621l-0.504,-4.011l0,-0.753l5.354,1.299" style="fill:none;stroke:#9dfff8;stroke-width:0.68px;"/><path d="M127.373,57.219l3.394,2.814l3.439,2.514l4.013,-0.138l3.422,0.789l2.499,2.318" style="fill:none;stroke:#9dfff8;stroke-width:0.68px;"/><path d="M131.901,62.901l0.963,-2.642l2.387,-4.099l1.534,-2.023l0,-2.422l0.345,-0.658l2.346,0.252l1.899,-0.795l1.055,0l1.71,-2.417l3.121,-1.475" style="fill:none;stroke:#9dfff8;stroke-width:0.68px;"/><path d="M131.122,42.611l7.097,-1.048l0,-0.442l2.414,0.442l2.723,-0.442l2.44,0.947l1.021,0l1.922,0.543l1.381,-1.048l3.354,0.505l0,-2.413l0.703,-2.761l0.433,-3.33l0.401,-6.739l0.29,-4.198l0.247,-0.481l-2.306,-1.164l-5.189,-0.235l-3.43,-2.151l-1.743,-2.154l-1.79,-1.868l-3.166,-1.438l-1.778,-1.238l-1.439,-0.733" style="fill:none;stroke:#9dfff8;stroke-width:0.68px;"/><path d="M130.702,0.615l3.976,7.523l1.811,2.414l1.297,0l0,0.613l2.964,0.544l4.508,0l1.413,-0.544" style="fill:none;stroke:#9dfff8;stroke-width:0.68px;"/><path d="M136.05,11.709l0.438,-1.139" style="fill:none;stroke:#9dfff8;stroke-width:0.68px;"/><path d="M137.8,11.165l-0.326,1.126l0.326,0.673l-0.846,15.411l-0.685,2.827l-0.078,1.431l2.496,1.075l1.759,1.055l2.341,2.984" style="fill:none;stroke:#9dfff8;stroke-width:0.68px;"/><path d="M144.118,37.747l0,0.92l2.699,3.401" style="fill:none;stroke:#9dfff8;stroke-width:0.68px;"/><path d="M136.191,32.615l-0.722,0.067l-0.514,2.901l0.349,3.979l1.605,3.149l0.538,5.023l0.882,0.852l1.16,2.366l1.006,1.926l0.492,1.787l2.881,3.026l3.002,1.174l0.22,0.336l-2.083,0.607l-1.52,1.291l-0.7,1.173l-1.052,0.876" style="fill:none;stroke:#9dfff8;stroke-width:0.68px;"/><path d="M149.999,63.77l0,-2.75l-0.571,-1.894l-0.997,-0.387l-1.341,0.387" style="fill:none;stroke:#9dfff8;stroke-width:0.68px;"/><path d="M149.505,59.126l2.62,-2.588l0.301,-3.463l-0.301,-4.029l0.301,-2.816l1.137,-1.933l0,-2.343" style="fill:none;stroke:#9dfff8;stroke-width:0.68px;"/><path d="M155.548,22.148l2.086,2.308l3.241,3.951l3.628,0.953l2.875,0.413l1.166,1.068" style="fill:none;stroke:#9dfff8;stroke-width:0.68px;"/><path d="M169.051,26.495l0,4.346l4.455,2.175l2.417,0.515l1.443,0l-0.396,-3.263l-2.067,-1.553l-2.838,0.695l-3.014,-2.915Z" style="fill:none;stroke:#9dfff8;stroke-width:0.68px;"/><path d="M171.467,32.022l0.616,-2.654" style="fill:none;stroke:#9dfff8;stroke-width:0.68px;"/><path d="M168.544,30.841l0.507,0" style="fill:none;stroke:#9dfff8;stroke-width:0.68px;"/><path d="M174.957,28.706l3.76,-0.607l1.017,-1.16l0.475,-1.814l1.407,-0.638l0,-2.656l-0.914,-0.75" style="fill:none;stroke:#9dfff8;stroke-width:0.68px;"/><path d="M195.179,28.706l-1.728,1.759l-2.653,2.482l-1.457,1.115l-1.099,3.635l-0.529,4.73l-1.023,8.427l-0.763,5.311l0.19,5.002l1.381,5.874l-1.003,0.292" style="fill:none;stroke:#9dfff8;stroke-width:0.68px;"/><path d="M179.763,26.948l2.36,1.635l-1.064,1.882l-2.784,-0.452l-1.277,0.297" style="fill:none;stroke:#9dfff8;stroke-width:0.68px;"/><path d="M186.554,67.333l-4.431,0.592l-3.102,1.381l-2.984,2.338l-4.716,0l-3.499,0.316l-4.059,-0.316" style="fill:none;stroke:#9dfff8;stroke-width:0.68px;"/><path d="M177.844,70.202l-0.846,-3.352l-2.59,-2.597l-4.397,-3.021l-1.821,-0.458l-2.889,-1.217l-3.672,-2.259" style="fill:none;stroke:#9dfff8;stroke-width:0.68px;"/><path d="M161.629,55.66l2.134,-0.845l1.828,0l2.647,0.845l1.499,0.607l-0.255,1.604l0.438,3.307" style="fill:none;stroke:#9dfff8;stroke-width:0.68px;"/><path d="M169.737,56.219l1.222,-2.229l0.928,-2.501l0.635,-3.06l-0.635,-3.257l0.402,-1.453l-0.402,-3.135l-0.749,-0.53l-0.244,-1.329l-0.974,0.219" style="fill:none;stroke:#9dfff8;stroke-width:0.68px;"/><path d="M170.61,43.075l0.528,-3.021" style="fill:none;stroke:#9dfff8;stroke-width:0.68px;"/><path d="M177.101,38.604l-4.187,0.34l-2.02,-0.219" style="fill:none;stroke:#9dfff8;stroke-width:0.68px;"/><path d="M177.273,33.542l0.471,0.865l1.461,0.453l-0.231,1.544" style="fill:none;stroke:#9dfff8;stroke-width:0.68px;"/><path d="M181.264,36.734l6.969,0.72l2.284,0.327l2.148,1.236" style="fill:none;stroke:#9dfff8;stroke-width:0.68px;"/><path d="M193.537,30.223l-2.268,0.548l-2.871,-0.548l-3.522,-0.2l-2.639,0.748l-1.171,-0.345" style="fill:none;stroke:#9dfff8;stroke-width:0.68px;"/><path d="M188.398,30.223l0,1.586l0.756,0.955l0.968,0.651" style="fill:none;stroke:#9dfff8;stroke-width:0.68px;"/><path d="M149.838,46.196l-0.541,-1.822l-0.707,-0.73l0,-1.048" style="fill:none;stroke:#9dfff8;stroke-width:0.68px;"/><path d="M161.36,81.25l4.289,0.235" style="fill:none;stroke:#9dfff8;stroke-width:0.68px;"/><path d="M176.346,83.969l0.52,-3.376l0.944,-1.567l2.593,-0.609l4.855,0.434l0.328,-1.564l-0.328,-3.503l0.858,-3.8l-0.53,-2.511" style="fill:none;stroke:#9dfff8;stroke-width:0.68px;"/><path d="M173.534,44.871l-1.647,0.301" style="fill:none;stroke:#9dfff8;stroke-width:0.68px;"/></g></g><g><path d="M15.687,84.823c0.2,0 0.375,0.075 0.524,0.225c0.15,0.15 0.225,0.325 0.225,0.525c0,0.225 -0.075,0.406 -0.225,0.543c-0.149,0.138 -0.324,0.207 -0.524,0.207l-14.13,0c-0.2,0 -0.375,-0.075 -0.525,-0.225c-0.15,-0.15 -0.225,-0.325 -0.225,-0.525l0,-24.737c0,-0.2 0.075,-0.375 0.225,-0.525c0.15,-0.15 0.325,-0.225 0.525,-0.225l14.13,0c0.2,0 0.375,0.075 0.524,0.225c0.15,0.15 0.225,0.325 0.225,0.525c0,0.225 -0.075,0.406 -0.225,0.543c-0.149,0.138 -0.324,0.207 -0.524,0.207l-13.306,0l0,10.457l11.619,0c0.2,0 0.375,0.075 0.525,0.224c0.15,0.15 0.225,0.325 0.225,0.525c0,0.225 -0.075,0.406 -0.225,0.544c-0.15,0.137 -0.325,0.206 -0.525,0.206l-11.619,0l0,11.281l13.306,0Z" style="fill:#f02;fill-rule:nonzero;"/><path d="M29.517,67.02c1.149,0 1.724,0.288 1.724,0.862c0,0.225 -0.062,0.413 -0.187,0.562c-0.125,0.15 -0.288,0.225 -0.488,0.225c-0.075,0 -0.256,-0.056 -0.543,-0.168c-0.287,-0.113 -0.593,-0.169 -0.918,-0.169c-1.025,0 -2.049,0.406 -3.074,1.218c-1.024,0.812 -1.861,1.837 -2.511,3.074c-0.65,1.236 -0.974,2.429 -0.974,3.579l0,9.37c0,0.2 -0.075,0.375 -0.225,0.525c-0.15,0.15 -0.325,0.225 -0.525,0.225c-0.225,0 -0.406,-0.075 -0.543,-0.225c-0.138,-0.15 -0.207,-0.325 -0.207,-0.525l0,-17.204c0,-0.199 0.075,-0.374 0.225,-0.524c0.15,-0.15 0.325,-0.225 0.525,-0.225c0.225,0 0.406,0.075 0.543,0.225c0.138,0.15 0.207,0.325 0.207,0.524l0,3.973c0.574,-1.524 1.468,-2.786 2.679,-3.785c1.212,-1 2.643,-1.512 4.292,-1.537Z" style="fill:#f02;fill-rule:nonzero;"/><path d="M36.151,85.573c0,0.2 -0.075,0.375 -0.225,0.525c-0.15,0.15 -0.325,0.225 -0.525,0.225c-0.225,0 -0.406,-0.075 -0.543,-0.225c-0.138,-0.15 -0.206,-0.325 -0.206,-0.525l0,-26.236c0,-0.2 0.075,-0.375 0.225,-0.525c0.15,-0.15 0.324,-0.225 0.524,-0.225c0.225,0 0.406,0.075 0.544,0.225c0.137,0.15 0.206,0.325 0.206,0.525l0,26.236Z" style="fill:#f02;fill-rule:nonzero;"/><path d="M57.515,67.62c0.225,0 0.406,0.075 0.543,0.225c0.138,0.15 0.206,0.325 0.206,0.524l0,17.204c0,0.2 -0.075,0.375 -0.225,0.525c-0.149,0.15 -0.324,0.225 -0.524,0.225c-0.225,0 -0.406,-0.075 -0.544,-0.225c-0.137,-0.15 -0.206,-0.325 -0.206,-0.525l0,-3.373c-0.625,1.274 -1.587,2.342 -2.886,3.204c-1.299,0.862 -2.736,1.293 -4.31,1.293c-1.649,0 -3.136,-0.431 -4.46,-1.293c-1.325,-0.862 -2.361,-2.049 -3.111,-3.56c-0.75,-1.512 -1.125,-3.205 -1.125,-5.079c0,-1.849 0.382,-3.517 1.144,-5.004c0.762,-1.486 1.805,-2.648 3.129,-3.485c1.325,-0.837 2.799,-1.256 4.423,-1.256c1.624,0 3.086,0.425 4.385,1.275c1.299,0.849 2.236,1.986 2.811,3.41l0,-3.336c0,-0.199 0.069,-0.374 0.206,-0.524c0.138,-0.15 0.319,-0.225 0.544,-0.225Zm-7.871,17.653c1.374,0 2.617,-0.368 3.729,-1.106c1.112,-0.737 1.98,-1.755 2.605,-3.054c0.625,-1.3 0.937,-2.749 0.937,-4.348c0,-1.524 -0.312,-2.923 -0.937,-4.198c-0.625,-1.274 -1.493,-2.28 -2.605,-3.017c-1.112,-0.737 -2.355,-1.106 -3.729,-1.106c-1.374,0 -2.617,0.357 -3.729,1.069c-1.112,0.712 -1.981,1.699 -2.605,2.961c-0.625,1.261 -0.937,2.692 -0.937,4.291c0,1.599 0.312,3.048 0.937,4.348c0.624,1.299 1.486,2.317 2.586,3.054c1.099,0.738 2.349,1.106 3.748,1.106Z" style="fill:#f02;fill-rule:nonzero;"/><path d="M72.619,67.02c2.224,0 3.898,0.656 5.023,1.968c1.124,1.312 1.686,3.017 1.686,5.116l0,11.469c0,0.2 -0.075,0.375 -0.225,0.525c-0.15,0.15 -0.324,0.225 -0.524,0.225c-0.225,0 -0.406,-0.075 -0.544,-0.225c-0.137,-0.15 -0.206,-0.325 -0.206,-0.525l0,-11.319c0,-1.699 -0.443,-3.092 -1.33,-4.179c-0.888,-1.087 -2.231,-1.631 -4.03,-1.631c-1.099,0 -2.18,0.263 -3.242,0.788c-1.062,0.524 -1.93,1.236 -2.605,2.136c-0.674,0.899 -1.012,1.861 -1.012,2.886l0,11.319c0,0.2 -0.074,0.375 -0.224,0.525c-0.15,0.15 -0.325,0.225 -0.525,0.225c-0.225,0 -0.406,-0.075 -0.544,-0.225c-0.137,-0.15 -0.206,-0.325 -0.206,-0.525l0,-17.204c0,-0.199 0.075,-0.374 0.225,-0.524c0.15,-0.15 0.325,-0.225 0.525,-0.225c0.225,0 0.406,0.075 0.543,0.225c0.138,0.15 0.206,0.325 0.206,0.524l0,2.512c0.725,-1.125 1.743,-2.049 3.055,-2.774c1.312,-0.724 2.63,-1.087 3.954,-1.087Z" style="fill:#f02;fill-rule:nonzero;"/><path d="M101.254,67.62c0.225,0 0.406,0.075 0.544,0.225c0.137,0.15 0.206,0.325 0.206,0.524l0,16.117c0,1.899 -0.387,3.548 -1.162,4.947c-0.775,1.4 -1.862,2.48 -3.261,3.242c-1.399,0.763 -2.998,1.144 -4.797,1.144c-1,0 -2.012,-0.132 -3.036,-0.394c-1.025,-0.262 -1.868,-0.6 -2.53,-1.012c-0.662,-0.412 -0.993,-0.831 -0.993,-1.255c0,-0.2 0.056,-0.363 0.168,-0.488c0.113,-0.125 0.269,-0.187 0.469,-0.187c0.15,0 0.375,0.125 0.674,0.375c0.35,0.349 0.738,0.612 1.162,0.787c1.225,0.5 2.611,0.749 4.161,0.749c2.348,0 4.21,-0.724 5.584,-2.173c1.375,-1.45 2.062,-3.361 2.062,-5.735l0,-2.586c-0.675,1.599 -1.718,2.798 -3.13,3.598c-1.412,0.8 -2.892,1.199 -4.441,1.199c-1.699,0 -3.242,-0.431 -4.629,-1.293c-1.387,-0.862 -2.474,-2.042 -3.261,-3.542c-0.787,-1.499 -1.181,-3.173 -1.181,-5.022c0,-1.849 0.394,-3.523 1.181,-5.022c0.787,-1.5 1.874,-2.674 3.261,-3.523c1.387,-0.85 2.93,-1.275 4.629,-1.275c1.674,0 3.204,0.444 4.591,1.331c1.387,0.887 2.38,1.955 2.98,3.204l0,-3.186c0,-0.199 0.068,-0.374 0.206,-0.524c0.137,-0.15 0.318,-0.225 0.543,-0.225Zm-8.245,17.653c1.449,0 2.754,-0.356 3.916,-1.068c1.162,-0.712 2.074,-1.705 2.736,-2.98c0.662,-1.274 0.994,-2.736 0.994,-4.385c0,-1.649 -0.332,-3.111 -0.994,-4.385c-0.662,-1.274 -1.574,-2.261 -2.736,-2.961c-1.162,-0.7 -2.467,-1.05 -3.916,-1.05c-1.45,0 -2.755,0.363 -3.917,1.087c-1.162,0.725 -2.074,1.724 -2.736,2.999c-0.662,1.274 -0.993,2.711 -0.993,4.31c0,1.599 0.331,3.036 0.993,4.31c0.662,1.275 1.574,2.28 2.736,3.017c1.162,0.738 2.467,1.106 3.917,1.106Z" style="fill:#f02;fill-rule:nonzero;"/><path d="M121.906,81.825c0.175,0 0.325,0.069 0.45,0.206c0.125,0.137 0.187,0.294 0.187,0.469c0,0.174 -0.05,0.324 -0.15,0.449c-0.824,1.1 -1.849,1.999 -3.073,2.699c-1.225,0.7 -2.536,1.049 -3.936,1.049c-1.874,0 -3.535,-0.399 -4.985,-1.199c-1.449,-0.8 -2.579,-1.936 -3.392,-3.411c-0.812,-1.474 -1.218,-3.186 -1.218,-5.135c0,-1.998 0.394,-3.754 1.181,-5.265c0.787,-1.512 1.83,-2.668 3.13,-3.467c1.299,-0.8 2.686,-1.2 4.16,-1.2c1.474,0 2.842,0.319 4.104,0.956c1.262,0.637 2.293,1.593 3.092,2.867c0.8,1.275 1.224,2.849 1.274,4.723c0,0.2 -0.074,0.381 -0.224,0.543c-0.15,0.163 -0.325,0.244 -0.525,0.244l-14.73,0l0,0.487c0,1.549 0.312,2.967 0.937,4.254c0.625,1.287 1.549,2.305 2.774,3.055c1.224,0.749 2.698,1.124 4.422,1.124c1.2,0 2.33,-0.293 3.392,-0.881c1.062,-0.587 1.893,-1.33 2.493,-2.23c0.175,-0.225 0.387,-0.337 0.637,-0.337Zm-7.646,-13.306c-0.925,0 -1.868,0.244 -2.83,0.731c-0.962,0.488 -1.811,1.212 -2.549,2.174c-0.737,0.962 -1.23,2.13 -1.48,3.505l13.793,0l0,-0.338c-0.125,-1.274 -0.531,-2.367 -1.218,-3.279c-0.687,-0.912 -1.537,-1.606 -2.549,-2.08c-1.012,-0.475 -2.068,-0.713 -3.167,-0.713Z" style="fill:#f02;fill-rule:nonzero;"/><path d="M135.774,67.02c2.223,0 3.898,0.656 5.022,1.968c1.124,1.312 1.687,3.017 1.687,5.116l0,11.469c0,0.2 -0.075,0.375 -0.225,0.525c-0.15,0.15 -0.325,0.225 -0.525,0.225c-0.225,0 -0.406,-0.075 -0.543,-0.225c-0.138,-0.15 -0.207,-0.325 -0.207,-0.525l0,-11.319c0,-1.699 -0.443,-3.092 -1.33,-4.179c-0.887,-1.087 -2.23,-1.631 -4.029,-1.631c-1.1,0 -2.18,0.263 -3.242,0.788c-1.062,0.524 -1.931,1.236 -2.605,2.136c-0.675,0.899 -1.012,1.861 -1.012,2.886l0,11.319c0,0.2 -0.075,0.375 -0.225,0.525c-0.15,0.15 -0.325,0.225 -0.525,0.225c-0.225,0 -0.406,-0.075 -0.543,-0.225c-0.138,-0.15 -0.206,-0.325 -0.206,-0.525l0,-17.204c0,-0.199 0.075,-0.374 0.224,-0.524c0.15,-0.15 0.325,-0.225 0.525,-0.225c0.225,0 0.406,0.075 0.544,0.225c0.137,0.15 0.206,0.325 0.206,0.524l0,2.512c0.724,-1.125 1.743,-2.049 3.054,-2.774c1.312,-0.724 2.63,-1.087 3.955,-1.087Z" style="fill:#f02;fill-rule:nonzero;"/></g><g><path d="M14.88,84.016c0.2,0 0.374,0.075 0.524,0.225c0.15,0.15 0.225,0.325 0.225,0.525c0,0.225 -0.075,0.406 -0.225,0.543c-0.15,0.138 -0.324,0.207 -0.524,0.207l-14.13,0c-0.2,0 -0.375,-0.075 -0.525,-0.225c-0.15,-0.15 -0.225,-0.325 -0.225,-0.525l0,-24.737c0,-0.2 0.075,-0.375 0.225,-0.525c0.15,-0.15 0.325,-0.225 0.525,-0.225l14.13,0c0.2,0 0.374,0.075 0.524,0.225c0.15,0.15 0.225,0.325 0.225,0.525c0,0.225 -0.075,0.406 -0.225,0.543c-0.15,0.138 -0.324,0.207 -0.524,0.207l-13.306,0l0,10.457l11.619,0c0.2,0 0.375,0.074 0.525,0.224c0.15,0.15 0.225,0.325 0.225,0.525c0,0.225 -0.075,0.406 -0.225,0.544c-0.15,0.137 -0.325,0.206 -0.525,0.206l-11.619,0l0,11.281l13.306,0Z" style="fill:#9dfff8;fill-rule:nonzero;"/><path d="M28.71,66.213c1.149,0 1.724,0.288 1.724,0.862c0,0.225 -0.062,0.412 -0.187,0.562c-0.125,0.15 -0.288,0.225 -0.488,0.225c-0.075,0 -0.256,-0.056 -0.543,-0.168c-0.287,-0.113 -0.594,-0.169 -0.918,-0.169c-1.025,0 -2.049,0.406 -3.074,1.218c-1.024,0.812 -1.861,1.837 -2.511,3.073c-0.65,1.237 -0.974,2.43 -0.974,3.58l0,9.37c0,0.2 -0.075,0.375 -0.225,0.525c-0.15,0.15 -0.325,0.225 -0.525,0.225c-0.225,0 -0.406,-0.075 -0.543,-0.225c-0.138,-0.15 -0.207,-0.325 -0.207,-0.525l0,-17.204c0,-0.199 0.075,-0.374 0.225,-0.524c0.15,-0.15 0.325,-0.225 0.525,-0.225c0.225,0 0.406,0.075 0.543,0.225c0.138,0.15 0.207,0.325 0.207,0.524l0,3.973c0.574,-1.524 1.468,-2.786 2.679,-3.785c1.212,-1 2.643,-1.512 4.292,-1.537Z" style="fill:#9dfff8;fill-rule:nonzero;"/><path d="M35.344,84.766c0,0.2 -0.075,0.375 -0.225,0.525c-0.15,0.15 -0.325,0.225 -0.525,0.225c-0.225,0 -0.406,-0.075 -0.543,-0.225c-0.138,-0.15 -0.206,-0.325 -0.206,-0.525l0,-26.236c0,-0.2 0.075,-0.375 0.225,-0.525c0.15,-0.15 0.324,-0.225 0.524,-0.225c0.225,0 0.406,0.075 0.544,0.225c0.137,0.15 0.206,0.325 0.206,0.525l0,26.236Z" style="fill:#9dfff8;fill-rule:nonzero;"/><path d="M56.708,66.813c0.225,0 0.406,0.075 0.543,0.225c0.138,0.15 0.206,0.325 0.206,0.524l0,17.204c0,0.2 -0.075,0.375 -0.225,0.525c-0.15,0.15 -0.324,0.225 -0.524,0.225c-0.225,0 -0.406,-0.075 -0.544,-0.225c-0.137,-0.15 -0.206,-0.325 -0.206,-0.525l0,-3.373c-0.625,1.274 -1.587,2.342 -2.886,3.204c-1.299,0.862 -2.736,1.293 -4.31,1.293c-1.649,0 -3.136,-0.431 -4.46,-1.293c-1.325,-0.862 -2.362,-2.049 -3.111,-3.56c-0.75,-1.512 -1.125,-3.205 -1.125,-5.079c0,-1.849 0.381,-3.517 1.144,-5.004c0.762,-1.486 1.805,-2.648 3.129,-3.485c1.324,-0.837 2.799,-1.256 4.423,-1.256c1.624,0 3.086,0.425 4.385,1.274c1.299,0.85 2.236,1.987 2.811,3.411l0,-3.336c0,-0.199 0.069,-0.374 0.206,-0.524c0.138,-0.15 0.319,-0.225 0.544,-0.225Zm-7.871,17.653c1.374,0 2.617,-0.368 3.729,-1.106c1.112,-0.737 1.98,-1.755 2.605,-3.054c0.625,-1.3 0.937,-2.749 0.937,-4.348c0,-1.524 -0.312,-2.923 -0.937,-4.198c-0.625,-1.274 -1.493,-2.28 -2.605,-3.017c-1.112,-0.737 -2.355,-1.106 -3.729,-1.106c-1.374,0 -2.618,0.356 -3.729,1.069c-1.112,0.712 -1.981,1.699 -2.605,2.961c-0.625,1.261 -0.937,2.692 -0.937,4.291c0,1.599 0.312,3.048 0.937,4.348c0.624,1.299 1.486,2.317 2.586,3.054c1.099,0.738 2.349,1.106 3.748,1.106Z" style="fill:#9dfff8;fill-rule:nonzero;"/><path d="M71.812,66.213c2.224,0 3.898,0.656 5.023,1.968c1.124,1.312 1.686,3.017 1.686,5.116l0,11.469c0,0.2 -0.075,0.375 -0.225,0.525c-0.15,0.15 -0.324,0.225 -0.524,0.225c-0.225,0 -0.406,-0.075 -0.544,-0.225c-0.137,-0.15 -0.206,-0.325 -0.206,-0.525l0,-11.319c0,-1.699 -0.444,-3.092 -1.331,-4.179c-0.887,-1.087 -2.23,-1.631 -4.029,-1.631c-1.099,0 -2.18,0.263 -3.242,0.787c-1.062,0.525 -1.93,1.237 -2.605,2.137c-0.674,0.899 -1.012,1.861 -1.012,2.886l0,11.319c0,0.2 -0.075,0.375 -0.224,0.525c-0.15,0.15 -0.325,0.225 -0.525,0.225c-0.225,0 -0.406,-0.075 -0.544,-0.225c-0.137,-0.15 -0.206,-0.325 -0.206,-0.525l0,-17.204c0,-0.199 0.075,-0.374 0.225,-0.524c0.15,-0.15 0.325,-0.225 0.525,-0.225c0.225,0 0.406,0.075 0.543,0.225c0.138,0.15 0.206,0.325 0.206,0.524l0,2.512c0.725,-1.125 1.743,-2.049 3.055,-2.774c1.312,-0.725 2.63,-1.087 3.954,-1.087Z" style="fill:#9dfff8;fill-rule:nonzero;"/><path d="M100.447,66.813c0.225,0 0.406,0.075 0.544,0.225c0.137,0.15 0.206,0.325 0.206,0.524l0,16.117c0,1.899 -0.387,3.548 -1.162,4.947c-0.775,1.4 -1.862,2.48 -3.261,3.242c-1.399,0.763 -2.998,1.144 -4.797,1.144c-1,0 -2.012,-0.132 -3.036,-0.394c-1.025,-0.262 -1.868,-0.6 -2.53,-1.012c-0.662,-0.412 -0.993,-0.831 -0.993,-1.256c0,-0.199 0.056,-0.362 0.168,-0.487c0.113,-0.125 0.269,-0.187 0.469,-0.187c0.15,0 0.375,0.125 0.674,0.375c0.35,0.349 0.738,0.612 1.162,0.787c1.225,0.499 2.611,0.749 4.161,0.749c2.348,0 4.21,-0.724 5.584,-2.174c1.374,-1.449 2.062,-3.36 2.062,-5.734l0,-2.586c-0.675,1.599 -1.718,2.798 -3.13,3.598c-1.412,0.8 -2.892,1.199 -4.441,1.199c-1.7,0 -3.242,-0.431 -4.629,-1.293c-1.387,-0.862 -2.474,-2.042 -3.261,-3.542c-0.787,-1.499 -1.181,-3.173 -1.181,-5.022c0,-1.849 0.394,-3.523 1.181,-5.022c0.787,-1.5 1.874,-2.674 3.261,-3.524c1.387,-0.849 2.929,-1.274 4.629,-1.274c1.674,0 3.204,0.444 4.591,1.331c1.387,0.887 2.38,1.955 2.98,3.204l0,-3.186c0,-0.199 0.068,-0.374 0.206,-0.524c0.137,-0.15 0.318,-0.225 0.543,-0.225Zm-8.245,17.653c1.449,0 2.754,-0.356 3.916,-1.068c1.162,-0.712 2.074,-1.705 2.736,-2.98c0.662,-1.274 0.994,-2.736 0.994,-4.385c0,-1.649 -0.332,-3.111 -0.994,-4.385c-0.662,-1.275 -1.574,-2.262 -2.736,-2.961c-1.162,-0.7 -2.467,-1.05 -3.916,-1.05c-1.45,0 -2.755,0.363 -3.917,1.087c-1.162,0.725 -2.074,1.724 -2.736,2.999c-0.662,1.274 -0.993,2.711 -0.993,4.31c0,1.599 0.331,3.036 0.993,4.31c0.662,1.275 1.574,2.28 2.736,3.017c1.162,0.738 2.467,1.106 3.917,1.106Z" style="fill:#9dfff8;fill-rule:nonzero;"/><path d="M121.099,81.018c0.175,0 0.325,0.069 0.45,0.206c0.125,0.137 0.187,0.294 0.187,0.469c0,0.174 -0.05,0.324 -0.15,0.449c-0.824,1.1 -1.849,1.999 -3.073,2.699c-1.225,0.699 -2.536,1.049 -3.936,1.049c-1.874,0 -3.535,-0.399 -4.985,-1.199c-1.449,-0.8 -2.579,-1.937 -3.392,-3.411c-0.812,-1.474 -1.218,-3.186 -1.218,-5.135c0,-1.999 0.394,-3.754 1.181,-5.266c0.787,-1.511 1.83,-2.667 3.13,-3.466c1.299,-0.8 2.686,-1.2 4.16,-1.2c1.474,0 2.842,0.319 4.104,0.956c1.262,0.637 2.293,1.593 3.092,2.867c0.8,1.274 1.224,2.849 1.274,4.723c0,0.2 -0.075,0.381 -0.224,0.543c-0.15,0.163 -0.325,0.244 -0.525,0.244l-14.73,0l0,0.487c0,1.549 0.312,2.967 0.937,4.254c0.625,1.287 1.549,2.305 2.774,3.055c1.224,0.749 2.698,1.124 4.422,1.124c1.2,0 2.33,-0.294 3.392,-0.881c1.062,-0.587 1.893,-1.33 2.493,-2.23c0.175,-0.225 0.387,-0.337 0.637,-0.337Zm-7.646,-13.306c-0.925,0 -1.868,0.244 -2.83,0.731c-0.962,0.487 -1.811,1.212 -2.549,2.174c-0.737,0.962 -1.23,2.13 -1.48,3.504l13.793,0l0,-0.337c-0.125,-1.274 -0.531,-2.367 -1.218,-3.279c-0.688,-0.912 -1.537,-1.606 -2.549,-2.081c-1.012,-0.474 -2.068,-0.712 -3.167,-0.712Z" style="fill:#9dfff8;fill-rule:nonzero;"/><path d="M134.967,66.213c2.223,0 3.898,0.656 5.022,1.968c1.124,1.312 1.687,3.017 1.687,5.116l0,11.469c0,0.2 -0.075,0.375 -0.225,0.525c-0.15,0.15 -0.325,0.225 -0.525,0.225c-0.225,0 -0.406,-0.075 -0.544,-0.225c-0.137,-0.15 -0.206,-0.325 -0.206,-0.525l0,-11.319c0,-1.699 -0.443,-3.092 -1.33,-4.179c-0.887,-1.087 -2.23,-1.631 -4.029,-1.631c-1.1,0 -2.18,0.263 -3.242,0.787c-1.062,0.525 -1.931,1.237 -2.605,2.137c-0.675,0.899 -1.012,1.861 -1.012,2.886l0,11.319c0,0.2 -0.075,0.375 -0.225,0.525c-0.15,0.15 -0.325,0.225 -0.525,0.225c-0.225,0 -0.406,-0.075 -0.543,-0.225c-0.138,-0.15 -0.206,-0.325 -0.206,-0.525l0,-17.204c0,-0.199 0.074,-0.374 0.224,-0.524c0.15,-0.15 0.325,-0.225 0.525,-0.225c0.225,0 0.406,0.075 0.544,0.225c0.137,0.15 0.206,0.325 0.206,0.524l0,2.512c0.724,-1.125 1.743,-2.049 3.054,-2.774c1.312,-0.725 2.63,-1.087 3.955,-1.087Z" style="fill:#9dfff8;fill-rule:nonzero;"/></g></svg>