<?xml version="1.0" encoding="UTF-8" standalone="no"?><!DOCTYPE svg PUBLIC "-//W3C//DTD SVG 1.1//EN" "http://www.w3.org/Graphics/SVG/1.1/DTD/svg11.dtd"><svg width="100%" height="100%" viewBox="0 0 422 527" version="1.1" xmlns="http://www.w3.org/2000/svg" xmlns:xlink="http://www.w3.org/1999/xlink" xml:space="preserve" xmlns:serif="http://www.serif.com/" style="fill-rule:evenodd;clip-rule:evenodd;stroke-linecap:round;stroke-linejoin:round;stroke-miterlimit:1.5;"><path d="M421.219,0l-265.697,0l-152.391,60.309l0,17.03l152.391,-60.309l265.697,0l0,-17.03Z" style="fill:#35241a;"/><path d="M0,424.926l95.067,-37.623l265.697,0l-95.068,37.623l-265.696,0Z" style="fill:#757167;"/><path d="M3.131,205.279l265.697,0l152.391,-60.309l0,-144.97" style="fill:#94e4aa;"/><path d="M3.131,77.339l152.391,-60.309l265.697,0l-152.391,60.309l-265.697,0Z" style="fill:#d5d5d5;"/><rect x="3.131" y="60.309" width="265.696" height="144.97" style="fill:#805238;"/><g><path d="M75.187,136.505l15.06,0l1.436,-2.121l-17.932,0l1.436,2.121Z" style="fill:#b7b7b7;"/><path d="M82.717,145.731l6.386,-8.039l-12.772,0l6.386,8.039Z" style="fill:#b7b7b7;"/></g><path d="M51.965,81.492l0,10.298" style="fill:none;stroke:#b7b7b7;stroke-width:2px;"/><path d="M421.219,0l0,144.97l-152.391,60.309l0,-144.97l152.391,-60.309Z" style="fill:#35241a;"/><path d="M95.067,387.303l265.697,0l0,-218.407l-91.936,36.383l-173.761,0l0,182.024Z" style="fill:#615a51;"/><rect x="0" y="424.926" width="265.696" height="101.923" style="fill:#202221;"/><path d="M265.696,526.85l155.523,-61.548l0,-320.332l-60.455,23.926l0,218.407l-95.068,37.623l0,101.924Z" style="fill:#35241a;"/><path d="M3.131,156.767l265.697,0" style="fill:none;"/><path d="M3.131,185.427l265.697,0l65.375,-25.873l0,-31.232l-65.375,25.872l-265.697,0" style="fill:#130e00;stroke:#b9b6ac;stroke-width:5.5px;stroke-linecap:butt;"/><g><path d="M83.953,110.842l0,-17.841c0,-3.511 -2.85,-6.36 -6.36,-6.36l-17.841,0" style="fill:none;stroke:#b7b7b7;stroke-width:1.4px;stroke-linecap:butt;"/><path d="M19.978,110.842l0,-17.841c0,-3.511 2.85,-6.36 6.36,-6.36l17.841,0" style="fill:none;stroke:#b7b7b7;stroke-width:1.4px;stroke-linecap:butt;"/></g><ellipse cx="19.978" cy="123.241" rx="4.663" ry="6.178" style="fill:none;stroke:#b7b7b7;stroke-width:2px;stroke-linecap:butt;"/><path d="M75.004,117.018c0.563,8.239 2.815,12.034 5.506,12.522l4.413,0c2.691,-0.488 4.944,-4.283 5.506,-12.522l-15.425,0" style="fill:none;stroke:#b7b7b7;stroke-width:2px;"/><path d="M89.694,122.939c1.592,2.209 5.744,2.726 4.865,-2.527c-0.56,-3.348 -4.291,-0.621 -4.291,-0.621" style="fill:none;stroke:#b7b7b7;stroke-width:2px;"/><g><rect x="43.98" y="98.906" width="10.516" height="37.255"/><circle cx="49.237" cy="104.316" r="3.549" style="fill:#b7b7b7;"/><path d="M43.98,98.906l15.441,-1.949l-10.516,0l-4.925,1.949Z" style="fill:#39322d;"/><path d="M54.495,98.906l0,37.255l4.926,-1.95l0,-37.254l-15.441,1.949l10.515,0" style="fill:#39322d;"/></g><g id="XMLID_2_"><g id="XMLID_3109_"><path id="XMLID_3113_" d="M255.72,459.816c0,-0.469 0,-0.94 -0.006,-1.409c-0.036,-1.026 -0.096,-2.051 -0.284,-3.064c-0.173,-1.025 -0.478,-1.982 -0.948,-2.913c-0.472,-0.916 -1.079,-1.756 -1.808,-2.48c-0.723,-0.725 -1.56,-1.335 -2.474,-1.804c-0.942,-0.474 -1.895,-0.78 -2.921,-0.96c-1.007,-0.182 -2.035,-0.245 -3.06,-0.27c-0.466,-0.007 -0.945,-0.017 -1.411,-0.019c-0.55,-0.003 -1.649,-0.003 -2.199,-0.003l-216.054,0c-0.561,0 -1.115,0 -1.675,0.003c-0.468,0.002 -0.933,0.012 -1.406,0.019c-1.019,0.025 -2.05,0.088 -3.067,0.27c-1.024,0.18 -1.976,0.486 -2.909,0.96c-0.916,0.469 -1.753,1.079 -2.477,1.804c-0.732,0.724 -1.339,1.564 -1.803,2.48c-0.476,0.931 -0.778,1.888 -0.956,2.913c-0.185,1.013 -0.248,2.038 -0.274,3.064c-0.015,0.469 -0.016,0.94 -0.023,1.409l0,35.371c0.007,0.476 0.008,0.936 0.023,1.411c0.026,1.025 0.089,2.051 0.274,3.064c0.178,1.025 0.48,1.986 0.956,2.914c0.464,0.912 1.071,1.752 1.803,2.47c0.724,0.731 1.561,1.339 2.477,1.804c0.933,0.478 1.885,0.78 2.909,0.965c1.017,0.183 2.048,0.243 3.067,0.271c0.473,0.01 0.938,0.016 1.406,0.016c0.56,0.003 1.114,0.003 1.675,0.003l216.054,0c0.55,0 1.649,0 2.199,-0.003c0.466,0 0.945,-0.006 1.411,-0.016c1.025,-0.028 2.053,-0.088 3.06,-0.271c1.026,-0.185 1.979,-0.487 2.921,-0.965c0.914,-0.465 1.751,-1.073 2.474,-1.804c0.729,-0.718 1.336,-1.558 1.808,-2.47c0.47,-0.928 0.775,-1.889 0.948,-2.914c0.188,-1.013 0.248,-2.039 0.284,-3.064c0.006,-0.475 0.006,-0.935 0.006,-1.411c0.012,-0.556 0.012,-1.108 0.012,-1.673l0,-32.027c0,-0.561 0,-1.117 -0.012,-1.671Z" style="fill:#fff;fill-rule:nonzero;stroke:#fff;stroke-width:0.8px;stroke-linecap:butt;stroke-miterlimit:1.41421;"/><path id="XMLID_3110_" d="M240.609,448.153c0.549,0 1.644,0 2.191,0.003c0.375,0.003 0.757,0.009 1.135,0.015l0.253,0.004c0.799,0.02 1.847,0.066 2.874,0.252c0.922,0.161 1.763,0.438 2.562,0.84c0.801,0.41 1.527,0.939 2.162,1.576c0.627,0.623 1.158,1.352 1.572,2.154c0.403,0.801 0.674,1.637 0.834,2.576c0.176,0.948 0.23,1.944 0.262,2.849c0.006,0.465 0.006,0.93 0.006,1.421c0.012,0.545 0.012,1.092 0.012,1.644l0,32.027c0,0.555 0,1.099 -0.012,1.673c0,0.47 0,0.926 -0.005,1.367c-0.033,0.934 -0.087,1.929 -0.267,2.898c-0.156,0.925 -0.428,1.761 -0.824,2.545c-0.422,0.815 -0.952,1.539 -1.585,2.163c-0.627,0.633 -1.35,1.16 -2.15,1.567c-0.8,0.407 -1.618,0.676 -2.574,0.849c-0.985,0.178 -2.004,0.227 -2.864,0.251c-0.457,0.01 -0.926,0.016 -1.39,0.016c-0.548,0.003 -1.644,0.003 -2.192,0.003l-216.054,0c-0.558,0 -1.111,0 -1.675,-0.003c-0.459,0 -0.915,-0.006 -1.371,-0.016c-0.865,-0.024 -1.884,-0.073 -2.878,-0.251c-0.942,-0.171 -1.779,-0.448 -2.563,-0.849c-0.8,-0.406 -1.524,-0.933 -2.164,-1.58c-0.626,-0.614 -1.152,-1.335 -1.565,-2.146c-0.398,-0.777 -0.672,-1.613 -0.838,-2.565c-0.186,-1.024 -0.234,-2.072 -0.254,-2.875c-0.01,-0.318 -0.013,-0.628 -0.017,-0.941l-0.006,-0.433l0,-1.673l0,-32.027l0,-1.651l0.006,-0.456c0.004,-0.312 0.007,-0.624 0.017,-0.941c0.02,-0.798 0.068,-1.846 0.256,-2.88c0.163,-0.937 0.437,-1.773 0.839,-2.559c0.408,-0.806 0.935,-1.531 1.571,-2.16c0.633,-0.634 1.36,-1.163 2.156,-1.571c0.797,-0.405 1.633,-0.68 2.561,-0.843c1.03,-0.184 2.078,-0.231 2.864,-0.25l0.306,-0.005c0.364,-0.007 0.725,-0.013 1.087,-0.015l1.668,-0.003l216.054,0m0,-1.259l-216.054,0c-0.561,0 -1.115,0 -1.675,0.003c-0.468,0.003 -0.933,0.012 -1.406,0.019c-1.019,0.025 -2.05,0.088 -3.067,0.271c-1.024,0.179 -1.976,0.485 -2.909,0.959c-0.916,0.469 -1.753,1.079 -2.477,1.804c-0.732,0.724 -1.339,1.564 -1.803,2.48c-0.476,0.931 -0.778,1.888 -0.956,2.913c-0.185,1.013 -0.248,2.038 -0.274,3.064c-0.015,0.469 -0.016,0.94 -0.023,1.409l0,35.371c0.007,0.476 0.008,0.936 0.023,1.411c0.026,1.025 0.089,2.051 0.274,3.064c0.178,1.025 0.48,1.986 0.956,2.914c0.464,0.912 1.071,1.752 1.803,2.47c0.724,0.731 1.561,1.339 2.477,1.804c0.933,0.478 1.885,0.78 2.909,0.965c1.017,0.183 2.048,0.243 3.067,0.271c0.473,0.01 0.938,0.016 1.406,0.016c0.56,0.003 1.114,0.003 1.675,0.003l216.054,0c0.55,0 1.649,0 2.199,-0.003c0.466,0 0.945,-0.006 1.411,-0.016c1.025,-0.028 2.053,-0.088 3.06,-0.271c1.026,-0.185 1.979,-0.487 2.921,-0.965c0.914,-0.465 1.751,-1.073 2.474,-1.804c0.729,-0.718 1.336,-1.558 1.808,-2.47c0.47,-0.928 0.775,-1.889 0.948,-2.914c0.188,-1.013 0.248,-2.039 0.284,-3.064c0.006,-0.475 0.006,-0.935 0.006,-1.411c0.012,-0.555 0.012,-1.108 0.012,-1.673l0,-32.027c0,-0.561 0,-1.117 -0.012,-1.671c0,-0.469 0,-0.94 -0.006,-1.409c-0.036,-1.026 -0.096,-2.051 -0.284,-3.064c-0.173,-1.025 -0.478,-1.982 -0.948,-2.913c-0.472,-0.916 -1.079,-1.756 -1.808,-2.48c-0.723,-0.725 -1.56,-1.335 -2.474,-1.804c-0.942,-0.474 -1.895,-0.78 -2.921,-0.959c-1.007,-0.183 -2.035,-0.246 -3.06,-0.271c-0.466,-0.007 -0.945,-0.016 -1.411,-0.019c-0.55,-0.003 -1.649,-0.003 -2.199,-0.003Z" style="fill-rule:nonzero;"/></g><g id="XMLID_3107_"><path d="M80.41,489.489l-7.249,0l-1.74,5.14l-3.071,0l6.867,-19.017l3.189,0l6.867,19.017l-3.124,0l-1.739,-5.14Zm-6.498,-2.372l5.746,0l-2.833,-8.342l-0.08,0l-2.833,8.342Z" style="fill-rule:nonzero;"/><path d="M100.087,487.697c0,4.31 -2.306,7.076 -5.786,7.076c-1.977,0 -3.545,-0.882 -4.362,-2.425l-0.066,0l0,6.868l-2.847,0l0,-18.452l2.754,0l0,2.306l0.053,0c0.791,-1.489 2.478,-2.45 4.415,-2.45c3.519,0 5.839,2.78 5.839,7.077Zm-2.926,0c0,-2.807 -1.45,-4.652 -3.664,-4.652c-2.175,0 -3.637,1.884 -3.637,4.652c0,2.794 1.462,4.665 3.637,4.665c2.214,0 3.664,-1.831 3.664,-4.665Z" style="fill-rule:nonzero;"/><path d="M115.336,487.697c0,4.31 -2.306,7.076 -5.786,7.076c-1.977,0 -3.545,-0.882 -4.362,-2.425l-0.066,0l0,6.868l-2.847,0l0,-18.452l2.755,0l0,2.306l0.052,0c0.791,-1.489 2.478,-2.45 4.416,-2.45c3.519,0 5.838,2.78 5.838,7.077Zm-2.926,0c0,-2.807 -1.449,-4.652 -3.664,-4.652c-2.174,0 -3.637,1.884 -3.637,4.652c0,2.794 1.463,4.665 3.637,4.665c2.215,0 3.664,-1.831 3.664,-4.665Z" style="fill-rule:nonzero;"/><rect x="117.63" y="475.612" width="2.847" height="19.018" style="fill-rule:nonzero;"/><path d="M135.291,490.556c-0.382,2.518 -2.834,4.246 -5.971,4.246c-4.033,0 -6.537,-2.703 -6.537,-7.04c0,-4.348 2.517,-7.17 6.419,-7.17c3.835,0 6.247,2.636 6.247,6.841l0,0.975l-9.793,0l0,0.173c0,2.372 1.49,3.926 3.73,3.926c1.582,0 2.821,-0.751 3.203,-1.951l2.702,0Zm-9.622,-4.137l6.933,0c-0.066,-2.123 -1.423,-3.52 -3.4,-3.52c-1.964,0 -3.388,1.424 -3.533,3.52Z" style="fill-rule:nonzero;"/><path d="M156.181,494.629l0,-8.421l-9.766,0l0,8.421l-2.952,0l0,-19.017l2.952,0l0,8.038l9.766,0l0,-8.038l2.952,0l0,19.017l-2.952,0l0,0Z" style="fill-rule:nonzero;"/><path d="M161.664,487.697c0,-4.364 2.571,-7.105 6.577,-7.105c4.019,0 6.576,2.741 6.576,7.105c0,4.375 -2.542,7.105 -6.576,7.105c-4.033,0 -6.577,-2.73 -6.577,-7.105Zm10.254,0c0,-2.993 -1.371,-4.757 -3.677,-4.757c-2.307,0 -3.678,1.778 -3.678,4.757c0,3.005 1.371,4.757 3.678,4.757c2.306,0 3.677,-1.752 3.677,-4.757Z" style="fill-rule:nonzero;"/><path d="M177.019,480.764l2.715,0l0,2.372l0.065,0c0.621,-1.567 2.123,-2.53 3.942,-2.53c1.924,0 3.321,0.988 3.875,2.715l0.065,0c0.712,-1.687 2.346,-2.715 4.323,-2.715c2.741,0 4.534,1.819 4.534,4.587l0,9.436l-2.859,0l0,-8.765c0,-1.779 -0.963,-2.807 -2.65,-2.807c-1.687,0 -2.859,1.239 -2.859,2.993l0,8.579l-2.795,0l0,-8.962c0,-1.596 -1.015,-2.61 -2.623,-2.61c-1.687,0 -2.886,1.306 -2.886,3.099l0,8.473l-2.847,0l0,-13.865l0,0Z" style="fill-rule:nonzero;"/><path d="M211.168,490.556c-0.382,2.518 -2.833,4.246 -5.97,4.246c-4.033,0 -6.537,-2.703 -6.537,-7.04c0,-4.348 2.516,-7.17 6.417,-7.17c3.837,0 6.248,2.636 6.248,6.841l0,0.975l-9.792,0l0,0.173c0,2.372 1.488,3.926 3.729,3.926c1.582,0 2.821,-0.751 3.204,-1.951l2.701,0Zm-9.622,-4.137l6.933,0c-0.065,-2.123 -1.424,-3.52 -3.401,-3.52c-1.962,0 -3.386,1.424 -3.532,3.52Z" style="fill-rule:nonzero;"/><path d="M213.87,494.629l0,-19.017l2.953,0l0,9.053l0.117,0l7.949,-9.053l3.506,0l-7.539,8.421l8.171,10.596l-3.664,0l-6.59,-8.567l-1.95,2.227l0,6.34l-2.953,0Z" style="fill-rule:nonzero;"/><path d="M230.437,477.112c0,-0.908 0.738,-1.634 1.648,-1.634c0.923,0 1.661,0.726 1.661,1.634c0,0.897 -0.738,1.622 -1.661,1.622c-0.91,0 -1.648,-0.725 -1.648,-1.622Zm0.225,3.652l2.846,0l0,13.865l-2.846,0l0,-13.865Z" style="fill-rule:nonzero;"/><path d="M240.111,477.481l0,3.283l2.636,0l0,2.253l-2.636,0l0,7.644c0,1.188 0.527,1.74 1.687,1.74c0.29,0 0.752,-0.039 0.936,-0.065l0,2.241c-0.316,0.079 -0.949,0.131 -1.581,0.131c-2.808,0 -3.901,-1.054 -3.901,-3.743l0,-7.948l-2.018,0l0,-2.253l2.018,0l0,-3.283l2.859,0Z" style="fill-rule:nonzero;"/></g><g><path d="M71.747,469.467l-1.339,0l-2.457,-9.113l1.471,0l1.675,6.979l0.087,0l1.902,-6.979l1.313,0l1.913,6.979l0.09,0l1.666,-6.979l1.473,0l-2.464,9.113l-1.332,0l-1.958,-6.688l-0.09,0l-1.95,6.688Z" style="fill-rule:nonzero;"/><path d="M80.286,466.025c0,-2.216 1.239,-3.568 3.247,-3.568c2.002,0 3.239,1.352 3.239,3.568c0,2.23 -1.232,3.575 -3.239,3.575c-2.015,0 -3.247,-1.345 -3.247,-3.575Zm5.091,0c0,-1.49 -0.67,-2.361 -1.844,-2.361c-1.183,0 -1.845,0.871 -1.845,2.361c0,1.503 0.662,2.368 1.845,2.368c1.174,0 1.844,-0.871 1.844,-2.368Z" style="fill-rule:nonzero;"/><path d="M88.608,462.59l1.308,0l0,1.054l0.102,0c0.195,-0.675 0.959,-1.168 1.855,-1.168c0.203,0 0.463,0.019 0.607,0.057l0,1.339c-0.113,-0.038 -0.517,-0.083 -0.758,-0.083c-1.03,0 -1.755,0.651 -1.755,1.617l0,4.061l-1.359,0l0,-6.877l0,0Z" style="fill-rule:nonzero;"/><path d="M98.249,462.59l1.603,0l-2.83,2.949l3.019,3.928l-1.667,0l-2.362,-3.031l-0.599,0.568l0,2.463l-1.359,0l0,-9.561l1.359,0l0,5.551l0.107,0l2.729,-2.867Z" style="fill-rule:nonzero;"/><path d="M103.741,462.457c1.546,0 2.557,0.72 2.69,1.932l-1.302,0c-0.127,-0.505 -0.619,-0.826 -1.388,-0.826c-0.76,0 -1.334,0.359 -1.334,0.896c0,0.411 0.348,0.669 1.093,0.84l1.144,0.265c1.307,0.303 1.919,0.866 1.919,1.876c0,1.294 -1.206,2.16 -2.849,2.16c-1.634,0 -2.703,-0.739 -2.822,-1.958l1.358,0c0.171,0.531 0.675,0.859 1.496,0.859c0.847,0 1.446,-0.379 1.446,-0.928c0,-0.411 -0.321,-0.676 -1.01,-0.84l-1.201,-0.278c-1.305,-0.31 -1.912,-0.897 -1.912,-1.92c0,-1.219 1.118,-2.078 2.672,-2.078Z" style="fill-rule:nonzero;"/><path d="M119.209,469.467l-1.408,0l-1.422,-5.064l-0.107,0l-1.415,5.064l-1.395,0l-1.894,-6.877l1.376,0l1.232,5.248l0.102,0l1.414,-5.248l1.301,0l1.414,5.248l0.107,0l1.225,-5.248l1.359,0l-1.889,6.877Z" style="fill-rule:nonzero;"/><path d="M122.535,460.556c0,-0.474 0.373,-0.833 0.877,-0.833c0.506,0 0.879,0.359 0.879,0.833c0,0.467 -0.373,0.827 -0.879,0.827c-0.504,0 -0.877,-0.36 -0.877,-0.827Zm0.202,2.034l1.352,0l0,6.877l-1.352,0l0,-6.877Z" style="fill-rule:nonzero;"/><path d="M128.122,460.878l0,1.743l1.49,0l0,1.144l-1.49,0l0,3.536c0,0.72 0.297,1.035 0.973,1.035c0.208,0 0.327,-0.012 0.517,-0.03l0,1.13c-0.22,0.037 -0.473,0.069 -0.738,0.069c-1.51,0 -2.109,-0.531 -2.109,-1.857l0,-3.883l-1.093,0l0,-1.144l1.093,0l0,-1.743l1.357,0Z" style="fill-rule:nonzero;"/><path d="M131.476,459.906l1.347,0l0,3.789l0.107,0c0.334,-0.77 1.061,-1.232 2.096,-1.232c1.466,0 2.369,0.929 2.369,2.564l0,4.44l-1.358,0l0,-4.105c0,-1.098 -0.512,-1.654 -1.471,-1.654c-1.113,0 -1.731,0.701 -1.731,1.743l0,4.016l-1.359,0l0,-9.561Z" style="fill-rule:nonzero;"/></g><g id="XMLID_275_"><path id="XMLID_286_" d="M59.634,473.26c-0.168,-0.132 -1.628,-1.285 -3.658,-2.888l0,0l0,-6.56c0,-0.446 -0.176,-0.573 -0.492,-0.573l-3.343,0c-0.365,0 -0.588,0.072 -0.588,0.573l0,3.067l-0.001,0c-4.832,-3.816 -10.073,-7.955 -10.272,-8.112c-0.396,-0.313 -0.641,-0.395 -0.923,-0.395c-0.279,0 -0.526,0.082 -0.923,0.395c-0.396,0.313 -17.826,14.077 -18.353,14.493c-0.644,0.508 -0.462,1.24 0.253,1.24c0.509,0 3.404,0 3.404,0c0,0 0,17.447 0,18.465c0,1.193 0.477,1.67 1.613,1.67l28.013,0c1.135,0 1.612,-0.477 1.612,-1.67c0,-1.018 0,-18.465 0,-18.465c0,0 2.895,0 3.404,0c0.716,0 0.897,-0.732 0.254,-1.24Zm-6.52,17.114c0,0.826 -0.425,1.398 -1.286,1.398c-0.862,0 -11.471,0 -11.471,0c0,0 -10.609,0 -11.47,0c-0.862,0 -1.286,-0.572 -1.286,-1.398c0,-0.683 0,-16.471 0,-17.258c0,-1.002 0.438,-1.642 0.938,-2.037c0.501,-0.395 10.74,-8.48 11.031,-8.711c0.292,-0.23 0.542,-0.33 0.787,-0.33c0.238,0 0.495,0.1 0.787,0.33c0.292,0.231 10.531,8.316 11.031,8.711c0.501,0.395 0.939,1.035 0.939,2.037c0,0.787 0,16.575 0,17.258Z" style="fill:#f79918;fill-rule:nonzero;"/><path id="XMLID_283_" d="M52.175,471.079c-0.5,-0.395 -10.739,-8.48 -11.031,-8.711c-0.292,-0.23 -0.549,-0.33 -0.787,-0.33c-0.245,0 -0.495,0.1 -0.787,0.33c-0.291,0.231 -10.53,8.316 -11.031,8.711c-0.5,0.395 -0.938,1.035 -0.938,2.037c0,0.787 0,16.575 0,17.258c0,0.826 0.424,1.398 1.286,1.398l22.941,0c0.861,0 1.286,-0.572 1.286,-1.398c0,-0.683 0,-16.471 0,-17.258c0,-1.002 -0.438,-1.642 -0.939,-2.037Zm-1.924,16.704c0,0.768 -0.434,1.126 -1.074,1.126c-0.639,0 -8.82,0 -8.82,0c0,0 -8.18,0 -8.82,0c-0.639,0 -1.073,-0.358 -1.073,-1.126c0,-0.53 0,-12.782 0,-13.476c0,-0.746 0.175,-1.175 0.704,-1.595c0.299,-0.237 8.324,-6.573 8.538,-6.743c0.215,-0.169 0.444,-0.257 0.651,-0.257c0.206,0 0.436,0.088 0.651,0.257c0.215,0.17 8.239,6.506 8.538,6.743c0.53,0.42 0.705,0.849 0.705,1.595c0,0.694 0,12.946 0,13.476Z" style="fill:#faac28;fill-rule:nonzero;"/><path id="XMLID_280_" d="M49.546,472.712c-0.299,-0.237 -8.323,-6.573 -8.538,-6.743c-0.215,-0.169 -0.445,-0.257 -0.651,-0.257c-0.207,0 -0.436,0.088 -0.651,0.257c-0.214,0.17 -8.239,6.506 -8.538,6.743c-0.529,0.42 -0.704,0.849 -0.704,1.595c0,0.694 0,12.946 0,13.476c0,0.768 0.434,1.126 1.073,1.126l17.64,0c0.64,0 1.074,-0.358 1.074,-1.126c0,-0.53 0,-12.782 0,-13.476c0,-0.746 -0.175,-1.175 -0.705,-1.595Zm-2.158,12.48c0,0.616 -0.342,0.854 -0.811,0.854c-0.469,0 -6.22,0 -6.22,0c0,0 -5.751,0 -6.219,0c-0.469,0 -0.811,-0.238 -0.811,-0.854c0,-0.378 0,-9.261 0,-9.694c0,-0.432 0,-0.776 0.47,-1.153c0.31,-0.249 5.879,-4.643 6.046,-4.774c0.166,-0.132 0.33,-0.201 0.514,-0.201c0.174,0 0.348,0.069 0.515,0.201c0.167,0.131 5.735,4.525 6.045,4.774c0.471,0.377 0.471,0.721 0.471,1.153c0,0.433 0,9.316 0,9.694Z" style="fill:#fdbf47;fill-rule:nonzero;"/><path id="XMLID_277_" d="M46.917,474.345c-0.31,-0.249 -5.878,-4.643 -6.045,-4.774c-0.167,-0.132 -0.341,-0.201 -0.515,-0.201c-0.184,0 -0.348,0.069 -0.514,0.201c-0.167,0.131 -5.736,4.525 -6.046,4.774c-0.47,0.377 -0.47,0.721 -0.47,1.153c0,0.433 0,9.316 0,9.694c0,0.616 0.342,0.854 0.811,0.854l12.439,0c0.469,0 0.811,-0.238 0.811,-0.854c0,-0.378 0,-9.261 0,-9.694c0,-0.432 0,-0.776 -0.471,-1.153Zm-2.392,8.256c0,0.475 -0.238,0.583 -0.572,0.583c-0.22,0 -3.596,0 -3.596,0c0,0 -3.375,0 -3.595,0c-0.334,0 -0.573,-0.108 -0.573,-0.583c0,-0.309 0,-5.596 0,-5.911c0,-0.315 0.132,-0.64 0.408,-0.864c0.146,-0.119 3.27,-2.566 3.382,-2.654c0.112,-0.089 0.278,-0.138 0.378,-0.138c0.1,0 0.267,0.049 0.379,0.138c0.112,0.088 3.235,2.535 3.382,2.654c0.276,0.224 0.407,0.549 0.407,0.864c0,0.315 0,5.602 0,5.911Z" style="fill:#ffd364;fill-rule:nonzero;"/><path id="XMLID_276_" d="M40.357,483.184c0,0 3.376,0 3.596,0c0.334,0 0.572,-0.108 0.572,-0.583c0,-0.309 0,-5.596 0,-5.911c0,-0.315 -0.131,-0.64 -0.407,-0.864c-0.147,-0.119 -3.27,-2.566 -3.382,-2.654c-0.112,-0.089 -0.279,-0.138 -0.379,-0.138c-0.1,0 -0.266,0.049 -0.378,0.138c-0.112,0.088 -3.236,2.535 -3.382,2.654c-0.276,0.224 -0.408,0.549 -0.408,0.864c0,0.315 0,5.602 0,5.911c0,0.475 0.239,0.583 0.573,0.583c0.22,0 3.595,0 3.595,0Z" style="fill:#fff080;fill-rule:nonzero;"/></g></g></svg>