<?xml version="1.0" encoding="UTF-8" standalone="no"?><!DOCTYPE svg PUBLIC "-//W3C//DTD SVG 1.1//EN" "http://www.w3.org/Graphics/SVG/1.1/DTD/svg11.dtd"><svg width="100%" height="100%" viewBox="0 0 652 941" version="1.1" xmlns="http://www.w3.org/2000/svg" xmlns:xlink="http://www.w3.org/1999/xlink" xml:space="preserve" xmlns:serif="http://www.serif.com/" style="fill-rule:evenodd;clip-rule:evenodd;stroke-linecap:round;stroke-linejoin:round;stroke-miterlimit:1.5;"><path d="M641.498,76.063l-104.053,0l-52.626,44.707l125.209,49.934l31.47,-94.641Z" style="fill:#faffd8;stroke:#1d1e18;stroke-width:4.54px;"/><path d="M537.445,95.687c0,0 8.341,-75.907 0,-85.448c-9.317,-10.655 -402.918,-10.595 -417.215,0c-10.066,7.46 -9.373,96.225 -9.373,96.225" style="fill:#faffd8;stroke:#1d1e18;stroke-width:4.54px;"/><path d="M537.445,95.687l-109.876,252.215l-415.739,-61.173c0,0 77.169,-156.016 99.027,-180.265c21.858,-24.249 426.588,-10.777 426.588,-10.777Z" style="fill:#fcde9c;stroke:#1d1e18;stroke-width:4.54px;"/><path d="M641.5,76.063l-78.665,157.665c0,0 -114.778,51.033 -116.461,51.745c-1.684,0.712 62.253,-159.678 84.111,-183.927c21.858,-24.249 111.015,-25.483 111.015,-25.483Z" style="fill:#faffd8;stroke:#1d1e18;stroke-width:4.54px;"/><path d="M11.83,286.729c-6.453,10.806 -9.099,100.052 -9.504,208.657c-0.679,182.358 4.96,419.297 9.504,431.131c7.25,18.882 411.077,10.502 434.544,0c26.787,-11.986 194.42,-156.273 199.712,-190.031c5.291,-33.757 5.57,-620.78 -4.544,-660.39c-0.756,-2.959 -144.274,191.11 -197.505,210.337c-53.231,19.227 -430.847,-1.981 -432.207,0.296Z" style="fill:#fcde9c;stroke:#1d1e18;stroke-width:4.54px;"/><path d="M11.83,286.729c-6.453,10.806 -9.56,165.287 -9.56,165.287l444.104,0c0,0 194.42,318.228 199.712,284.47c5.291,-33.757 5.57,-620.78 -4.544,-660.39c-0.756,-2.959 -144.274,191.11 -197.505,210.337c-53.231,19.227 -430.847,-1.981 -432.207,0.296Z" style="fill:#d2f98e;stroke:#1d1e18;stroke-width:4.54px;"/><path d="M446.374,285.47l0,637.329" style="fill:none;stroke:#1d1e18;stroke-width:4.54px;"/><path d="M279.211,132.139c28.833,10.616 42.358,46.079 30.184,79.145c-12.174,33.066 -45.467,51.293 -74.299,40.677c-28.833,-10.616 -42.358,-46.079 -30.184,-79.145c12.174,-33.066 45.466,-51.292 74.299,-40.677Z" style="fill:#1d1e18;stroke:#1d1e18;stroke-width:4.54px;"/><path d="M266.962,120.858c28.833,10.616 42.358,46.079 30.184,79.145c-12.174,33.066 -45.467,51.292 -74.299,40.677c-28.833,-10.616 -42.358,-46.079 -30.184,-79.145c12.174,-33.066 45.466,-51.293 74.299,-40.677Z" style="fill:#faffd8;stroke:#1d1e18;stroke-width:4.54px;"/><g><ellipse cx="208.857" cy="452.016" rx="138.226" ry="58.197" style="fill:#faffd8;stroke:#1d1e18;stroke-width:4.54px;"/><path d="M198.428,407.197c0,0 -91.855,-1.973 -64.064,26.475c27.425,28.074 73.139,79.538 5.564,46.889c-67.575,-32.65 -37.671,-45.426 -37.671,-45.426" style="fill:none;stroke:#1d1e18;stroke-width:4.54px;"/><path d="M161.366,438.867c8.299,0.094 13.526,1.303 15.441,10.726c3.345,16.455 7.023,38.709 20.085,34.949c20.635,-5.941 8.316,-52.481 8.316,-52.481" style="fill:none;stroke:#1d1e18;stroke-width:4.54px;"/><path d="M181.253,491.05c0,0 32.172,19.156 36.644,-6.084c4.472,-25.24 -3.561,-44.574 0.683,-50.065c4.244,-5.492 33.849,-6.755 24.78,17.115c-9.069,23.871 -24.78,16.77 -24.78,16.77" style="fill:none;stroke:#1d1e18;stroke-width:4.54px;"/><path d="M250.302,456.279c0.303,14.124 52.406,-4.25 29.032,-16.614c-43.639,-23.084 -36.35,68.65 6.565,37.538" style="fill:none;stroke:#1d1e18;stroke-width:4.54px;"/><path d="M249.952,483.715c8.639,12.971 38.867,5.767 43.498,-2.975c4.348,-8.209 -2.699,-25.847 0.547,-41.075c1.987,-9.319 24.287,-2.585 29.691,-3.103" style="fill:none;stroke:#1d1e18;stroke-width:4.54px;"/></g><g><path d="M111.499,531.072l0,103.544c0,9.263 -2.919,17.003 -8.756,23.221c-2.918,3.046 -6.376,5.457 -10.373,7.233c-3.997,1.777 -8.661,2.665 -13.99,2.665c-6.218,0 -11.389,-1.364 -15.513,-4.093c-4.123,-2.728 -7.391,-5.424 -9.802,-8.089l15.227,-12.181c1.396,1.395 3.014,2.569 4.854,3.521c1.84,0.951 3.775,1.427 5.805,1.427c1.142,0 2.474,-0.222 3.997,-0.666c1.523,-0.444 2.982,-1.301 4.378,-2.569c1.396,-1.142 2.538,-2.76 3.426,-4.854c0.888,-2.094 1.332,-4.854 1.332,-8.28l0,-100.879l19.415,0Z" style="fill-rule:nonzero;"/><path d="M185.54,570.092l0,96.501l-19.414,0l0,-9.327l-0.381,0c-2.03,3.046 -4.473,5.552 -7.328,7.519c-2.855,1.966 -6.503,2.95 -10.944,2.95c-2.411,0 -4.822,-0.413 -7.233,-1.237c-2.411,-0.825 -4.568,-2.189 -6.472,-4.093c-1.903,-1.903 -3.426,-4.346 -4.568,-7.328c-1.142,-2.982 -1.713,-6.63 -1.713,-10.944l0,-74.041l19.415,0l0,66.808c0,3.553 0.824,6.345 2.474,8.375c1.65,2.03 3.997,3.045 7.042,3.045c3.68,0 6.218,-1.142 7.614,-3.426c1.396,-2.284 2.094,-5.583 2.094,-9.897l0,-64.905l19.414,0Z" style="fill-rule:nonzero;"/><path d="M201.529,666.593l0,-96.501l19.414,0l0,96.501l-19.414,0Zm0,-116.106l0,-19.415l19.414,0l0,19.415l-19.414,0Z" style="fill-rule:nonzero;"/><path d="M257.488,638.803c0,3.046 0.856,5.393 2.569,7.043c1.713,1.65 4.029,2.474 6.948,2.474c3.68,0 6.122,-1.078 7.328,-3.235c1.205,-2.158 1.935,-4.315 2.189,-6.472l19.414,0c0,8.502 -2.601,15.354 -7.804,20.557c-2.538,2.664 -5.583,4.758 -9.136,6.281c-3.553,1.522 -7.55,2.284 -11.991,2.284c-6.091,0 -11.262,-1.269 -15.513,-3.807c-4.251,-2.538 -7.518,-5.9 -9.802,-10.088c-1.396,-2.538 -2.348,-5.456 -2.855,-8.755c-0.508,-3.3 -0.762,-6.916 -0.762,-10.85l0,-31.786c0,-3.934 0.254,-7.55 0.762,-10.849c0.507,-3.3 1.459,-6.218 2.855,-8.756c2.284,-4.187 5.551,-7.55 9.802,-10.088c4.251,-2.538 9.422,-3.807 15.513,-3.807c4.441,0 8.47,0.762 12.086,2.285c3.617,1.522 6.694,3.616 9.232,6.281c5.075,5.71 7.613,13.133 7.613,22.269l-19.414,0c0,-3.933 -0.857,-6.82 -2.57,-8.66c-1.713,-1.84 -4.029,-2.76 -6.947,-2.76c-2.919,0 -5.235,0.92 -6.948,2.76c-1.713,1.84 -2.569,4.6 -2.569,8.28l0,39.399Z" style="fill-rule:nonzero;"/><path d="M363.506,625.67l-38.448,0l0,13.133c0,3.046 0.856,5.393 2.569,7.043c1.713,1.65 4.029,2.474 6.948,2.474c3.679,0 6.122,-1.078 7.328,-3.235c1.205,-2.158 1.935,-4.315 2.188,-6.472l19.415,0c0,8.502 -2.601,15.354 -7.804,20.557c-2.538,2.664 -5.583,4.758 -9.136,6.281c-3.553,1.522 -7.55,2.284 -11.991,2.284c-6.091,0 -11.262,-1.269 -15.513,-3.807c-4.251,-2.538 -7.518,-5.9 -9.802,-10.088c-1.396,-2.538 -2.348,-5.456 -2.855,-8.755c-0.508,-3.3 -0.762,-6.916 -0.762,-10.85l0,-31.786c0,-3.934 0.254,-7.55 0.762,-10.849c0.507,-3.3 1.459,-6.218 2.855,-8.756c2.284,-4.187 5.551,-7.55 9.802,-10.088c4.251,-2.538 9.422,-3.807 15.513,-3.807c4.441,0 8.47,0.762 12.086,2.285c3.616,1.522 6.694,3.616 9.231,6.281c5.076,5.71 7.614,12.879 7.614,21.508l0,26.647Zm-38.448,-15.227l19.033,0l0,-11.039c0,-3.68 -0.856,-6.44 -2.569,-8.28c-1.713,-1.84 -4.029,-2.76 -6.947,-2.76c-2.919,0 -5.235,0.92 -6.948,2.76c-1.713,1.84 -2.569,4.6 -2.569,8.28l0,11.039Z" style="fill-rule:nonzero;"/></g><path d="M183.464,706.751c25.826,0 46.794,83.925 46.794,109.752c0,25.826 -20.968,44.227 -46.794,44.227c-25.827,0 -46.794,-18.401 -46.794,-44.227c0,-25.827 20.967,-109.752 46.794,-109.752Z" style="fill:#d2f98e;stroke:#1d1e18;stroke-width:4.54px;"/><circle cx="183.464" cy="810.022" r="20.777" style="fill:#8fc31f;stroke:#1d1e18;stroke-width:0.61px;"/><path d="M282.508,766.933c18.262,18.262 -26.256,92.433 -44.518,110.695c-18.262,18.261 -46.1,16.447 -64.362,-1.815c-18.262,-18.262 -20.076,-46.1 -1.814,-64.362c18.262,-18.262 92.432,-62.78 110.694,-44.518Z" style="fill:#d2f98e;stroke:#1d1e18;stroke-width:4.54px;"/><path d="M224.176,825.265c8.109,8.109 8.109,21.275 0,29.384c-8.109,8.108 -21.275,8.108 -29.384,0c-8.108,-8.109 -8.108,-21.275 0,-29.384c8.109,-8.109 21.275,-8.109 29.384,0Z" style="fill:#1d1e18;stroke:#1d1e18;stroke-width:4.54px;"/><g><path d="M462.571,721.101l-1.719,1.408l-1.348,190.22l1.719,-1.407l1.348,-190.221Z" style="stroke:#1d1e18;stroke-width:0.61px;"/><path d="M509.688,682.524l-1.719,1.407l-1.348,190.221l1.719,-1.408l1.348,-190.22Z" style="stroke:#1d1e18;stroke-width:0.61px;"/><path d="M537.958,659.377l-1.719,1.408l-1.348,190.22l1.719,-1.407l1.348,-190.221Z" style="stroke:#1d1e18;stroke-width:0.61px;"/><path d="M514.399,678.666l-1.719,1.407l-1.347,190.221l1.719,-1.407l1.347,-190.221Z" style="stroke:#1d1e18;stroke-width:0.61px;"/><path d="M466.626,717.781l-0.405,0.332l-1.348,190.221l0.405,-0.332l1.348,-190.221Z" style="stroke:#1d1e18;stroke-width:0.61px;"/><path d="M476.049,710.066l-0.405,0.332l-1.348,190.22l0.405,-0.331l1.348,-190.221Z" style="stroke:#1d1e18;stroke-width:0.61px;"/><path d="M485.473,702.35l-0.406,0.332l-1.348,190.221l0.406,-0.332l1.348,-190.221Z" style="stroke:#1d1e18;stroke-width:0.61px;"/><path d="M490.184,698.493l-0.405,0.331l-1.348,190.221l0.405,-0.332l1.348,-190.22Z" style="stroke:#1d1e18;stroke-width:0.61px;"/><path d="M494.896,694.635l-0.405,0.332l-1.348,190.22l0.405,-0.331l1.348,-190.221Z" style="stroke:#1d1e18;stroke-width:0.61px;"/><path d="M499.608,690.777l-0.406,0.332l-1.348,190.221l0.406,-0.332l1.348,-190.221Z" style="stroke:#1d1e18;stroke-width:0.61px;"/><path d="M523.166,671.488l-0.405,0.332l-1.348,190.221l0.405,-0.332l1.348,-190.221Z" style="stroke:#1d1e18;stroke-width:0.61px;"/><path d="M527.878,667.63l-0.406,0.332l-1.348,190.221l0.406,-0.332l1.348,-190.221Z" style="stroke:#1d1e18;stroke-width:0.61px;"/><path d="M532.589,663.773l-0.405,0.332l-1.348,190.22l0.405,-0.331l1.348,-190.221Z" style="stroke:#1d1e18;stroke-width:0.61px;"/><path d="M472.741,712.775l-3.212,2.629l-1.348,190.221l3.212,-2.63l1.348,-190.22Z" style="stroke:#1d1e18;stroke-width:0.61px;"/><path d="M505.723,685.77l-3.212,2.63l-1.348,190.221l3.212,-2.63l1.348,-190.221Z" style="stroke:#1d1e18;stroke-width:0.61px;"/><path d="M519.857,674.197l-3.211,2.63l-1.348,190.221l3.212,-2.63l1.347,-190.221Z" style="stroke:#1d1e18;stroke-width:0.61px;"/><path d="M543.416,654.908l-3.212,2.63l-1.348,190.221l3.212,-2.63l1.348,-190.221Z" style="stroke:#1d1e18;stroke-width:0.61px;"/><path d="M482.164,705.059l-3.212,2.63l-1.347,190.221l3.211,-2.63l1.348,-190.221Z" style="stroke:#1d1e18;stroke-width:0.61px;"/></g><g><path d="M463.437,715.367l-1.724,1.32l0.03,-10.13c-0.397,0.657 -0.93,1.424 -1.599,2.304c-0.669,0.879 -1.283,1.627 -1.843,2.244l0.005,-1.537c0.948,-1.138 1.786,-2.282 2.514,-3.432c0.728,-1.151 1.24,-2.122 1.536,-2.913l1.118,-0.856l-0.037,13Z" style="fill-rule:nonzero;"/><path d="M467.86,708.569l1.724,-1.532c0.353,1.422 1.255,1.577 2.706,0.465c0.784,-0.6 1.465,-1.372 2.041,-2.316c0.576,-0.943 0.865,-1.815 0.867,-2.616c0.002,-0.753 -0.26,-1.158 -0.787,-1.213c-0.526,-0.054 -1.174,0.212 -1.942,0.801c-0.326,0.25 -0.73,0.618 -1.212,1.104l0.202,-1.547l0.268,-0.187c0.846,-0.648 1.534,-1.372 2.063,-2.171c0.529,-0.798 0.794,-1.527 0.796,-2.187c0.002,-0.606 -0.218,-0.924 -0.659,-0.953c-0.442,-0.029 -0.981,0.2 -1.617,0.688c-0.66,0.505 -1.218,1.124 -1.673,1.858c-0.456,0.733 -0.746,1.539 -0.873,2.417l-1.711,1.029c0.221,-1.274 0.712,-2.484 1.475,-3.632c0.762,-1.148 1.683,-2.135 2.762,-2.962c1.134,-0.868 2.095,-1.287 2.885,-1.258c0.791,0.03 1.184,0.527 1.181,1.493c-0.001,0.589 -0.172,1.239 -0.511,1.951c-0.339,0.712 -0.812,1.429 -1.418,2.152c0.559,-0.31 1.02,-0.47 1.384,-0.478c0.364,-0.009 0.658,0.127 0.882,0.408c0.224,0.281 0.335,0.701 0.333,1.261c-0.003,1.189 -0.468,2.516 -1.394,3.98c-0.926,1.464 -2.033,2.689 -3.322,3.676c-1.196,0.916 -2.208,1.362 -3.037,1.339c-0.829,-0.023 -1.3,-0.547 -1.413,-1.57Z" style="fill-rule:nonzero;"/><path d="M478.737,700.239l1.724,-1.532c0.353,1.422 1.255,1.577 2.706,0.465c0.784,-0.6 1.465,-1.372 2.041,-2.316c0.575,-0.943 0.865,-1.815 0.867,-2.616c0.002,-0.753 -0.26,-1.158 -0.787,-1.213c-0.526,-0.055 -1.174,0.212 -1.942,0.801c-0.326,0.25 -0.73,0.618 -1.212,1.104l0.202,-1.547l0.268,-0.187c0.846,-0.648 1.534,-1.372 2.063,-2.171c0.529,-0.798 0.794,-1.528 0.796,-2.187c0.002,-0.606 -0.218,-0.924 -0.659,-0.953c-0.442,-0.029 -0.981,0.2 -1.617,0.688c-0.66,0.505 -1.218,1.124 -1.673,1.858c-0.456,0.733 -0.746,1.539 -0.873,2.417l-1.711,1.029c0.221,-1.274 0.712,-2.484 1.475,-3.632c0.762,-1.148 1.683,-2.135 2.762,-2.962c1.134,-0.868 2.095,-1.287 2.885,-1.258c0.791,0.03 1.184,0.527 1.181,1.493c-0.001,0.588 -0.172,1.239 -0.511,1.951c-0.339,0.712 -0.812,1.429 -1.418,2.152c0.559,-0.31 1.02,-0.47 1.384,-0.478c0.364,-0.009 0.658,0.127 0.882,0.408c0.224,0.281 0.335,0.701 0.333,1.26c-0.003,1.19 -0.468,2.516 -1.394,3.981c-0.926,1.464 -2.033,2.689 -3.322,3.676c-1.196,0.916 -2.208,1.362 -3.037,1.339c-0.829,-0.023 -1.3,-0.547 -1.413,-1.57Z" style="fill-rule:nonzero;"/><path d="M489.742,683.995l0.004,-1.528l9.061,-6.939l-0.004,1.237c-1.355,2.365 -2.548,5.007 -3.579,7.926c-1.031,2.919 -1.627,5.486 -1.788,7.701l-1.771,1.356c0.027,-1.101 0.258,-2.538 0.693,-4.311c0.435,-1.772 1.031,-3.6 1.788,-5.484c0.757,-1.884 1.571,-3.618 2.443,-5.202l-6.847,5.244Z" style="fill-rule:nonzero;"/><path d="M509.534,678.539l-0.004,1.527l-9.258,7.091c-0.022,-0.6 0.227,-1.481 0.745,-2.642c0.519,-1.161 1.466,-2.788 2.844,-4.883c1.61,-2.443 2.665,-4.187 3.164,-5.23c0.499,-1.043 0.749,-1.85 0.751,-2.421c0.001,-0.659 -0.251,-1.002 -0.759,-1.027c-0.507,-0.026 -1.133,0.247 -1.878,0.818c-0.8,0.612 -1.457,1.338 -1.971,2.178c-0.513,0.84 -0.771,1.678 -0.774,2.514l-1.769,1.188c0.127,-1.338 0.594,-2.628 1.399,-3.87c0.806,-1.242 1.865,-2.366 3.177,-3.371c1.428,-1.094 2.508,-1.557 3.24,-1.389c0.731,0.168 1.096,0.718 1.093,1.648c-0.002,0.824 -0.292,1.835 -0.869,3.031c-0.576,1.197 -1.67,3.04 -3.281,5.531c-1.027,1.58 -1.691,2.628 -1.99,3.146c-0.3,0.517 -0.543,0.991 -0.731,1.423l6.871,-5.262Z" style="fill-rule:nonzero;"/><path d="M517.821,673.716l-1.723,1.32l0.029,-10.129c-0.397,0.656 -0.929,1.424 -1.598,2.303c-0.669,0.88 -1.283,1.628 -1.843,2.244l0.005,-1.537c0.948,-1.137 1.786,-2.281 2.514,-3.432c0.728,-1.15 1.24,-2.121 1.536,-2.912l1.118,-0.857l-0.038,13Z" style="fill-rule:nonzero;"/><path d="M522.242,663.96c0.006,-2.173 0.397,-4.114 1.173,-5.824c0.776,-1.711 1.917,-3.142 3.423,-4.296c1.335,-1.023 2.386,-1.375 3.152,-1.057c0.929,0.382 1.389,1.777 1.382,4.185c-0.006,2.16 -0.395,4.096 -1.167,5.806c-0.772,1.71 -1.915,3.145 -3.429,4.305c-1.335,1.022 -2.426,1.365 -3.274,1.027c-0.847,-0.338 -1.267,-1.72 -1.26,-4.146Zm1.759,-1.347c-0.007,2.102 0.255,3.307 0.785,3.615c0.53,0.308 1.21,0.144 2.041,-0.492c0.784,-0.601 1.441,-1.465 1.971,-2.594c0.53,-1.128 0.798,-2.734 0.804,-4.819c0.006,-2.107 -0.256,-3.314 -0.785,-3.619c-0.53,-0.305 -1.218,-0.134 -2.064,0.514c-0.777,0.595 -1.428,1.455 -1.954,2.581c-0.526,1.125 -0.792,2.73 -0.798,4.814Z" style="fill-rule:nonzero;"/><path d="M542.165,653.548l-0.004,1.528l-9.259,7.091c-0.021,-0.601 0.228,-1.481 0.746,-2.642c0.519,-1.161 1.466,-2.789 2.844,-4.883c1.61,-2.444 2.665,-4.187 3.164,-5.23c0.499,-1.043 0.749,-1.85 0.751,-2.421c0.001,-0.659 -0.251,-1.002 -0.759,-1.027c-0.507,-0.026 -1.133,0.246 -1.879,0.817c-0.799,0.613 -1.456,1.339 -1.97,2.179c-0.513,0.84 -0.771,1.678 -0.774,2.514l-1.769,1.187c0.127,-1.337 0.594,-2.627 1.399,-3.869c0.806,-1.243 1.864,-2.366 3.177,-3.371c1.428,-1.094 2.508,-1.557 3.24,-1.389c0.731,0.168 1.096,0.717 1.093,1.648c-0.003,0.824 -0.292,1.834 -0.869,3.031c-0.577,1.196 -1.67,3.04 -3.281,5.531c-1.027,1.58 -1.691,2.628 -1.99,3.146c-0.3,0.517 -0.544,0.991 -0.731,1.422l6.871,-5.262Z" style="fill-rule:nonzero;"/></g></svg>