<?xml version="1.0" encoding="UTF-8" standalone="no"?><!DOCTYPE svg PUBLIC "-//W3C//DTD SVG 1.1//EN" "http://www.w3.org/Graphics/SVG/1.1/DTD/svg11.dtd"><svg width="100%" height="100%" viewBox="0 0 301 245" version="1.1" xmlns="http://www.w3.org/2000/svg" xmlns:xlink="http://www.w3.org/1999/xlink" xml:space="preserve" xmlns:serif="http://www.serif.com/" style="fill-rule:evenodd;clip-rule:evenodd;stroke-linejoin:round;stroke-miterlimit:1.41421;"><path id="path3611" d="M94.719,243.187c112.46,0 173.956,-93.168 173.956,-173.956c0,-2.647 -0.054,-5.281 -0.173,-7.903c11.938,-8.63 22.315,-19.4 30.498,-31.66c-10.955,4.869 -22.744,8.147 -35.111,9.625c12.624,-7.569 22.315,-19.543 26.886,-33.817c-11.813,7.003 -24.895,12.093 -38.824,14.841c-11.157,-11.885 -27.04,-19.317 -44.629,-19.317c-33.763,0 -61.144,27.381 -61.144,61.132c0,4.798 0.537,9.465 1.586,13.941c-50.816,-2.557 -95.874,-26.886 -126.026,-63.88c-5.251,9.035 -8.278,19.531 -8.278,30.73c0,21.212 10.793,39.938 27.207,50.893c-10.031,-0.31 -19.453,-3.063 -27.69,-7.647c-0.009,0.257 -0.009,0.507 -0.009,0.781c0,29.61 21.075,54.332 49.051,59.934c-5.137,1.401 -10.543,2.152 -16.122,2.152c-3.934,0 -7.766,-0.387 -11.491,-1.103c7.784,24.294 30.355,41.971 57.115,42.466c-20.925,16.402 -47.287,26.17 -75.937,26.17c-4.929,0 -9.798,-0.28 -14.584,-0.846c27.059,17.344 59.189,27.464 93.722,27.464" style="fill-rule:nonzero;"/></svg>